<?xml version="1.0" standalone="no"?>
<!DOCTYPE svg PUBLIC "-//W3C//DTD SVG 1.1//EN" "http://www.w3.org/Graphics/SVG/1.1/DTD/svg11.dtd" >
<svg xmlns="http://www.w3.org/2000/svg">
    <defs>
        <font id="ChocStd">
            <font-face font-family="ChocStd"
                       units-per-em="1000"
                       ascent="673"
                       descent="-201"
                       bbox="-116 -273 1055 852"
                    />
            <missing-glyph horiz-adv-x="0" />
            
            <glyph glyph-name="!" unicode="&#x21;" horiz-adv-x="283" d=" M153,221 L144,185 L89,168 Q94,206 99,345 Q104,484 131,585 L120,634 Q155,655 191,668 Q210,662 235,642.5 Q260,623 274,606 Q283,597 283,591.5 Q283,586 276,566 Q220,391 208,279 Q206,257 196,246.5 Q186,236 153,221 M148,22 L106,23 L64,-12 Q63,-11 58,-6.5 Q53,-2 51,0.5 Q49,3 46,7.5 Q43,12 41.5,18 Q40,24 40,32 Q40,42 69,105 Q75,116 87,126 Q99,135 124,143.5 Q149,152 160,153 Q177,154 179,140 Q179,123 171,83.5 Q163,44 148,22"/> 
            <glyph glyph-name="&quot;" unicode="&#x22;" horiz-adv-x="399" d=" M140,649 L236,655 Q244,656 249.5,649.5 Q255,643 249,628 Q236,601 196.5,527.5 Q157,454 148,440 Q138,426 130,424 Q122,422 96,432 Q117,551 140,649 M284,649 L380,655 Q388,656 393.5,649.5 Q399,643 393,628 Q380,601 340.5,527.5 Q301,454 292,440 Q282,426 274,424 Q266,422 241,432 Q259,542 284,649"/> 
            <glyph glyph-name="$" unicode="&#x24;" horiz-adv-x="484" d=" M484,552 L462,394 L440,399 L423,476 Q387,473 342,447 Q330,323 330,241 Q376,225 407,211 Q419,205 428,191 Q436,180 445.5,155 Q455,130 455,116 Q455,93 435,79 Q389,46 318,16 L313,-71 Q313,-92 293,-90 Q282,-90 271.5,-96.5 Q261,-103 254,-103 L253,-103 Q241,-101 242,-84 L243,-11 Q188,-24 150.5,-10.5 Q113,3 69,44 L72,56 Q89,55 105,56 Q121,57 136,61 Q151,65 162,68 Q173,71 187,78.5 Q201,86 207.5,89.5 Q214,93 228.5,101.5 Q243,110 246,112 L247,155 Q175,179 137,195.5 Q99,212 78,231 Q33,271 33,335 Q34,386 60,436 Q86,486 125.5,524 Q165,562 208.5,590 Q252,618 293,633 L305,690 Q307,701 316.5,706 Q326,711 351,703 L350,653 L385,660 Q401,664 406,651 Q433,578 484,552 M261,398 Q126,307 251,270"/> 
            <glyph glyph-name="%" unicode="&#x25;" horiz-adv-x="561" d=" M162,643 Q186,629 201,616 L213,623 Q256,596 272.5,570 Q289,544 290,507 Q292,423 273,387 Q261,364 228.5,339 Q196,314 161,305 Q111,292 96,313 Q83,331 70.5,363 Q58,395 57,425 Q56,453 74.5,516 Q93,579 113,602 Q134,627 162,643 M207,568 Q148,493 133,400 Q165,408 191.5,434 Q218,460 226,495 Q234,530 207,568 M29,-8 Q37,8 274,343 Q343,442 403,522 Q463,602 482,618 Q486,622 489,623 Q492,624 494.5,623 Q497,622 501,621 Q505,620 508,619 Q514,618 522.5,617.5 Q531,617 537,616.5 Q543,616 549,615 Q555,614 558,612 Q561,610 561,607 Q561,597 553,588 Q535,569 477,498.5 Q419,428 362,353 Q310,285 255,211 Q200,137 173,100.5 Q146,64 121.5,33.5 Q97,3 83,-10 Q60,-29 47,-29 Q35,-30 29.5,-23 Q24,-16 29,-8 M407,338 Q431,324 446,311 L457,317 Q501,291 517.5,265 Q534,239 535,202 Q537,118 518,82 Q506,59 473.5,34 Q441,9 406,0 Q357,-15 341,8 Q303,63 302,119 Q300,147 319,210 Q338,273 358,297 Q379,322 407,338 M452,263 Q393,188 378,95 Q410,103 436.5,129 Q463,155 471,190 Q479,225 452,263"/> 
            <glyph glyph-name="&amp;" unicode="&#x26;" horiz-adv-x="689" d=" M509,504 L450,460 L443,464 L445,506 Q352,446 337,402 Q329,382 336.5,333.5 Q344,285 360,252 Q391,283 453.5,360.5 Q516,438 527,459 Q529,457 534.5,449.5 Q540,442 541.5,439 Q543,436 547.5,429 Q552,422 552.5,417.5 Q553,413 554.5,405 Q556,397 554,390 Q552,383 549,374 Q546,365 539.5,355 Q533,345 524,334 Q541,285 541.5,262 Q542,239 528,221 Q515,200 435,133 Q462,101 484,102 Q522,105 578,137.5 Q634,170 675,206 L689,189 Q667,120 662,68 Q632,40 588.5,12.5 Q545,-15 515,-17 Q493,-19 445.5,8.5 Q398,36 364,75 Q313,36 237.5,-1 Q162,-38 132,-40 Q108,-42 65,-7.5 Q22,27 20,53 Q18,80 42.5,135.5 Q67,191 105,248 Q154,322 229,392 Q226,467 232,507 Q285,560 350,596 L352,610 Q372,625 412,644 Q452,663 473,664 Q491,665 498,651 Q505,637 507,606 Q509,574 509,504 M253,277 Q136,122 162,105 Q165,104 169,104 Q201,104 290,187 Q263,235 253,277"/> 
            <glyph glyph-name="'" unicode="&#x27;" horiz-adv-x="256" d=" M140,649 L236,655 Q244,656 250,648.5 Q256,641 250,628 Q166,466 148,440 Q138,426 130,424 Q122,422 97,432 Q115,542 140,649"/> 
            <glyph glyph-name="(" unicode="&#x28;" horiz-adv-x="344" d=" M256,681 L340,683 L344,643 Q313,619 296.5,584.5 Q280,550 281,523.5 Q282,497 287,476 Q234,335 203,224 Q194,193 194,175.5 Q194,158 202,127 Q218,65 267,-57 L235,-85 Q136,59 107,119 Q104,125 102,130.5 Q100,136 98,142 Q96,148 95,152.5 Q94,157 93,164.5 Q92,172 91.5,175.5 Q91,179 91,188.5 Q91,198 90.5,200.5 Q90,203 90,214.5 Q90,226 90,229 Q89,275 104,375 Q119,475 142,525 Q156,555 256,681"/> 
            <glyph glyph-name=")" unicode="&#x29;" horiz-adv-x="307" d=" M128,642 L151,710 Q245,568 297,465 Q307,447 305.5,389.5 Q304,332 299,284 Q294,236 290,211 Q284,179 240,70 L206,60 L156,-33 L104,-25 L89,-52 L40,-46 L142,162 Q158,228 165.5,365 Q173,502 172,561 Q154,601 128,642"/> 
            <glyph glyph-name="*" unicode="&#x2A;" horiz-adv-x="314" d=" M177,570 Q183,630 200,667 Q202,673 214,673 Q214,654 227,634 Q212,582 211,579 Q257,619 277,623 Q296,626 309,614 L223,548 L293,554 L310,538 Q314,534 313.5,528 Q313,522 307,521 Q255,519 223,513 Q241,485 263,457 Q267,452 261.5,444 Q256,436 244,435 Q234,434 216,457.5 Q198,481 193,497 Q187,473 183,429 L148,404 Q147,413 158,492 Q154,486 131,462 Q108,438 98,430 Q93,427 89.5,428 Q86,429 87,434 Q87,436 89,445.5 Q91,455 91,464 L138,520 Q105,524 66,520 Q62,519 60.5,521.5 Q59,524 60,528 Q64,537 75,550 Q78,553 86,555 Q94,556 118.5,555 Q143,554 150,553 Q129,583 115,613 Q114,616 118,622.5 Q122,629 126,630 Q137,630 143,622 Q161,597 177,570"/> 
            <glyph glyph-name="+" unicode="&#x2B;" horiz-adv-x="441" d=" M441,252 L282,252 L282,76 L212,76 L212,252 L54,252 L54,322 L212,322 L212,498 L282,498 L282,322 L441,322"/> 
            <glyph glyph-name="," unicode="&#x2C;" horiz-adv-x="186" d=" M61,97 L105,128 Q136,113 171,117 L186,104 L184,88 Q183,87 160.5,46.5 Q138,6 111,-39.5 Q84,-85 60,-119 Q48,-137 40,-126 L24,-106 Q35,-71 47,-7 Q59,57 61,97"/> 
            <glyph glyph-name="-" unicode="&#x2D;" horiz-adv-x="337" d=" M322,271 Q321,241 323,220.5 Q325,200 327.5,192.5 Q330,185 333,178 Q336,171 337,166 Q337,160 331.5,156 Q326,152 312,156 Q279,165 261,162.5 Q243,160 209.5,152.5 Q176,145 155,145 Q109,145 85,176 Q50,222 50,237 Q50,245 58.5,255.5 Q67,266 75,265 Q96,262 173.5,269 Q251,276 322,271"/> 
            <glyph glyph-name="." unicode="&#x2E;" horiz-adv-x="216" d=" M44,34 Q75,83 114,131 L134,132 Q162,115 197,110 Q215,107 215.5,93.5 Q216,80 207,62 Q116,1 66,-13 Q49,9 44,34"/> 
            <glyph glyph-name="/" unicode="&#x2F;" horiz-adv-x="460" d=" M20,-65 Q38,-15 190,322 Q342,659 371,695 Q375,699 378,701 Q381,703 383,702.5 Q385,702 389,701.5 Q393,701 396,701 Q401,701 411,702 Q421,703 427.5,703 Q434,703 441.5,703 Q449,703 453,702 Q457,701 458,698 Q460,686 454,674 Q446,658 403.5,571.5 Q361,485 312.5,387.5 Q264,290 213.5,188.5 Q163,87 127,17.5 Q91,-52 86,-59 Q58,-94 30,-80 Q17,-73 20,-65"/> 
            <glyph glyph-name="0" unicode="&#x30;" horiz-adv-x="462" d=" M194,659 Q229,634 276,594 L296,619 Q352,595 396,550.5 Q440,506 451,466 Q462,409 460.5,337 Q459,265 449,227 Q431,149 340,75 Q249,1 189,-1 Q168,-2 144,22 Q116,51 75.5,130 Q35,209 34,265 Q30,368 81,507 Q108,582 194,659 M295,534 Q261,489 214,372.5 Q167,256 154,182 Q228,207 280,266 Q332,325 344,380 Q355,429 342,463.5 Q329,498 295,534"/> 
            <glyph glyph-name="1" unicode="&#x31;" horiz-adv-x="309" d=" M108,451 L54,393 L34,409 Q60,513 112,637 L167,655 Q220,640 283,613 Q309,601 307,565 L301,469 Q246,247 192,83 Q119,39 75,-17 L53,-5 Q85,283 108,451"/> 
            <glyph glyph-name="2" unicode="&#x32;" horiz-adv-x="446" d=" M406,68 L433,33 Q325,-5 237,-1 Q150,3 101,29.5 Q52,56 53,107 Q54,180 120,275.5 Q186,371 269,425 Q234,444 189,456 Q144,468 101.5,465 Q59,462 48,436 L27,444 Q47,538 74,616 Q75,620 76.5,623 Q78,626 80,628.5 Q82,631 85,632.5 Q88,634 90,635.5 Q92,637 97,637.5 Q102,638 105.5,638.5 Q109,639 116,639.5 Q123,640 128,640 Q133,640 142.5,640.5 Q152,641 159,641 Q205,643 260,632.5 Q315,622 355,603 Q407,580 426.5,548 Q446,516 445,456 Q444,412 437,378 Q432,342 396,313 Q370,292 288,234.5 Q206,177 169,143 Q161,135 158,131 Q155,127 156.5,118.5 Q158,110 170,103 Q204,82 276,69 Q348,56 406,68"/> 
            <glyph glyph-name="3" unicode="&#x33;" horiz-adv-x="457" d=" M33,653 Q160,662 268.5,633.5 Q377,605 430,560 Q456,538 456.5,518 Q457,498 438,477 Q382,411 264,305 Q267,303 319,275 Q371,247 403,223.5 Q435,200 435,184 Q435,149 367,88 Q306,36 241.5,12 Q177,-12 143,-12 Q120,-13 84,24 Q48,61 36,92 L41,98 Q90,92 159,108 Q228,124 278,152 Q245,179 200,202.5 Q155,226 133,231 Q110,235 105,241 Q85,267 50,333 L74,378 Q211,494 256,538 Q218,569 173.5,580 Q129,591 68,594"/> 
            <glyph glyph-name="4" unicode="&#x34;" horiz-adv-x="496" d=" M496,155 L493,127 Q448,113 389,96 L367,-39 L329,-39 L272,42 L280,100 Q206,113 171,128 Q135,145 80,223 Q55,258 43.5,283 Q32,308 34,336 Q35,362 55.5,407 Q76,452 114.5,529.5 Q153,607 179,669 L198,679 Q285,617 301,592 Q319,563 309,532 Q303,508 255,395.5 Q207,283 195,242 Q195,240 193,234 Q191,228 190.5,225 Q190,222 191,218 Q192,214 196,211.5 Q200,209 207,207 L294,187 Q326,375 359,611 Q361,625 373,620 Q383,616 393.5,606 Q404,596 416.5,576.5 Q429,557 435.5,522.5 Q442,488 439,444 Q436,397 419,290 Q402,183 402,172 Q440,162 496,155"/> 
            <glyph glyph-name="5" unicode="&#x35;" horiz-adv-x="446" d=" M127,667 L231,644 L242,625 L400,613 L441,499 Q446,480 426,477 Q245,454 239,448 Q234,443 221,416 Q208,389 202,371 Q202,370 200.5,366 Q199,362 198.5,360.5 Q198,359 197,355 Q196,351 197,348.5 Q198,346 199,342.5 Q200,339 202.5,335.5 Q205,332 209,328 Q215,323 242.5,299 Q270,275 288.5,258 Q307,241 328,218.5 Q349,196 356,181 Q372,154 370,127.5 Q368,101 343,73 Q302,24 202,-28 Q128,26 54,10 L44,27 Q149,92 190,146 Q218,185 189,212 Q125,276 100,305 Q82,324 61.5,362 Q41,400 40,437 Q39,483 69,552.5 Q99,622 127,667"/> 
            <glyph glyph-name="6" unicode="&#x36;" horiz-adv-x="536" d=" M384,655 L457,638 Q389,580 318,488.5 Q247,397 233,360 Q300,358 383.5,338 Q467,318 499,292 Q536,262 509,213 Q461,125 377,65 Q292,3 196,-1 Q115,-5 68.5,61 Q22,127 41,253 L30,277 Q25,290 28.5,295 Q32,300 53,313 Q89,401 175,492 Q212,532 271.5,580 Q331,628 384,655 M183,193 Q179,147 189,114 Q199,81 213,82 Q221,82 233.5,94 Q246,106 261,126 Q276,146 288.5,163.5 Q301,181 315,201.5 Q329,222 332,227 Q226,209 183,193"/> 
            <glyph glyph-name="7" unicode="&#x37;" horiz-adv-x="433" d=" M114,-25 L65,-31 Q219,357 247,470 Q215,475 153,473 L175,418 L159,394 Q94,484 37,541 Q25,553 28,571 Q31,602 42,634 Q48,652 70,652 Q152,653 242.5,644 Q333,635 361,626 Q385,618 395,601 Q410,575 425,519 Q433,491 422,463 Q401,406 316,263 Q231,120 184,57 Q162,48 145.5,29.5 Q129,11 114,-25"/> 
            <glyph glyph-name="8" unicode="&#x38;" horiz-adv-x="478" d=" M72,478 L91,526 Q154,490 191,452 L278,565 Q178,586 20,584 Q68,645 76,647 Q143,669 251.5,668.5 Q360,668 409,644 Q455,621 466.5,583.5 Q478,546 461,516 Q447,484 403,425.5 Q359,367 313,315 Q374,238 374,162 Q375,91 330,38.5 Q285,-14 213,-15 Q153,-15 95.5,37 Q38,89 37,167 Q37,244 140,385 Q107,438 72,478 M239,227 Q238,226 228,213 Q218,200 215,195.5 Q212,191 204,178.5 Q196,166 193,158.5 Q190,151 187,140 Q184,129 184,119 Q184,99 211.5,74 Q239,49 257,49 Q272,49 280,57 Q288,65 287,81 Q286,97 283,112.5 Q280,128 271,151.5 Q262,175 255.5,190 Q249,205 239,227"/> 
            <glyph glyph-name="9" unicode="&#x39;" horiz-adv-x="483" d=" M345,486 Q409,481 483,454 Q479,406 447.5,286 Q416,166 361,43 Q292,-3 235,-111 L203,-99 Q228,-39 259,122.5 Q290,284 289,325 Q235,261 187,225 Q170,215 154.5,216 Q139,217 128,224 Q65,267 42,300 Q16,339 35,399 Q52,452 99.5,519.5 Q147,587 211,646 Q228,661 242,662 Q256,663 267,657 Q286,651 328,625.5 Q370,600 395,580 L390,565 Q361,575 310.5,530.5 Q260,486 216,416 Q172,346 158,288 Q191,304 252.5,372.5 Q314,441 345,486"/> 
            <glyph glyph-name=":" unicode="&#x3A;" horiz-adv-x="220" d=" M43,34 Q77,86 114,131 L134,132 Q162,115 197,110 Q215,107 215.5,93.5 Q216,80 207,62 Q116,1 66,-13 Q51,8 43,34 M48,335 Q82,386 119,431 L139,432 Q168,415 202,411 Q220,408 220,394.5 Q220,381 211,362 Q129,305 71,288 Q55,310 48,335"/> 
            <glyph glyph-name=";" unicode="&#x3B;" horiz-adv-x="220" d=" M48,335 Q82,386 119,431 L139,432 Q168,415 202,411 Q220,408 220,394.5 Q220,381 211,362 Q129,305 71,288 Q55,310 48,335 M61,97 L105,128 Q136,113 171,117 L186,104 L184,88 Q183,87 160.5,46.5 Q138,6 111,-39.5 Q84,-85 60,-119 Q48,-137 40,-126 L23,-106 Q34,-72 46.5,-7.5 Q59,57 61,97"/> 
            <glyph glyph-name="&lt;" unicode="&#x3C;" horiz-adv-x="441" d=" M441,74 L54,251 L54,322 L441,499 L441,422 L136,287 L441,152"/> 
            <glyph glyph-name="=" unicode="&#x3D;" horiz-adv-x="441" d=" M441,341 L54,341 L54,411 L441,411 M441,162 L54,162 L54,232 L441,232"/> 
            <glyph glyph-name="&gt;" unicode="&#x3E;" horiz-adv-x="441" d=" M441,250 L54,74 L54,151 L359,285 L54,421 L54,498 L441,321"/> 
            <glyph glyph-name="?" unicode="&#x3F;" horiz-adv-x="394" d=" M27,594 Q85,633 153,649 Q158,650 171.5,653.5 Q185,657 192,658.5 Q199,660 210.5,662.5 Q222,665 229,665 Q236,665 244,663.5 Q252,662 257,659 Q315,661 353,634 Q391,607 393,556 Q394,514 374,448.5 Q354,383 343,360 Q332,339 320,335 Q317,334 313,333 Q226,177 188,144 L171,158 Q140,225 139,255 Q138,286 173,399.5 Q208,513 202,529 L182,529 L175,519 L158,518 Q138,522 87.5,551.5 Q37,581 27,594 M182,79 L203,110 L253,115 L262,109 Q264,80 255,54 Q182,2 161,-7 Q135,-18 122,-8 Q94,15 93,57 Q92,75 113,75"/> 
            <glyph glyph-name="A" unicode="&#x41;" horiz-adv-x="503" d=" M-18,-82 Q6,36 26,124 Q-12,183 -18,222 Q-21,232 -19.5,236.5 Q-18,241 -8,242 L59,252 Q69,291 100.5,390.5 Q132,490 147,531 Q184,563 246,594 Q244,609 237,638 Q260,649 306.5,656.5 Q353,664 378,662 Q380,659 382,655.5 Q384,652 385,650 Q386,648 388,646 L428,652 L448,625 Q467,505 452,310 L503,314 Q503,240 481,198 Q479,194 466,190 L427,144 L411,49 L329,-2 L322,-38 L276,-61 Q285,-21 287.5,40 Q290,101 284,133 Q205,134 105,121 Q86,74 48,-40 Q21,-52 17,-82 M286,288 Q287,328 279,407 Q271,486 262,511 Q209,425 153,266"/> 
            <glyph glyph-name="B" unicode="&#x42;" horiz-adv-x="584" d=" M65,20 Q51,73 51,155 Q44,157 38,164.5 Q32,172 33,177 L44,233 L55,241 Q102,477 119,523 L91,522 Q72,522 71,543 L65,641 Q386,689 563,463 L549,350 Q508,310 408,255 Q515,242 536,221 Q554,201 575,155 Q584,136 571,120 Q538,73 420.5,35.5 Q303,-2 179,-6 Q161,-7 154.5,-6 Q148,-5 143.5,1.5 Q139,8 150,23 Q165,50 192,73 Q219,96 253,99 L256,80 Q301,82 356.5,101 Q412,120 442,140 Q404,161 285.5,164 Q167,167 130,155 L115,44 M148,302 L390,457 Q368,485 306,504 Q244,523 201,521 Q166,401 148,302"/> 
            <glyph glyph-name="C" unicode="&#x43;" horiz-adv-x="563" d=" M563,258 L555,190 Q513,150 466,133 L468,58 Q387,25 279.5,15 Q172,5 118,13 Q96,16 81,42 Q41,113 27,197 Q13,281 26,320 Q33,342 91.5,394.5 Q150,447 217,476 L130,473 Q122,472 119,475.5 Q116,479 125,486 Q370,632 544,645 L555,572 L522,473 Q448,460 357.5,420.5 Q267,381 197.5,330.5 Q128,280 116,239 Q165,214 264.5,218 Q364,222 447,234.5 Q530,247 563,258"/> 
            <glyph glyph-name="D" unicode="&#x44;" horiz-adv-x="550" d=" M65,82 Q67,166 84,316.5 Q101,467 112,514 Q73,547 31,598 L47,658 Q108,648 149,635 L154,649 Q223,627 273.5,607 Q324,587 382.5,553.5 Q441,520 476,483.5 Q511,447 530.5,394 Q550,341 540,279 Q536,252 488,188 Q440,124 366,70 Q272,4 139,-33 L20,59 M168,151 Q284,224 335.5,283 Q387,342 396,412 Q400,440 387,465 Q342,490 257,512 Q255,453 228.5,342 Q202,231 168,151"/> 
            <glyph glyph-name="E" unicode="&#x45;" horiz-adv-x="495" d=" M74,38 L49,38 Q27,157 53,336.5 Q79,516 124,605 Q279,678 490,652 L495,596 L463,522 Q360,519 274,485 L208,368 Q240,373 294,372.5 Q348,372 388,368 L462,344 L444,275 Q388,267 306,233 Q224,199 159,153 Q171,100 247,103.5 Q323,107 417,166 L427,152 Q389,118 362,51 Q131,-57 88,55"/> 
            <glyph glyph-name="F" unicode="&#x46;" horiz-adv-x="524" d=" M40,-8 Q53,76 63.5,239.5 Q74,403 72,486 L47,518 L51,570 L143,604 L146,613 Q159,629 183,649.5 Q207,670 217,672 L244,669 L249,641 Q276,651 327.5,656.5 Q379,662 432.5,654 Q486,646 503,620 Q524,587 503,519.5 Q482,452 444,396 L432,402 Q438,462 427,500 Q346,502 266,467 Q257,396 227,309 Q242,313 295.5,316.5 Q349,320 408,316.5 Q467,313 476,297 Q486,281 467,225 Q413,220 329.5,194 Q246,168 187,139 L107,-75 L89,-72 L87,9 L69,-10"/> 
            <glyph glyph-name="G" unicode="&#x47;" horiz-adv-x="607" d=" M448,683 L607,517 L599,489 Q558,506 538,511 Q403,474 286.5,376 Q170,278 154,175 Q225,178 311.5,224 Q398,270 465,324 Q541,303 569,286 Q583,277 586,257 Q591,227 580,128 Q569,29 560,-21 L538,-32 Q455,16 430,55 Q405,94 420,167 Q393,145 332,112 Q271,79 233,70 Q198,62 173,72 Q134,87 71,155.5 Q8,224 7,260 Q4,322 61.5,412.5 Q119,503 213,583 Q307,663 398,693 L416,678"/> 
            <glyph glyph-name="H" unicode="&#x48;" horiz-adv-x="590" d=" M116,575 L208,621 L227,603 L197,337 Q282,341 328,342 L461,647 Q519,667 580,678 L590,616 Q572,502 528,298 Q484,94 468,7 L414,-11 L399,-59 L373,-55 Q361,-11 348.5,69.5 Q336,150 337,187 Q246,185 186,217 Q183,182 181,119 Q203,120 223,152 L259,159 Q200,43 183,13 Q144,22 106,40 Q66,153 62,258 L42,267 L13,323 L25,335 L60,337 Q72,481 116,575"/> 
            <glyph glyph-name="I" unicode="&#x49;" horiz-adv-x="285" d=" M40,454 Q74,574 122,676 L184,676 Q259,593 273,569 Q282,553 283.5,545 Q285,537 280,500 Q278,493 227.5,282 Q177,71 166,-2 Q103,9 78.5,47 Q54,85 56,153 Q57,203 85,359"/> 
            <glyph glyph-name="J" unicode="&#x4A;" horiz-adv-x="415" d=" M31,584 L378,682 L407,650 L415,477 L386,468 Q358,304 314.5,164.5 Q271,25 217,-38 Q208,-49 203.5,-49.5 Q199,-50 183,-40 Q115,10 39,85 Q30,149 14,222 L140,137 L192,131 Q200,232 211,477 Q130,528 53,544"/> 
            <glyph glyph-name="K" unicode="&#x4B;" horiz-adv-x="532" d=" M99,-26 Q64,7 37,60 Q53,228 55,249 Q18,281 20,313 Q20,319 21,324.5 Q22,330 23.5,334.5 Q25,339 28,346 Q31,353 33,356.5 Q35,360 40.5,368.5 Q46,377 49,381.5 Q52,386 59.5,397 Q67,408 71,414 Q81,483 97.5,561 Q114,639 124,663 Q108,673 115,682 Q117,685 123,685 L167,681 Q231,626 247,598 Q252,589 253.5,570.5 Q255,552 252.5,528 Q250,504 247,481 Q244,458 238.5,429.5 Q233,401 229.5,383.5 Q226,366 221,345 Q216,324 216,322 L234,305 Q318,402 401,553 Q392,560 379,560 L375,564 Q438,659 471,658 Q492,656 519,633 Q515,588 440,455 Q365,322 299,243 Q320,220 400.5,161.5 Q481,103 532,73 Q500,32 476,11 L451,19 Q428,-5 393,-28 Q261,17 154,115"/> 
            <glyph glyph-name="L" unicode="&#x4C;" horiz-adv-x="457" d=" M62,203 L38,218 Q32,223 35,232 Q102,381 192,626 L236,636 L243,653 Q294,670 355,668 L361,609 L343,600 Q217,286 251,134 Q348,114 457,174 L445,91 Q292,-7 188,-12 Q39,-18 62,203"/> 
            <glyph glyph-name="M" unicode="&#x4D;" horiz-adv-x="664" d=" M102,-9 Q88,-16 47,-32 Q31,81 49.5,319 Q68,557 82,615 L159,650 L168,680 L258,698 Q259,624 267.5,553.5 Q276,483 283.5,449.5 Q291,416 296,401 Q319,338 366,394 Q411,445 493,607 Q500,622 506.5,625.5 Q513,629 530,626 Q582,618 641,602 Q664,597 664,560 Q664,479 648.5,356.5 Q633,234 619,176 Q597,163 577.5,136.5 Q558,110 552,84 Q521,67 477,29.5 Q433,-8 398,-48 L378,-38 Q404,52 432.5,203 Q461,354 464,413 Q383,280 332,222 Q281,164 239,166 Q180,169 132,318 Q111,159 102,-9"/> 
            <glyph glyph-name="N" unicode="&#x4E;" horiz-adv-x="621" d=" M117,-26 Q99,-8 33,56 Q38,196 62.5,365.5 Q87,535 114,632 L161,659 L305,628 Q299,603 294,567 L351,528 Q363,446 388,337.5 Q413,229 435,188 Q473,232 508,381 Q543,530 548,608 L606,682 L621,676 Q587,355 562,231 Q527,56 479,3 Q465,-11 453,-11 Q436,-11 406,3.5 Q376,18 370,25 Q332,68 285,177 Q238,286 229,324 Q193,188 141,-20"/> 
            <glyph glyph-name="O" unicode="&#x4F;" horiz-adv-x="532" d=" M164,657 Q360,655 428,628 Q526,589 529,447 Q532,336 469,206.5 Q406,77 355,33 Q275,-35 173,18 Q156,27 137,39.5 Q118,52 90,76.5 Q62,101 44.5,136 Q27,171 26,210 Q25,303 105,485 L42,490 L90,608 L147,615 M248,461 Q177,248 188,117 Q258,135 340.5,220.5 Q423,306 422,356 Q421,390 363.5,420 Q306,450 248,461"/> 
            <glyph glyph-name="P" unicode="&#x50;" horiz-adv-x="573" d=" M47,279 L111,294 Q124,401 137,438 Q179,479 228,500 Q184,515 88,531 Q55,536 45,568 Q31,611 20,660 Q153,662 270.5,642 Q388,622 440,575 Q488,532 528,456.5 Q568,381 571,339 Q573,308 566,288.5 Q559,269 533,248 Q478,202 389,176 Q300,150 218,141 L200,161 L177,45 L202,22 L195,-9 L109,-48 L95,-40 Q92,154 98,202 L90,206 M215,323 Q360,366 414,403 Q386,429 334.5,455.5 Q283,482 241,495 Q233,425 215,323"/> 
            <glyph glyph-name="Q" unicode="&#x51;" horiz-adv-x="577" d=" M149,659 L212,638 L234,605 Q390,663 465,648 Q558,630 567,510 Q577,348 345,111 Q392,55 457,6.5 Q522,-42 577,-60 L540,-91 Q498,-81 473,-72 L435,-93 Q384,-75 322,-37.5 Q260,0 225,36 Q158,-5 96.5,51 Q35,107 28,211 Q25,248 32,296 Q39,344 47,377.5 Q55,411 78,475.5 Q101,540 110,562.5 Q119,585 149,659 M202,484 L199,290 L257,279 Q274,245 292,184 Q347,260 376.5,317 Q406,374 403,422 Q399,481 355,494 Q330,501 202,484"/> 
            <glyph glyph-name="R" unicode="&#x52;" horiz-adv-x="599" d=" M163,0 Q119,13 81,41 Q65,147 77.5,293 Q90,439 119,535 Q75,547 60,550 L70,615 Q146,620 217,648 Q315,640 409,616.5 Q503,593 557,557 Q570,518 581,468 Q592,418 593,400 Q593,385 592,377.5 Q591,370 583.5,359.5 Q576,349 560,344 Q472,316 241,319 Q311,244 406.5,185.5 Q502,127 599,103 L594,74 Q532,65 475,-1 Q414,10 325.5,54 Q237,98 188,139 Q183,72 163,0 M223,358 Q301,363 380.5,387 Q460,411 486,428 Q457,454 386.5,470.5 Q316,487 251,493 Q233,420 223,358"/> 
            <glyph glyph-name="S" unicode="&#x53;" horiz-adv-x="495" d=" M495,565 L469,397 L447,393 L429,481 Q318,455 243,391 Q220,371 207,351.5 Q194,332 195.5,313 Q197,294 219,284 Q262,264 395,222 Q414,216 427.5,200 Q441,184 445.5,172 Q450,160 456,140 Q466,104 439,80 Q408,53 346,25.5 Q284,-2 223,-16 Q182,-24 157,-15 Q103,2 62,45 L67,59 Q81,54 97,54 Q113,54 128,57 Q143,60 161,67 Q179,74 193,81 Q207,88 224,98 Q241,108 251.5,115.5 Q262,123 276.5,132.5 Q291,142 297,146 Q160,179 104,210 Q69,229 53.5,258.5 Q38,288 37,340 Q35,393 66.5,450 Q98,507 155,556 Q219,611 289,639.5 Q359,668 396,668 Q412,669 416,657 Q416,656 418,648.5 Q420,641 421,638.5 Q422,636 424.5,628 Q427,620 430,615.5 Q433,611 437.5,604 Q442,597 447,592 Q452,587 459,581.5 Q466,576 475,572 Q484,568 495,565"/> 
            <glyph glyph-name="T" unicode="&#x54;" horiz-adv-x="484" d=" M261,35 L214,15 L185,-45 L146,-34 Q148,15 166.5,197.5 Q185,380 194,438 Q193,438 173.5,435 Q154,432 144.5,432.5 Q135,433 117.5,435 Q100,437 86.5,446 Q73,455 62,470 Q35,506 26,639 Q202,691 444,605 L468,521 L484,515 L484,467 L343,464 L370,360 Q348,230 261,35"/> 
            <glyph glyph-name="U" unicode="&#x55;" horiz-adv-x="567" d=" M78,584 L156,607 L166,640 L248,658 L262,534 Q238,461 221,334.5 Q204,208 218,115 Q280,161 349.5,271 Q419,381 482,534 L566,570 Q567,471 518,295 Q469,119 381,-1 Q316,-2 223,1 Q155,31 117,72.5 Q79,114 66,148 Q57,172 54,229.5 Q51,287 56.5,382.5 Q62,478 78,584"/> 
            <glyph glyph-name="V" unicode="&#x56;" horiz-adv-x="532" d=" M73,490 L47,490 L69,598 L128,628 Q161,421 225,257 Q333,450 463,664 L532,586 Q498,465 529,400 Q483,295 388.5,164.5 Q294,34 222,-22 Q172,14 119,76 L146,126 Q77,305 73,490"/> 
            <glyph glyph-name="W" unicode="&#x57;" horiz-adv-x="684" d=" M68,487 L46,499 L54,581 L97,627 L131,609 Q168,398 226,236 Q263,293 297.5,376 Q332,459 334,489 L381,498 Q381,443 420,276 Q527,424 623,670 L684,611 Q643,508 684,405 Q653,324 575.5,183.5 Q498,43 441,-16 L390,2 Q351,91 344,192 Q323,158 310,139 Q297,120 278.5,98 Q260,76 241.5,66.5 Q223,57 204,58 Q151,59 113.5,167 Q76,275 68,487"/> 
            <glyph glyph-name="X" unicode="&#x58;" horiz-adv-x="528" d=" M526,138 L528,96 Q524,91 512.5,78 Q501,65 497,61 Q493,57 483.5,46.5 Q474,36 469,32.5 Q464,29 455.5,22 Q447,15 440.5,12.5 Q434,10 425.5,6 Q417,2 408.5,1 Q400,0 390,0 Q344,0 313,30.5 Q282,61 241,131 Q234,123 228,117 Q222,111 214.5,106 Q207,101 202.5,98 Q198,95 187,90.5 Q176,86 171.5,84 Q167,82 152,77 Q137,72 131,70 Q127,69 112.5,64 Q98,59 94.5,58 Q91,57 79.5,52.5 Q68,48 64.5,45.5 Q61,43 52.5,38 Q44,33 39.5,28.5 Q35,24 29,17 Q23,10 18,2 L4,4 Q-6,61 3,84 Q12,113 64,171.5 Q116,230 161,272 Q117,346 90.5,436.5 Q64,527 57.5,577 Q51,627 50,665 Q79,661 93.5,658 Q108,655 128,644.5 Q148,634 154,618 Q166,587 197.5,488.5 Q229,390 244,352 Q289,397 353.5,493 Q418,589 446,653 L493,627 Q500,550 503,490 Q477,389 459,346 Q437,293 408,257 Q379,221 325,176 Q328,172 340,156.5 Q352,141 357,135.5 Q362,130 372.5,118 Q383,106 390.5,101.5 Q398,97 408,92.5 Q418,88 427,88 Q466,88 526,138"/> 
            <glyph glyph-name="Y" unicode="&#x59;" horiz-adv-x="513" d=" M427,652 L475,608 L475,542 L513,508 Q480,335 430,231 Q409,186 338,85.5 Q267,-15 165,-119 L82,-87 Q181,66 243,211 Q199,170 155,143 Q119,171 69,219 Q54,303 53,443.5 Q52,584 66,664 Q115,619 173,571 Q169,500 181,407 Q193,314 208,283 Q211,276 213.5,274 Q216,272 220,274 Q224,276 231,283 Q268,320 329,433 Q390,546 427,652"/> 
            <glyph glyph-name="Z" unicode="&#x5A;" horiz-adv-x="588" d=" M305,485 L95,500 Q56,547 30,590 Q160,628 342,624 L348,648 Q362,649 368.5,650 Q375,651 383.5,650.5 Q392,650 394.5,650 Q397,650 403.5,647 Q410,644 412.5,642.5 Q415,641 424,634.5 Q433,628 439,624 Q518,618 579,595 Q588,458 512,448 Q447,400 354,316 Q261,232 204,169 Q295,102 364,103 Q420,106 526,147 L578,117 L579,91 Q502,56 409,30.5 Q316,5 251,4 Q200,2 155.5,25 Q111,48 61,113 Q9,178 54,240 Q96,300 169,373.5 Q242,447 305,485"/> 
            <glyph glyph-name="[" unicode="&#x5B;" horiz-adv-x="433" d=" M169,5 Q239,-16 346,8 L356,-6 Q321,-27 298,-77 Q222,-94 79,-71 Q72,144 97,334.5 Q122,525 161,625 Q224,656 302.5,666 Q381,676 428,671 L433,615 L407,582 Q354,563 315,547 Q283,508 241.5,355.5 Q200,203 169,5"/> 
            <glyph glyph-name="\" unicode="&#x5C;" horiz-adv-x="348" d=" M347,-71 Q348,-78 337.5,-83.5 Q327,-89 311.5,-82.5 Q296,-76 285,-53 Q279,-41 244,106.5 Q209,254 165,446 Q121,638 120,644 Q116,658 121,668 Q123,672 133,677.5 Q143,683 158,690 Q173,697 179,700 Q193,707 203,688 Q222,647 280.5,321 Q339,-5 347,-71"/> 
            <glyph glyph-name="]" unicode="&#x5D;" horiz-adv-x="384" d=" M195,552 Q123,602 58,612 L60,651 Q219,672 372,675 L384,609 Q330,497 282.5,310 Q235,123 210,-81 Q53,-95 -41,-75 Q-41,-30 -49,-7 L-38,17 Q23,-5 120,-13 Q158,396 195,552"/> 
            <glyph glyph-name="^" unicode="&#x5E;" horiz-adv-x="446" d=" M446,414 L366,414 L248,641 L129,415 L49,415 L212,712 L283,712"/> 
            <glyph glyph-name="_" unicode="&#x5F;" horiz-adv-x="500" d=" M0,-133 L500,-133 L500,-208 L0,-208"/> 
            <glyph glyph-name="`" unicode="&#x60;" horiz-adv-x="320" d=" M320,718 L317,706 Q265,716 227,710 Q101,766 91,774 Q85,778 73,790 Q64,800 70,812 L85,840 L142,837 Q167,812 222.5,776 Q278,740 320,718"/> 
            <glyph glyph-name="a" unicode="&#x61;" horiz-adv-x="351" d=" M351,29 L343,17 L272,36 Q221,130 208,161 Q194,146 131.5,97.5 Q69,49 45,35 L24,44 Q5,119 24,186 Q49,274 125,383 L122,396 L186,462 L213,441 L244,460 Q292,422 334,367 Q342,356 339,337 Q311,176 351,29 M83,195 L159,271 L144,323 Q98,258 83,195"/> 
            <glyph glyph-name="b" unicode="&#x62;" horiz-adv-x="327" d=" M257,670 L290,666 Q288,650 284.5,631 Q281,612 278,597.5 Q275,583 268,558.5 Q261,534 258,522.5 Q255,511 246,481 Q237,451 234,442.5 Q231,434 220,399 Q209,364 207,358 Q189,303 180.5,271 Q172,239 166,193 Q160,147 164,105 Q182,124 201,161 Q220,198 222,209 L199,229 L205,258 L291,322 L327,303 Q316,246 272.5,139 Q229,32 194,-13 Q179,-32 160,-22 Q100,10 67.5,56 Q35,102 29.5,157.5 Q24,213 33,267.5 Q42,322 66,387 Q111,512 180,639 L251,658"/> 
            <glyph glyph-name="c" unicode="&#x63;" horiz-adv-x="302" d=" M283,238 L248,223 L255,279 Q220,270 174,213 Q128,156 116,115 Q154,113 209.5,129 Q265,145 299,164 L291,112 Q182,11 134,12 Q113,13 71.5,53.5 Q30,94 21,132 Q15,136 17,190 Q19,244 40,286 Q63,335 96,374 Q129,413 151.5,429.5 Q174,446 183,446 Q193,445 220,434 Q247,423 274.5,402 Q302,381 302,362 Q300,297 283,238"/> 
            <glyph glyph-name="d" unicode="&#x64;" horiz-adv-x="442" d=" M353,647 L428,670 Q427,615 409,525.5 Q391,436 375,364.5 Q359,293 360.5,204.5 Q362,116 393,46 L430,73 L442,58 Q421,30 389,0.5 Q357,-29 338,-29 Q329,-29 306,-10.5 Q283,8 253,49 Q223,90 208,138 Q112,42 55,42 Q43,42 35.5,45 Q28,48 20.5,63.5 Q13,79 13,108 Q13,190 55,259 Q81,294 130,340 Q179,386 213,413.5 Q247,441 272,459 Q308,556 353,647 M242,394 Q168,335 107,253 Q84,222 101,182 Q137,204 176.5,267.5 Q216,331 242,394"/> 
            <glyph glyph-name="e" unicode="&#x65;" horiz-adv-x="324" d=" M167,128 L184,76 L321,127 L320,65 Q318,63 308.5,55.5 Q299,48 294,44 Q289,40 279.5,33 Q270,26 263.5,22.5 Q257,19 249,16 Q241,13 234,13 Q186,11 122.5,45.5 Q59,80 17,131 Q16,182 27.5,229.5 Q39,277 55.5,308.5 Q72,340 90.5,365 Q109,390 120.5,401 Q132,412 136,414 Q150,419 209,403.5 Q268,388 301,370 Q308,359 324,325 Q307,299 252.5,230.5 Q198,162 167,128 M167,221 Q224,292 240,329 Q212,328 190.5,298 Q169,268 167,221"/> 
            <glyph glyph-name="f" unicode="&#x66;" horiz-adv-x="276" d=" M189,308 L203,263 L244,271 L241,221 L215,165 Q224,129 235,12 Q246,-105 241,-135 Q236,-161 153,-195 Q92,-123 57,-45 Q22,33 24,134 Q24,224 72,344 Q127,475 236,664 L271,664 L276,557 Q210,362 189,308 M173,133 Q164,97 166,34 Q168,-29 181,-74 Q201,-42 193,151"/> 
            <glyph glyph-name="g" unicode="&#x67;" horiz-adv-x="371" d=" M254,456 L255,440 Q271,423 295.5,384.5 Q320,346 326,326 Q308,295 265,261 L253,297 Q219,277 191,229 Q270,216 318.5,178 Q367,140 369,98 Q371,35 302.5,-53.5 Q234,-142 182,-183 Q167,-195 146,-188 Q125,-182 106.5,-166 Q88,-150 88,-137 Q86,-97 123,-34.5 Q160,28 183,51 Q225,69 255,64 Q231,97 166.5,113.5 Q102,130 44,124 L20,148 Q14,181 18.5,227 Q23,273 38,302 Q59,344 116.5,397.5 Q174,451 216,471 M258,43 Q248,48 226,16.5 Q204,-15 189,-53.5 Q174,-92 182,-105 Q202,-83 227,-32 Q252,19 258,43"/> 
            <glyph glyph-name="h" unicode="&#x68;" horiz-adv-x="405" d=" M374,84 L383,61 L317,4 Q290,90 235,148 Q199,123 159,73 Q119,23 92,-33 L45,-44 Q29,21 23,94 Q17,167 23,203 Q27,234 112.5,396 Q198,558 277,656 Q332,662 374,652 Q368,594 326,499 Q284,404 236,349 Q205,266 148,136 L154,133 Q167,158 180.5,180 Q194,202 210,226 Q226,250 236,264 Q246,278 266,306 Q286,334 294,346 L318,344 L327,360 L375,358 Q386,297 395.5,213.5 Q405,130 401,120 Q396,108 374,84"/> 
            <glyph glyph-name="i" unicode="&#x69;" horiz-adv-x="270" d=" M243,341 Q199,117 193,40 L165,21 Q100,48 93,56 Q83,66 72,97.5 Q61,129 57,150 L13,151 L15,219 Q63,293 108,326 Q153,359 218,377 M144,418 L73,466 Q145,540 161,551 Q174,559 244,576 L270,518"/> 
            <glyph glyph-name="j" unicode="&#x6A;" horiz-adv-x="266" d=" M64,47 Q83,222 86,260 L44,259 Q51,286 68,353.5 Q85,421 94,458 L174,487 L178,505 L251,529 Q256,451 241.5,334.5 Q227,218 207,148 L223,130 L236,141 L266,106 L165,17 Q155,-15 118.5,-93 Q82,-171 65,-197 L13,-202 L14,-51 Q14,-12 64,47"/> 
            <glyph glyph-name="k" unicode="&#x6B;" horiz-adv-x="424" d=" M185,630 L234,636 L250,672 L319,673 Q263,486 192,318 L210,294 Q244,345 312.5,425.5 Q381,506 419,546 L424,495 L390,445 L396,427 Q290,282 254,238 Q341,131 402,85 Q374,55 358,41 L347,47 L325,25 L303,26 Q292,15 288,15 Q264,19 210,54 Q156,89 128,113 L94,15 L45,0 Q33,-3 30,4 Q27,11 27,31 Q26,75 48,160 L36,168 L42,283 L81,308 Q82,312 91,345.5 Q100,379 101.5,384.5 Q103,390 110.5,418.5 Q118,447 121,456 Q124,465 131,489 Q138,513 143,525.5 Q148,538 155,558 Q162,578 169.5,595 Q177,612 185,630"/> 
            <glyph glyph-name="l" unicode="&#x6C;" horiz-adv-x="304" d=" M173,673 L214,658 L225,668 L291,631 L292,518 Q230,366 201.5,279.5 Q173,193 174,132 Q176,78 199,35 Q253,21 296,51 L304,37 Q281,16 279,-16 L222,-32 Q136,5 94,54 Q49,106 47,212 Q44,369 173,673"/> 
            <glyph glyph-name="m" unicode="&#x6D;" horiz-adv-x="575" d=" M66,366 Q105,384 166,422 L208,411 Q189,339 184,283 Q224,326 263,361 Q318,357 394,327 Q426,352 464,364 Q495,358 526.5,348 Q558,338 561,333 Q575,295 566,226.5 Q557,158 538,107 L483,88 Q479,73 471,57 L417,39 Q411,37 407,41 Q403,45 404,54 Q415,150 402,198 Q307,82 251,76 Q209,71 211,141 Q212,162 217,191 Q146,124 90,-1 L31,-10 Q21,83 33.5,200.5 Q46,318 66,366"/> 
            <glyph glyph-name="n" unicode="&#x6E;" horiz-adv-x="409" d=" M224,196 Q163,121 114,66 L26,67 L60,334 L43,348 L64,411 Q131,432 159,419 Q179,410 184.5,381.5 Q190,353 187,296 Q268,328 335,325 Q363,324 376.5,316 Q390,308 393.5,298 Q397,288 399,266 Q401,226 401,202.5 Q401,179 398.5,129 Q396,79 396,58 L409,56 L408,37 Q330,0 301,1 Q287,2 276,12 Q265,22 257,47 Q249,72 245,88 Q241,104 234,143.5 Q227,183 224,196"/> 
            <glyph glyph-name="o" unicode="&#x6F;" horiz-adv-x="314" d=" M45,305 L20,321 Q98,429 148,431 Q191,432 251,395 Q311,358 313,329 Q314,284 277.5,209.5 Q241,135 195,75 Q153,19 87,17 Q58,15 43.5,35 Q29,55 27,112 Q23,206 45,305 M103,283 Q81,172 120,174 Q138,175 161,191.5 Q184,208 196,224 Q161,259 103,283"/> 
            <glyph glyph-name="p" unicode="&#x70;" horiz-adv-x="367" d=" M49,377 L88,386 Q96,422 100,426 Q105,432 134.5,452.5 Q164,473 172,478 L175,487 L226,508 L219,407 Q249,407 282,407.5 Q315,408 341,391.5 Q367,375 365,342 Q363,307 351,255.5 Q339,204 327,186 Q313,167 141,25 L109,-128 L49,-191 L30,-190 Q67,154 65,224 L22,222 L20,246 M152,77 Q253,186 254,218 Q254,230 229,234 Q204,238 184,234"/> 
            <glyph glyph-name="q" unicode="&#x71;" horiz-adv-x="430" d=" M321,445 L370,515 L426,467 Q425,421 399,345.5 Q373,270 337.5,163.5 Q302,57 284,-42 Q312,-12 358.5,65 Q405,142 421,175 L430,173 L430,106 Q428,102 417,75.5 Q406,49 403.5,43 Q401,37 390.5,13 Q380,-11 375,-20.5 Q370,-30 359.5,-51 Q349,-72 341.5,-85 Q334,-98 323,-117 Q312,-136 300.5,-152 Q289,-168 277,-185 L236,-201 L191,-189 Q162,-67 168,111 Q83,44 60,45 Q42,45 31,77 Q20,109 20,164 Q20,229 34,259 L57,263 Q107,331 160,377 Q223,433 321,445 M106,269 L148,273 Q164,273 160,255 Q160,254 155.5,241 Q151,228 149.5,222 Q148,216 146,204 Q144,192 145,181 Q174,201 216,253.5 Q258,306 271,339 Q248,335 199,315 Q150,295 106,269"/> 
            <glyph glyph-name="r" unicode="&#x72;" horiz-adv-x="283" d=" M274,171 Q206,116 161,91 Q182,79 215,52 Q189,31 161.5,18 Q134,5 111.5,2 Q89,-1 71,2 Q53,5 43,14 Q33,23 33,36 Q31,92 148,232 Q128,248 92.5,262.5 Q57,277 39,293.5 Q21,310 20,344 Q19,366 24,396 Q29,426 34,431 Q40,435 108.5,415.5 Q177,396 215,378 Q251,361 263,347 Q275,333 278,304 Q283,260 274,171"/> 
            <glyph glyph-name="s" unicode="&#x73;" horiz-adv-x="322" d=" M33,297 Q74,343 147.5,385 Q221,427 263,439 Q297,416 322,387 Q287,370 246.5,339.5 Q206,309 186,274 Q227,258 267.5,228.5 Q308,199 308,176 Q308,130 250,68 Q192,6 97,-39 L96,18 Q150,58 161,100 Q90,119 82,122 Q61,130 52,162 Q33,225 33,297"/> 
            <glyph glyph-name="t" unicode="&#x74;" horiz-adv-x="342" d=" M23,438 L140,460 Q157,493 202,566 Q250,584 285,613 L328,617 Q324,582 290,470 L322,472 L327,456 L341,446 L342,347 Q318,335 310,305 L247,288 Q190,126 198,60 Q256,90 297,145 L308,136 Q281,98 294,37 Q282,20 262,2.5 Q242,-15 231,-14 Q212,-13 160.5,27 Q109,67 95,84 Q82,102 77,184.5 Q72,267 79,321 L47,298 L24,309"/> 
            <glyph glyph-name="u" unicode="&#x75;" horiz-adv-x="396" d=" M176,403 L181,415 L227,417 Q160,199 152,139 Q232,216 283,291 Q285,294 288.5,299 Q292,304 294,307.5 Q296,311 297,311 Q337,329 396,336 Q386,262 383.5,166 Q381,70 395,-24 L352,-33 Q339,-22 319,7 L286,0 Q256,37 227,104 Q213,90 182.5,70.5 Q152,51 124,42 Q77,43 36,52 Q21,132 31,218 Q41,304 68,379 Q110,393 176,403"/> 
            <glyph glyph-name="v" unicode="&#x76;" horiz-adv-x="374" d=" M108,-27 L76,-13 L118,56 Q96,59 71,49 Q55,91 43.5,140.5 Q32,190 27,261.5 Q22,333 38,395 Q109,390 178,357 Q170,223 177,175 Q204,219 264.5,328.5 Q325,438 342,474 Q374,378 374,354 Q374,315 268,94 Q193,26 108,-27"/> 
            <glyph glyph-name="w" unicode="&#x77;" horiz-adv-x="486" d=" M239,329 L258,324 L263,344 L293,334 Q283,283 281,241 Q279,199 283,178 Q287,157 296,156 Q331,153 455,428 Q486,319 483,291 Q480,259 445.5,182 Q411,105 367,39 Q318,-37 250,-30 Q235,-29 224.5,-18.5 Q214,-8 209,11 Q204,30 201.5,45 Q199,60 197.5,83.5 Q196,107 195,113 Q180,79 156,47 Q118,42 56,54 Q11,171 33,363 Q61,378 108,390 Q155,402 181,402 Q182,388 173,299 Q164,210 170,180 Q208,229 239,329"/> 
            <glyph glyph-name="x" unicode="&#x78;" horiz-adv-x="385" d=" M124,112 Q71,61 21,19 L20,97 L83,178 Q64,207 48.5,247 Q33,287 30,306 Q46,332 73,362.5 Q100,393 113,403 Q127,413 131.5,413.5 Q136,414 145,401 L204,294 Q275,368 335,448 L360,441 Q364,424 361.5,387.5 Q359,351 350,335 Q331,301 246,223 Q247,221 258,201.5 Q269,182 272.5,175.5 Q276,169 287,150.5 Q298,132 304,123 Q310,114 321,97.5 Q332,81 341,70.5 Q350,60 360.5,47.5 Q371,35 382,25 L366,1 L347,11 L344,3 Q359,-14 385,-28 L384,-53 Q308,-56 231,0.5 Q154,57 124,112"/> 
            <glyph glyph-name="y" unicode="&#x79;" horiz-adv-x="371" d=" M118,46 L87,61 L88,79 Q50,110 38,123 Q20,249 45,346 Q76,361 110,368 L113,381 Q159,388 191,387 Q186,356 179,274 Q172,192 177,145 Q192,176 234,258.5 Q276,341 300,389 Q324,437 330,454 L360,449 Q371,378 365,316 Q361,270 313.5,141 Q266,12 246,-17 Q226,-47 165.5,-105.5 Q105,-164 55,-197 L10,-194 Q25,-149 61,-70 Q97,9 118,46"/> 
            <glyph glyph-name="z" unicode="&#x7A;" horiz-adv-x="377" d=" M213,320 Q126,332 20,304 Q42,355 68,395 Q218,412 290,400 Q328,336 352,279 Q364,259 363.5,243.5 Q363,228 340,208 Q310,181 257.5,150 Q205,119 175,107 Q218,67 274,42.5 Q330,18 377,22 L369,-3 L335,-5 L319,-22 Q265,-20 199,2.5 Q133,25 80.5,66 Q28,107 26,151 Q26,179 68,213 Q130,264 213,320"/> 
            <glyph glyph-name="|" unicode="&#x7C;" horiz-adv-x="246" d=" M246,-235 L175,-235 L175,765 L246,765"/> 
            <glyph glyph-name="~" unicode="&#x7E;" horiz-adv-x="453" d=" M453,350 Q442,288 412.5,249 Q383,210 336,210 Q291,210 229,247 Q183,275 158,275 Q131,275 115,258.5 Q99,242 87,200 L41,218 Q69,357 161,357 Q203,357 258,323 Q309,292 340,292 Q365,292 380,309.5 Q395,327 407,366"/> 
            <glyph glyph-name="¡" unicode="&#xA1;" horiz-adv-x="283" d=" M170,435 L179,471 L234,488 Q229,450 224,311 Q219,172 192,71 L203,22 Q168,1 132,-12 Q113,-6 88,13.5 Q63,33 49,50 Q40,60 40,65 Q40,70 47,90 Q103,265 115,377 Q117,399 127,409.5 Q137,420 170,435 M175,634 L217,633 L259,668 Q260,667 265,662.5 Q270,658 272,655.5 Q274,653 277,648.5 Q280,644 281.5,638 Q283,632 283,624 Q283,613 254,552 Q249,540 236,530 Q223,522 198,513 Q173,504 163,503 Q146,502 144,517 Q144,533 152,572.5 Q160,612 175,634"/> 
            <glyph glyph-name="¢" unicode="&#xA2;" horiz-adv-x="313" d=" M210,159 L205,79 Q205,60 186,60 Q174,61 168.5,58 Q163,55 156,55 Q153,55 151,55.5 Q149,56 146,60.5 Q143,65 143,74 L148,132 Q124,130 83,167.5 Q42,205 31,252 Q25,256 27,310 Q29,364 50,406 Q80,470 121.5,513 Q163,556 187,565 L192,599 Q198,626 236,609 L233,552 Q265,538 289,519.5 Q313,501 312,482 Q310,417 293,358 L258,343 L265,399 Q247,394 222,373 L215,248 Q270,263 309,284 L301,232 Q248,184 210,159 M166,313 Q136,272 125,235 Q146,235 159,237"/> 
            <glyph glyph-name="£" unicode="&#xA3;" horiz-adv-x="542" d=" M196,310 L54,322 L68,368 L181,367 Q163,448 167,522 Q171,596 195,632 Q223,673 294,667 Q353,662 420,621.5 Q487,581 530,522 Q502,503 452.5,496.5 Q403,490 379,497 L364,505 Q362,507 360.5,510 Q359,513 357,515 Q355,517 351,517 Q342,518 335.5,492.5 Q329,467 326.5,431 Q324,395 326,362 Q442,356 501,350 Q489,315 472,291 L320,300 Q309,248 281,218 Q253,188 201,162 Q240,139 258.5,129 Q277,119 304,109 Q331,99 354,98 Q390,95 417.5,104 Q445,113 447,128 Q450,158 450,182 L465,188 Q494,151 518,103.5 Q542,56 540,38 Q538,18 486.5,-8.5 Q435,-35 383,-30 Q364,-28 342,-21.5 Q320,-15 301.5,-7.5 Q283,0 261.5,12 Q240,24 227.5,31.5 Q215,39 199,49 Q183,59 180,61 L176,36 L152,13 L27,101 Q48,161 91,216 L172,176 Q226,225 196,310"/> 
            <glyph glyph-name="¥" unicode="&#xA5;" horiz-adv-x="520" d=" M471,204 Q335,213 334,212 Q309,133 263,29 L215,11 L192,-35 L153,-25 Q155,33 177,225 L52,235 L67,282 L178,284 Q138,356 110,445 Q82,534 73.5,591 Q65,648 69,663 Q165,648 178,614 Q190,583 218,496.5 Q246,410 261,372 Q305,414 366,505 Q427,596 457,656 L508,625 Q512,613 514,599.5 Q516,586 517,577.5 Q518,569 518.5,546 Q519,523 520,510 Q480,400 382,272 Q388,272 500,263 Q488,228 471,204"/> 
            <glyph glyph-name="¦" unicode="&#xA6;" horiz-adv-x="246" d=" M246,343 L175,343 L175,765 L246,765 M246,-235 L175,-235 L175,189 L246,189"/> 
            <glyph glyph-name="¨" unicode="&#xA8;" horiz-adv-x="328" d=" M67,750 L68,807 Q79,819 96,830 Q98,837 107,840 Q119,842 139,842 Q151,842 163,826 L161,805 L128,764 L124,742 Q122,738 112.5,733 Q103,728 98,728 Q92,728 81.5,736 Q71,744 67,750 M310,770 L308,756 L315,741 Q319,734 309,716 Q304,708 288.5,700.5 Q273,693 265,693 Q257,693 222,725 Q215,768 219,786 Q220,791 234.5,808.5 Q249,826 254,828 Q265,833 304,844 Q311,844 315,840 Q319,836 322.5,827 Q326,818 328,814 L323,781"/> 
            <glyph glyph-name="«" unicode="&#xAB;" horiz-adv-x="437" d=" M230,392 L198,337 L162,322 Q152,305 135.5,260.5 Q119,216 118,192 Q118,154 138,132 Q158,110 201,99 Q191,80 175,80 Q162,80 145.5,83.5 Q129,87 107,97.5 Q85,108 68,125 Q51,142 39,172 Q27,202 27,240 Q27,288 69,364.5 Q111,441 133,455 Q170,458 221,451 L228,443 L222,423 M437,105 L435,84 L291,102 Q287,119 253,183 Q219,247 219,278 Q219,297 255,358 Q291,419 318,445 Q327,454 334.5,454.5 Q342,455 354,448 L429,409 L430,390 Q401,364 361.5,312.5 Q322,261 321,237 Q321,228 328,216.5 Q335,205 349,190 Q363,175 375,163 Q387,151 407.5,132.5 Q428,114 437,105"/> 
            <glyph glyph-name="¬" unicode="&#xAC;" horiz-adv-x="443" d=" M443,162 L373,162 L373,342 L51,342 L51,412 L443,412"/> 
            <glyph glyph-name="­" unicode="&#xAD;" horiz-adv-x="337" d=" M322,271 Q321,241 323,220.5 Q325,200 327.5,192.5 Q330,185 333,178 Q336,171 337,166 Q337,160 331.5,156 Q326,152 312,156 Q279,165 261,162.5 Q243,160 209.5,152.5 Q176,145 155,145 Q109,145 85,176 Q50,222 50,237 Q50,245 58.5,255.5 Q67,266 75,265 Q96,262 173.5,269 Q251,276 322,271"/> 
            <glyph glyph-name="±" unicode="&#xB1;" horiz-adv-x="441" d=" M441,285 L282,285 L282,117 L212,117 L212,285 L54,285 L54,355 L212,355 L212,524 L282,524 L282,355 L441,355 M441,0 L54,0 L54,70 L441,70"/> 
            <glyph glyph-name="´" unicode="&#xB4;" horiz-adv-x="328" d=" M323,838 Q328,818 328,803 Q319,796 306,788 Q304,774 298,759 Q189,719 133,712 Q114,709 103,714 L90,712 Q84,711 71,721 Q65,730 71,731 Q104,738 113,750 Q114,751 116,754.5 Q118,758 120.5,761 Q123,764 127,765 Q155,773 215,796 Q275,819 296,831 Q309,827 323,838"/> 
            <glyph glyph-name="·" unicode="&#xB7;" horiz-adv-x="251" d=" M78,335 Q115,392 148,431 L168,432 Q197,415 231,411 Q244,409 247.5,401.5 Q251,394 249,386 Q247,378 241,362 Q153,303 100,288 Q82,314 78,335"/> 
            <glyph glyph-name="»" unicode="&#xBB;" horiz-adv-x="431" d=" M40,386 L92,412 L92,431 L140,482 Q182,416 213,345.5 Q244,275 244,229 Q243,152 191,114 Q165,94 125,85.5 Q85,77 31,88 L23,114 Q51,129 66.5,138.5 Q82,148 102.5,163 Q123,178 132.5,193.5 Q142,209 142,226 Q142,253 92,314 L56,346 M258,387 L298,417 L298,437 L330,466 Q431,224 431,198 Q431,157 384,127 Q333,95 248,61 L235,78 Q267,118 293,163 Q319,208 319,233 Q319,262 258,387"/> 
            <glyph glyph-name="¿" unicode="&#xBF;" horiz-adv-x="409" d=" M409,63 Q355,25 283,8 Q278,7 264.5,3.5 Q251,0 244,-1.5 Q237,-3 225.5,-5.5 Q214,-8 207,-8 Q200,-8 192,-6.5 Q184,-5 179,-2 Q122,-4 83.5,22.5 Q45,49 43,101 Q42,143 61.5,206.5 Q81,270 93,297 Q94,299 97,303.5 Q100,308 101.5,310.5 Q103,313 106,316 Q109,319 113.5,320.5 Q118,322 123,323 Q211,481 248,513 L265,499 Q296,432 297,402 Q298,370 263,256.5 Q228,143 234,128 Q235,125 255,128 L261,137 L278,138 Q297,134 348,105 Q399,76 409,63 M254,577 L233,547 L183,542 L174,548 Q172,577 181,603 Q254,655 275,664 Q301,675 314,665 Q342,642 343,600 Q344,582 323,582"/> 
            <glyph glyph-name="À" unicode="&#xC0;" horiz-adv-x="503" d=" M-18,-82 Q6,36 26,124 Q-12,183 -18,222 Q-21,232 -19.5,236.5 Q-18,241 -8,242 L59,252 Q69,291 100.5,390.5 Q132,490 147,531 Q184,563 246,594 Q244,609 237,638 Q260,649 306.5,656.5 Q353,664 378,662 Q380,659 382,655.5 Q384,652 385,650 Q386,648 388,646 L428,652 L448,625 Q467,505 452,310 L503,314 Q503,240 481,198 Q479,194 466,190 L427,144 L411,49 L329,-2 L322,-38 L276,-61 Q285,-21 287.5,40 Q290,101 284,133 Q205,134 105,121 Q86,74 48,-40 Q21,-52 17,-82 M286,288 Q287,328 279,407 Q271,486 262,511 Q209,425 153,266 M420,718 L417,706 Q365,716 327,710 Q201,766 191,774 Q185,778 173,790 Q164,800 170,812 L185,840 L242,837 Q267,812 322.5,776 Q378,740 420,718"/> 
            <glyph glyph-name="Á" unicode="&#xC1;" horiz-adv-x="503" d=" M-18,-82 Q6,36 26,124 Q-12,183 -18,222 Q-21,232 -19.5,236.5 Q-18,241 -8,242 L59,252 Q69,291 100.5,390.5 Q132,490 147,531 Q184,563 246,594 Q244,609 237,638 Q260,649 306.5,656.5 Q353,664 378,662 Q380,659 382,655.5 Q384,652 385,650 Q386,648 388,646 L428,652 L448,625 Q467,505 452,310 L503,314 Q503,240 481,198 Q479,194 466,190 L427,144 L411,49 L329,-2 L322,-38 L276,-61 Q285,-21 287.5,40 Q290,101 284,133 Q205,134 105,121 Q86,74 48,-40 Q21,-52 17,-82 M286,288 Q287,328 279,407 Q271,486 262,511 Q209,425 153,266 M454,838 Q459,818 459,803 Q450,796 437,788 Q435,774 429,759 Q320,719 264,712 Q245,709 234,714 L221,712 Q215,711 202,721 Q196,730 202,731 Q235,738 244,750 Q245,751 247,754.5 Q249,758 251.5,761 Q254,764 258,765 Q286,773 346,796 Q406,819 427,831 Q440,827 454,838"/> 
            <glyph glyph-name="Â" unicode="&#xC2;" horiz-adv-x="503" d=" M-18,-82 Q6,36 26,124 Q-12,183 -18,222 Q-21,232 -19.5,236.5 Q-18,241 -8,242 L59,252 Q69,291 100.5,390.5 Q132,490 147,531 Q184,563 246,594 Q244,609 237,638 Q260,649 306.5,656.5 Q353,664 378,662 Q380,659 382,655.5 Q384,652 385,650 Q386,648 388,646 L428,652 L448,625 Q467,505 452,310 L503,314 Q503,240 481,198 Q479,194 466,190 L427,144 L411,49 L329,-2 L322,-38 L276,-61 Q285,-21 287.5,40 Q290,101 284,133 Q205,134 105,121 Q86,74 48,-40 Q21,-52 17,-82 M286,288 Q287,328 279,407 Q271,486 262,511 Q209,425 153,266 M194,689 L191,700 L202,713 L209,742 Q305,815 361,848 Q389,852 414,850 Q426,833 442.5,802 Q459,771 458,763 Q444,712 442,708 Q437,698 430,708 Q417,727 398,749.5 Q379,772 371,773 Q355,774 293.5,742.5 Q232,711 194,689"/> 
            <glyph glyph-name="Ã" unicode="&#xC3;" horiz-adv-x="503" d=" M-18,-82 Q6,36 26,124 Q-12,183 -18,222 Q-21,232 -19.5,236.5 Q-18,241 -8,242 L59,252 Q69,291 100.5,390.5 Q132,490 147,531 Q184,563 246,594 Q244,609 237,638 Q260,649 306.5,656.5 Q353,664 378,662 Q380,659 382,655.5 Q384,652 385,650 Q386,648 388,646 L428,652 L448,625 Q467,505 452,310 L503,314 Q503,240 481,198 Q479,194 466,190 L427,144 L411,49 L329,-2 L322,-38 L276,-61 Q285,-21 287.5,40 Q290,101 284,133 Q205,134 105,121 Q86,74 48,-40 Q21,-52 17,-82 M286,288 Q287,328 279,407 Q271,486 262,511 Q209,425 153,266 M210,761 L210,785 Q270,830 306,832 Q325,832 356,815 Q387,798 407,799 Q427,799 469,834 Q480,812 466,798 Q416,739 364,737 Q350,737 318,754 Q286,771 270,770 Q248,770 195,727 Q179,736 208,759 Q209,760 210,761"/> 
            <glyph glyph-name="Ä" unicode="&#xC4;" horiz-adv-x="503" d=" M-18,-82 Q6,36 26,124 Q-12,183 -18,222 Q-21,232 -19.5,236.5 Q-18,241 -8,242 L59,252 Q69,291 100.5,390.5 Q132,490 147,531 Q184,563 246,594 Q244,609 237,638 Q260,649 306.5,656.5 Q353,664 378,662 Q380,659 382,655.5 Q384,652 385,650 Q386,648 388,646 L428,652 L448,625 Q467,505 452,310 L503,314 Q503,240 481,198 Q479,194 466,190 L427,144 L411,49 L329,-2 L322,-38 L276,-61 Q285,-21 287.5,40 Q290,101 284,133 Q205,134 105,121 Q86,74 48,-40 Q21,-52 17,-82 M286,288 Q287,328 279,407 Q271,486 262,511 Q209,425 153,266 M219,750 L220,807 Q231,819 248,830 Q250,837 259,840 Q271,842 291,842 Q303,842 315,826 L313,805 L280,764 L276,742 Q274,738 264.5,733 Q255,728 250,728 Q244,728 233.5,736 Q223,744 219,750 M462,770 L460,756 L467,741 Q471,734 461,716 Q456,708 440.5,700.5 Q425,693 417,693 Q409,693 374,725 Q367,768 371,786 Q372,791 386.5,808.5 Q401,826 406,828 Q417,833 456,844 Q463,844 467,840 Q471,836 474.5,827 Q478,818 480,814 L475,781"/> 
            <glyph glyph-name="Å" unicode="&#xC5;" horiz-adv-x="503" d=" M-18,-82 Q6,36 26,124 Q-12,183 -18,222 Q-21,232 -19.5,236.5 Q-18,241 -8,242 L59,252 Q69,291 100.5,390.5 Q132,490 147,531 Q184,563 246,594 Q244,609 237,638 Q260,649 306.5,656.5 Q353,664 378,662 Q380,659 382,655.5 Q384,652 385,650 Q386,648 388,646 L428,652 L448,625 Q467,505 452,310 L503,314 Q503,240 481,198 Q479,194 466,190 L427,144 L411,49 L329,-2 L322,-38 L276,-61 Q285,-21 287.5,40 Q290,101 284,133 Q205,134 105,121 Q86,74 48,-40 Q21,-52 17,-82 M286,288 Q287,328 279,407 Q271,486 262,511 Q209,425 153,266 M414,748 Q387,709 345,706 Q308,705 284,724.5 Q260,744 259,770 Q257,800 284,824 Q311,848 350,850 Q386,852 421,832 Q456,812 469,797 Q476,790 472,782 Q446,747 442,747 M391,768 Q390,778 377.5,787 Q365,796 346,795 Q322,794 312.5,783 Q303,772 304,763 Q304,755 316.5,745.5 Q329,736 348,737 Q368,738 380,748.5 Q392,759 391,768"/> 
            <glyph glyph-name="Æ" unicode="&#xC6;" horiz-adv-x="772" d=" M309,125 Q227,125 127,120 Q100,43 74,-47 Q47,-57 31,-83 L4,-82 Q24,19 45,105 Q30,118 11.5,175 Q-7,232 3,236 Q14,240 79,259 Q93,319 125,416 Q157,513 180,553 Q230,580 324,602 L328,652 L397,665 L409,660 L416,650 Q441,652 463,649 L477,640 Q593,667 763,644 L772,586 L734,509 Q613,497 506,466 Q495,393 489,366 Q589,378 674,370 L726,335 L711,273 Q623,256 520,210 L482,150 L459,140 L450,101 Q488,96 555.5,110 Q623,124 676,146 L683,137 L684,132 Q671,124 657,100.5 Q643,77 635,47 Q494,-25 373,-17 Q329,-45 325,-45 Q316,-45 304,-12 Q310,47 309,125 M312,305 Q317,381 319,469 L276,468 Q250,434 221.5,379.5 Q193,325 180,283 Q247,297 312,305"/> 
            <glyph glyph-name="Ç" unicode="&#xC7;" horiz-adv-x="563" d=" M206,10 Q158,9 118,13 Q96,16 81,42 Q41,114 27,197.5 Q13,281 26,320 Q33,342 91.5,394.5 Q150,447 217,476 L130,473 Q121,472 118.5,475.5 Q116,479 125,486 Q370,632 544,645 L555,572 L522,473 Q406,453 270,377 Q134,301 116,240 Q165,214 264.5,218 Q364,222 447,234.5 Q530,247 563,258 L555,190 Q513,150 466,133 L467,58 Q393,28 278,15 Q261,1 250,-38 Q296,-48 313,-54 Q328,-61 335,-84 Q346,-122 346,-171 Q316,-204 262.5,-234.5 Q209,-265 181,-273 Q156,-256 138,-236 Q210,-198 235,-154 Q206,-144 177,-122.5 Q148,-101 148,-84 Q148,-57 167.5,-31 Q187,-5 206,10"/> 
            <glyph glyph-name="È" unicode="&#xC8;" horiz-adv-x="495" d=" M74,38 L49,38 Q27,157 53,336.5 Q79,516 124,605 Q279,678 490,652 L495,596 L463,522 Q360,519 274,485 L208,368 Q240,373 294,372.5 Q348,372 388,368 L462,344 L444,275 Q388,267 306,233 Q224,199 159,153 Q171,100 247,103.5 Q323,107 417,166 L427,152 Q389,118 362,51 Q131,-57 88,55 M441,718 L438,706 Q386,716 348,710 Q222,766 212,774 Q206,778 194,790 Q185,800 191,812 L206,840 L263,837 Q288,812 343.5,776 Q399,740 441,718"/> 
            <glyph glyph-name="É" unicode="&#xC9;" horiz-adv-x="502" d=" M74,38 L49,38 Q27,157 53,336.5 Q79,516 124,605 Q279,678 490,652 L495,596 L463,522 Q360,519 274,485 L208,368 Q240,373 294,372.5 Q348,372 388,368 L462,344 L444,275 Q388,267 306,233 Q224,199 159,153 Q171,100 247,103.5 Q323,107 417,166 L427,152 Q389,118 362,51 Q131,-57 88,55 M497,838 Q502,818 502,803 Q494,796 480,788 Q478,774 472,759 Q363,719 307,712 Q288,709 277,714 L264,712 Q258,711 245,721 Q239,730 245,731 Q278,738 287,750 Q288,751 290,754.5 Q292,758 294.5,761 Q297,764 301,765 Q329,773 389,796 Q449,819 470,831 Q483,827 497,838"/> 
            <glyph glyph-name="Ê" unicode="&#xCA;" horiz-adv-x="495" d=" M74,38 L49,38 Q27,157 53,336.5 Q79,516 124,605 Q279,678 490,652 L495,596 L463,522 Q360,519 274,485 L208,368 Q240,373 294,372.5 Q348,372 388,368 L462,344 L444,275 Q388,267 306,233 Q224,199 159,153 Q171,100 247,103.5 Q323,107 417,166 L427,152 Q389,118 362,51 Q131,-57 88,55 M195,689 L192,700 L203,713 L210,742 Q306,815 362,848 Q390,852 415,850 Q427,833 443.5,802 Q460,771 459,763 Q445,712 443,708 Q438,698 431,708 Q418,727 399,749.5 Q380,772 372,773 Q356,774 294.5,742.5 Q233,711 195,689"/> 
            <glyph glyph-name="Ë" unicode="&#xCB;" horiz-adv-x="495" d=" M74,38 L49,38 Q27,157 53,336.5 Q79,516 124,605 Q279,678 490,652 L495,596 L463,522 Q360,519 274,485 L208,368 Q240,373 294,372.5 Q348,372 388,368 L462,344 L444,275 Q388,267 306,233 Q224,199 159,153 Q171,100 247,103.5 Q323,107 417,166 L427,152 Q389,118 362,51 Q131,-57 88,55 M205,750 L206,807 Q217,819 234,830 Q236,837 245,840 Q257,842 277,842 Q289,842 301,826 L299,805 L266,764 L262,742 Q260,738 250.5,733 Q241,728 236,728 Q230,728 219.5,736 Q209,744 205,750 M448,770 L446,756 L453,741 Q457,734 447,716 Q442,708 426.5,700.5 Q411,693 403,693 Q395,693 360,725 Q353,768 357,786 Q358,791 372.5,808.5 Q387,826 392,828 Q403,833 442,844 Q449,844 453,840 Q457,836 460.5,827 Q464,818 466,814 L461,781"/> 
            <glyph glyph-name="Ì" unicode="&#xCC;" horiz-adv-x="309" d=" M40,454 Q74,574 122,676 L184,676 Q259,593 273,569 Q282,553 283.5,545 Q285,537 280,500 Q278,493 227.5,282 Q177,71 166,-2 Q103,9 78.5,47 Q54,85 56,153 Q57,203 85,359 M309,718 L306,706 Q254,716 216,710 Q90,766 80,774 Q74,778 62,790 Q53,800 59,812 L74,840 L131,837 Q156,812 211.5,776 Q267,740 309,718"/> 
            <glyph glyph-name="Í" unicode="&#xCD;" horiz-adv-x="348" d=" M40,454 Q74,574 122,676 L184,676 Q259,593 273,569 Q282,553 283.5,545 Q285,537 280,500 Q278,493 227.5,282 Q177,71 166,-2 Q103,9 78.5,47 Q54,85 56,153 Q57,203 85,359 M343,838 Q348,818 348,803 Q340,796 326,788 Q324,774 318,759 Q209,719 153,712 Q134,709 123,714 L110,712 Q104,711 91,721 Q85,730 91,731 Q124,738 133,750 Q134,751 136,754.5 Q138,758 140.5,761 Q143,764 147,765 Q175,773 235,796 Q295,819 316,831 Q329,827 343,838"/> 
            <glyph glyph-name="Î" unicode="&#xCE;" horiz-adv-x="325" d=" M40,454 Q74,574 122,676 L184,676 Q259,593 273,569 Q282,553 283.5,545 Q285,537 280,500 Q278,493 227.5,282 Q177,71 166,-2 Q103,9 78.5,47 Q54,85 56,153 Q57,203 85,359 M60,689 L57,700 L68,713 L75,742 Q171,815 227,848 Q255,852 280,850 Q292,833 308.5,802 Q325,771 324,763 Q310,712 308,708 Q303,698 296,708 Q283,727 264,749.5 Q245,772 237,773 Q221,774 159.5,742.5 Q98,711 60,689"/> 
            <glyph glyph-name="Ï" unicode="&#xCF;" horiz-adv-x="344" d=" M40,454 Q74,574 122,676 L184,676 Q259,593 273,569 Q282,553 283.5,545 Q285,537 280,500 Q278,493 227.5,282 Q177,71 166,-2 Q103,9 78.5,47 Q54,85 56,153 Q57,203 85,359 M83,750 L84,807 Q95,819 112,830 Q114,837 123,840 Q135,842 155,842 Q167,842 179,826 L177,805 L144,764 L140,742 Q138,738 128.5,733 Q119,728 114,728 Q108,728 97.5,736 Q87,744 83,750 M326,770 L324,756 L331,741 Q335,734 325,716 Q320,708 304.5,700.5 Q289,693 281,693 Q273,693 238,725 Q231,768 235,786 Q236,791 250.5,808.5 Q265,826 270,828 Q281,833 320,844 Q327,844 331,840 Q335,836 338.5,827 Q342,818 344,814 L339,781"/> 
            <glyph glyph-name="Ñ" unicode="&#xD1;" horiz-adv-x="621" d=" M117,-26 Q99,-8 33,56 Q38,196 62.5,365.5 Q87,535 114,632 L161,659 L305,628 Q299,603 294,567 L351,528 Q363,446 388,337.5 Q413,229 435,188 Q473,232 508,381 Q543,530 548,608 L606,682 L621,676 Q587,355 562,231 Q527,56 479,3 Q465,-11 453,-11 Q436,-11 406,3.5 Q376,18 370,25 Q332,68 285,177 Q238,286 229,324 Q193,188 141,-20 M273,761 L273,785 Q333,830 369,832 Q388,832 419,815 Q450,798 470,799 Q490,799 532,834 Q543,812 529,798 Q479,739 427,737 Q413,737 381,754 Q349,771 333,770 Q311,770 258,727 Q242,736 271,759 Q272,760 273,761"/> 
            <glyph glyph-name="Ò" unicode="&#xD2;" horiz-adv-x="532" d=" M164,657 Q360,655 428,628 Q526,589 529,447 Q532,336 469,206.5 Q406,77 355,33 Q275,-35 173,18 Q156,27 137,39.5 Q118,52 90,76.5 Q62,101 44.5,136 Q27,171 26,210 Q25,303 105,485 L42,490 L90,608 L147,615 M248,461 Q177,248 188,117 Q258,135 340.5,220.5 Q423,306 422,356 Q421,390 363.5,420 Q306,450 248,461 M417,718 L414,706 Q362,716 324,710 Q198,766 188,774 Q182,778 170,790 Q161,800 167,812 L182,840 L239,837 Q264,812 319.5,776 Q375,740 417,718"/> 
            <glyph glyph-name="Ó" unicode="&#xD3;" horiz-adv-x="532" d=" M164,657 Q360,655 428,628 Q526,589 529,447 Q532,336 469,206.5 Q406,77 355,33 Q275,-35 173,18 Q156,27 137,39.5 Q118,52 90,76.5 Q62,101 44.5,136 Q27,171 26,210 Q25,303 105,485 L42,490 L90,608 L147,615 M248,461 Q177,248 188,117 Q258,135 340.5,220.5 Q423,306 422,356 Q421,390 363.5,420 Q306,450 248,461 M497,838 Q502,818 502,803 Q494,796 480,788 Q478,774 472,759 Q363,719 307,712 Q288,709 277,714 L264,712 Q258,711 245,721 Q239,730 245,731 Q278,738 287,750 Q288,751 290,754.5 Q292,758 294.5,761 Q297,764 301,765 Q329,773 389,796 Q449,819 470,831 Q483,827 497,838"/> 
            <glyph glyph-name="Ô" unicode="&#xD4;" horiz-adv-x="532" d=" M164,657 Q360,655 428,628 Q526,589 529,447 Q532,336 469,206.5 Q406,77 355,33 Q275,-35 173,18 Q156,27 137,39.5 Q118,52 90,76.5 Q62,101 44.5,136 Q27,171 26,210 Q25,303 105,485 L42,490 L90,608 L147,615 M248,461 Q177,248 188,117 Q258,135 340.5,220.5 Q423,306 422,356 Q421,390 363.5,420 Q306,450 248,461 M213,689 L210,700 L221,713 L228,742 Q324,815 380,848 Q408,852 433,850 Q445,833 461.5,802 Q478,771 477,763 Q463,712 461,708 Q456,698 449,708 Q436,727 417,749.5 Q398,772 390,773 Q374,774 312.5,742.5 Q251,711 213,689"/> 
            <glyph glyph-name="Õ" unicode="&#xD5;" horiz-adv-x="532" d=" M164,657 Q360,655 428,628 Q526,589 529,447 Q532,336 469,206.5 Q406,77 355,33 Q275,-35 173,18 Q156,27 137,39.5 Q118,52 90,76.5 Q62,101 44.5,136 Q27,171 26,210 Q25,303 105,485 L42,490 L90,608 L147,615 M248,461 Q177,248 188,117 Q258,135 340.5,220.5 Q423,306 422,356 Q421,390 363.5,420 Q306,450 248,461 M227,761 L227,785 Q287,830 323,832 Q342,832 373,815 Q404,798 424,799 Q444,799 486,834 Q497,812 483,798 Q433,739 381,737 Q367,737 335,754 Q303,771 287,770 Q265,770 212,727 Q196,736 225,759 Q226,760 227,761"/> 
            <glyph glyph-name="Ö" unicode="&#xD6;" horiz-adv-x="532" d=" M164,657 Q360,655 428,628 Q526,589 529,447 Q532,336 469,206.5 Q406,77 355,33 Q275,-35 173,18 Q156,27 137,39.5 Q118,52 90,76.5 Q62,101 44.5,136 Q27,171 26,210 Q25,303 105,485 L42,490 L90,608 L147,615 M248,461 Q177,248 188,117 Q258,135 340.5,220.5 Q423,306 422,356 Q421,390 363.5,420 Q306,450 248,461 M218,750 L219,807 Q230,819 247,830 Q249,837 258,840 Q270,842 290,842 Q302,842 314,826 L312,805 L279,764 L275,742 Q273,738 263.5,733 Q254,728 249,728 Q243,728 232.5,736 Q222,744 218,750 M461,770 L459,756 L466,741 Q470,734 460,716 Q455,708 439.5,700.5 Q424,693 416,693 Q408,693 373,725 Q366,768 370,786 Q371,791 385.5,808.5 Q400,826 405,828 Q416,833 455,844 Q462,844 466,840 Q470,836 473.5,827 Q477,818 479,814 L474,781"/> 
            <glyph glyph-name="×" unicode="&#xD7;" horiz-adv-x="446" d=" M446,137 L396,88 L247,237 L98,88 L49,138 L197,286 L48,436 L97,485 L247,336 L396,485 L446,436 L296,286"/> 
            <glyph glyph-name="Ø" unicode="&#xD8;" horiz-adv-x="532" d=" M118,52 Q28,120 27,209 Q25,302 105,484 L42,490 L90,608 L147,614 L164,657 Q360,655 428,628 Q444,620 447,618 Q462,641 472,655 Q484,673 506,659 Q525,646 514,621 Q512,616 492,580 Q526,535 529,446 Q532,335 469,205.5 Q406,76 354,32 Q276,-34 178,15 Q165,-13 160,-25 Q149,-50 129,-44 Q127,-44 123,-42 Q119,-40 116,-39.5 Q113,-39 106.5,-40 Q100,-41 92,-44 Q87,-46 83,-44.5 Q79,-43 77.5,-36 Q76,-29 84,-14 Q88,-5 118,52 M332,434 Q293,451 247,461 Q192,285 187,183 Q257,310 332,434 M391,402 Q311,263 245,142 Q310,182 366.5,249 Q423,316 422,356 Q422,376 391,402"/> 
            <glyph glyph-name="Ù" unicode="&#xD9;" horiz-adv-x="567" d=" M78,584 L156,607 L166,640 L248,658 L262,534 Q238,461 221,334.5 Q204,208 218,115 Q280,161 349.5,271 Q419,381 482,534 L566,570 Q567,471 518,295 Q469,119 381,-1 Q316,-2 223,1 Q155,31 117,72.5 Q79,114 66,148 Q57,172 54,229.5 Q51,287 56.5,382.5 Q62,478 78,584 M445,718 L442,706 Q390,716 352,710 Q226,766 216,774 Q210,778 198,790 Q189,800 195,812 L210,840 L267,837 Q292,812 347.5,776 Q403,740 445,718"/> 
            <glyph glyph-name="Ú" unicode="&#xDA;" horiz-adv-x="567" d=" M78,584 L156,607 L166,640 L248,658 L262,534 Q238,461 221,334.5 Q204,208 218,115 Q280,161 349.5,271 Q419,381 482,534 L566,570 Q567,471 518,295 Q469,119 381,-1 Q316,-2 223,1 Q155,31 117,72.5 Q79,114 66,148 Q57,172 54,229.5 Q51,287 56.5,382.5 Q62,478 78,584 M531,838 Q536,818 536,803 Q527,796 514,788 Q512,774 506,759 Q397,719 341,712 Q322,709 311,714 L298,712 Q292,711 279,721 Q273,730 279,731 Q312,738 321,750 Q322,751 324,754.5 Q326,758 328.5,761 Q331,764 335,765 Q363,773 423,796 Q483,819 504,831 Q517,827 531,838"/> 
            <glyph glyph-name="Û" unicode="&#xDB;" horiz-adv-x="560" d=" M71,584 L149,607 L159,640 L241,658 L255,534 Q231,461 214,334.5 Q197,208 211,115 Q273,161 342.5,271 Q412,381 475,534 L559,570 Q560,471 511,295 Q462,119 374,-1 Q309,-2 216,1 Q148,31 110,72.5 Q72,114 59,148 Q50,172 47,229.5 Q44,287 49.5,382.5 Q55,478 71,584 M241,689 L238,700 L249,713 L256,742 Q352,815 408,848 Q436,852 461,850 Q473,833 489.5,802 Q506,771 505,763 Q491,712 489,708 Q484,698 477,708 Q464,727 445,749.5 Q426,772 418,773 Q402,774 340.5,742.5 Q279,711 241,689"/> 
            <glyph glyph-name="Ü" unicode="&#xDC;" horiz-adv-x="567" d=" M78,584 L156,607 L166,640 L248,658 L262,534 Q238,461 221,334.5 Q204,208 218,115 Q280,161 349.5,271 Q419,381 482,534 L566,570 Q567,471 518,295 Q469,119 381,-1 Q316,-2 223,1 Q155,31 117,72.5 Q79,114 66,148 Q57,172 54,229.5 Q51,287 56.5,382.5 Q62,478 78,584 M237,750 L238,807 Q249,819 266,830 Q268,837 277,840 Q289,842 309,842 Q321,842 333,826 L331,805 L298,764 L294,742 Q292,738 282.5,733 Q273,728 268,728 Q262,728 251.5,736 Q241,744 237,750 M480,770 L478,756 L485,741 Q489,734 479,716 Q474,708 458.5,700.5 Q443,693 435,693 Q427,693 392,725 Q385,768 389,786 Q390,791 404.5,808.5 Q419,826 424,828 Q435,833 474,844 Q481,844 485,840 Q489,836 492.5,827 Q496,818 498,814 L493,781"/> 
            <glyph glyph-name="ß" unicode="&#xDF;" horiz-adv-x="533" d=" M187,-61 L207,-66 Q196,-119 173,-164.5 Q150,-210 127,-233 L73,-226 Q46,-148 33,-82 Q20,-16 20.5,59.5 Q21,135 40,209 Q66,307 136,429.5 Q206,552 235,582 Q303,569 391.5,525 Q480,481 515,441 Q533,423 532.5,403.5 Q532,384 508,362 Q479,336 395,280 Q510,180 510,155 Q511,120 431,74.5 Q351,29 263,14 Q240,26 210,52.5 Q180,79 165,102 Q156,53 150.5,-9.5 Q145,-72 150,-105 Q178,-78 187,-61 M166,106 Q214,111 273.5,132 Q333,153 333,170 Q333,188 302.5,209 Q272,230 242,237 Q220,280 221,315 Q229,320 248,332 Q267,344 278.5,351.5 Q290,359 307.5,370.5 Q325,382 336.5,390.5 Q348,399 359,408 Q370,417 375.5,424.5 Q381,432 381,437 Q381,450 362,472 Q343,494 326,504 Q298,498 267,495 Q204,349 166,106"/> 
            <glyph glyph-name="à" unicode="&#xE0;" horiz-adv-x="351" d=" M351,29 L343,17 L272,36 Q221,130 208,161 Q194,146 131.5,97.5 Q69,49 45,35 L24,44 Q5,119 24,186 Q49,274 125,383 L122,396 L186,462 L213,441 L244,460 Q292,422 334,367 Q342,356 339,337 Q311,176 351,29 M83,195 L159,271 L144,323 Q98,258 83,195 M349,518 L346,506 Q294,516 256,510 Q130,566 120,574 Q114,578 102,590 Q93,600 99,612 L114,640 L171,637 Q196,612 251.5,576 Q307,540 349,518"/> 
            <glyph glyph-name="á" unicode="&#xE1;" horiz-adv-x="367" d=" M351,29 L343,17 L272,36 Q221,130 208,161 Q194,146 131.5,97.5 Q69,49 45,35 L24,44 Q5,119 24,186 Q49,274 125,383 L122,396 L186,462 L213,441 L244,460 Q292,422 334,367 Q342,356 339,337 Q311,176 351,29 M83,195 L159,271 L144,323 Q98,258 83,195 M362,641 Q367,621 367,606 Q358,599 345,591 Q343,577 337,562 Q228,522 172,515 Q153,512 142,517 L129,515 Q123,514 110,524 Q104,533 110,534 Q143,541 152,553 Q153,554 155,557.5 Q157,561 159.5,564 Q162,567 166,568 Q194,576 254,599 Q314,622 335,634 Q348,630 362,641"/> 
            <glyph glyph-name="â" unicode="&#xE2;" horiz-adv-x="378" d=" M351,29 L343,17 L272,36 Q221,130 208,161 Q194,146 131.5,97.5 Q69,49 45,35 L24,44 Q5,119 24,186 Q49,274 125,383 L122,396 L186,462 L213,441 L244,460 Q292,422 334,367 Q342,356 339,337 Q311,176 351,29 M83,195 L159,271 L144,323 Q98,258 83,195 M113,489 L110,500 L121,513 L128,542 Q224,615 280,648 Q308,652 333,650 Q345,633 361.5,602 Q378,571 377,563 Q363,512 361,508 Q356,498 349,508 Q336,527 317,549.5 Q298,572 290,573 Q274,574 212.5,542.5 Q151,511 113,489"/> 
            <glyph glyph-name="ã" unicode="&#xE3;" horiz-adv-x="402" d=" M351,29 L343,17 L272,36 Q221,130 208,161 Q194,146 131.5,97.5 Q69,49 45,35 L24,44 Q5,119 24,186 Q49,274 125,383 L122,396 L186,462 L213,441 L244,460 Q292,422 334,367 Q342,356 339,337 Q311,176 351,29 M83,195 L159,271 L144,323 Q98,258 83,195 M132,557 L132,581 Q192,626 228,628 Q247,628 278,611 Q309,594 329,595 Q349,595 391,630 Q402,608 388,594 Q338,535 286,533 Q272,533 240,550 Q208,567 192,566 Q170,566 117,523 Q101,532 130,555 Q131,556 132,557"/> 
            <glyph glyph-name="ä" unicode="&#xE4;" horiz-adv-x="386" d=" M351,29 L343,17 L272,36 Q221,130 208,161 Q194,146 131.5,97.5 Q69,49 45,35 L24,44 Q5,119 24,186 Q49,274 125,383 L122,396 L186,462 L213,441 L244,460 Q292,422 334,367 Q342,356 339,337 Q311,176 351,29 M83,195 L159,271 L144,323 Q98,258 83,195 M125,546 L126,603 Q137,615 154,626 Q156,633 165,636 Q177,638 197,638 Q209,638 221,622 L219,601 L186,560 L182,538 Q180,534 170.5,529 Q161,524 156,524 Q150,524 139.5,532 Q129,540 125,546 M368,566 L366,552 L373,537 Q377,530 367,512 Q362,504 346.5,496.5 Q331,489 323,489 Q315,489 280,521 Q273,564 277,582 Q278,587 292.5,604.5 Q307,622 312,624 Q323,629 362,640 Q369,640 373,636 Q377,632 380.5,623 Q384,614 386,610 L381,577"/> 
            <glyph glyph-name="å" unicode="&#xE5;" horiz-adv-x="378" d=" M351,29 L343,17 L272,36 Q221,130 208,161 Q194,146 131.5,97.5 Q69,49 45,35 L24,44 Q5,119 24,186 Q49,274 125,383 L122,396 L186,462 L213,441 L244,460 Q292,422 334,367 Q342,356 339,337 Q311,176 351,29 M83,195 L159,271 L144,323 Q98,258 83,195 M316,551 Q289,512 247,509 Q210,508 186,527.5 Q162,547 161,573 Q159,603 186,627 Q213,651 252,653 Q288,655 323,635 Q358,615 371,600 Q378,593 374,585 Q348,550 344,550 M293,571 Q292,581 279.5,590 Q267,599 248,598 Q224,597 214.5,586 Q205,575 206,566 Q206,558 218.5,548.5 Q231,539 250,540 Q270,541 282,551.5 Q294,562 293,571"/> 
            <glyph glyph-name="æ" unicode="&#xE6;" horiz-adv-x="638" d=" M196,120 Q75,19 49,2 L23,16 Q9,51 13.5,93.5 Q18,136 29,174 Q40,212 59.5,250.5 Q79,289 96,315.5 Q113,342 129,362 L126,376 Q154,414 194,453 Q200,450 222,435 L256,445 Q298,409 330,363 Q323,337 319,315 Q315,293 315,276 Q315,259 315,246.5 Q315,234 318,223.5 Q321,213 323,207.5 Q325,202 328.5,195.5 Q332,189 332,188 Q342,244 378.5,313 Q415,382 438,398 Q452,407 508.5,420 Q565,433 593,434 Q618,434 622,410 Q626,391 628,350 Q608,319 557,255 Q506,191 471,160 Q494,125 532,121.5 Q570,118 597.5,130.5 Q625,143 636,156 L638,139 L594,82 L594,42 Q548,18 507.5,11.5 Q467,5 442,11 Q417,17 395.5,33 Q374,49 365,60.5 Q356,72 348,86 Q315,58 289.5,49.5 Q264,41 246,52.5 Q228,64 217.5,79.5 Q207,95 196,120 M157,249 L146,300 Q104,264 91,190 M459,222 Q529,275 552,331 Q525,328 495,318 Q460,258 459,222"/> 
            <glyph glyph-name="ç" unicode="&#xE7;" horiz-adv-x="302" d=" M170,22 Q156,8 147,-22 Q196,-34 200,-36 Q212,-41 218,-60 Q227,-90 227,-132 Q202,-160 158,-185.5 Q114,-211 89,-218 Q68,-203 54,-187 Q115,-155 135,-119 Q110,-109 86,-91.5 Q62,-74 62,-60 Q62,-37 79.5,-14 Q97,9 113,20 Q85,36 56.5,69 Q28,102 21,132 Q15,136 17,190 Q19,244 40,286 Q63,335 96,374 Q129,413 151.5,429.5 Q174,446 183,446 Q193,445 220,434 Q247,423 274.5,402 Q302,381 302,362 Q300,297 283,238 L248,223 L255,279 Q220,270 174,213 Q128,156 116,115 Q154,113 209.5,129 Q265,145 299,164 L291,112 Q219,45 170,22"/> 
            <glyph glyph-name="è" unicode="&#xE8;" horiz-adv-x="365" d=" M167,128 L184,76 L321,127 L320,65 Q318,63 308.5,55.5 Q299,48 294,44 Q289,40 279.5,33 Q270,26 263.5,22.5 Q257,19 249,16 Q241,13 234,13 Q186,11 122.5,45.5 Q59,80 17,131 Q16,182 27.5,229.5 Q39,277 55.5,308.5 Q72,340 90.5,365 Q109,390 120.5,401 Q132,412 136,414 Q150,419 209,403.5 Q268,388 301,370 Q308,359 324,325 Q307,299 252.5,230.5 Q198,162 167,128 M167,221 Q224,292 240,329 Q212,328 190.5,298 Q169,268 167,221 M365,518 L362,506 Q310,516 272,510 Q146,566 136,574 Q130,578 118,590 Q109,600 115,612 L130,640 L187,637 Q212,612 267.5,576 Q323,540 365,518"/> 
            <glyph glyph-name="é" unicode="&#xE9;" horiz-adv-x="397" d=" M167,128 L184,76 L321,127 L320,65 Q318,63 308.5,55.5 Q299,48 294,44 Q289,40 279.5,33 Q270,26 263.5,22.5 Q257,19 249,16 Q241,13 234,13 Q186,11 122.5,45.5 Q59,80 17,131 Q16,182 27.5,229.5 Q39,277 55.5,308.5 Q72,340 90.5,365 Q109,390 120.5,401 Q132,412 136,414 Q150,419 209,403.5 Q268,388 301,370 Q308,359 324,325 Q307,299 252.5,230.5 Q198,162 167,128 M167,221 Q224,292 240,329 Q212,328 190.5,298 Q169,268 167,221 M392,641 Q397,621 397,606 Q388,599 375,591 Q373,577 367,562 Q258,522 202,515 Q183,512 172,517 L159,515 Q153,514 140,524 Q134,533 140,534 Q173,541 182,553 Q183,554 185,557.5 Q187,561 189.5,564 Q192,567 196,568 Q224,576 284,599 Q344,622 365,634 Q378,630 392,641"/> 
            <glyph glyph-name="ê" unicode="&#xEA;" horiz-adv-x="378" d=" M167,128 L184,76 L321,127 L320,65 Q318,63 308.5,55.5 Q299,48 294,44 Q289,40 279.5,33 Q270,26 263.5,22.5 Q257,19 249,16 Q241,13 234,13 Q186,11 122.5,45.5 Q59,80 17,131 Q16,182 27.5,229.5 Q39,277 55.5,308.5 Q72,340 90.5,365 Q109,390 120.5,401 Q132,412 136,414 Q150,419 209,403.5 Q268,388 301,370 Q308,359 324,325 Q307,299 252.5,230.5 Q198,162 167,128 M167,221 Q224,292 240,329 Q212,328 190.5,298 Q169,268 167,221 M113,489 L110,500 L121,513 L128,542 Q224,615 280,648 Q308,652 333,650 Q345,633 361.5,602 Q378,571 377,563 Q363,512 361,508 Q356,498 349,508 Q336,527 317,549.5 Q298,572 290,573 Q274,574 212.5,542.5 Q151,511 113,489"/> 
            <glyph glyph-name="ë" unicode="&#xEB;" horiz-adv-x="376" d=" M167,128 L184,76 L321,127 L320,65 Q318,63 308.5,55.5 Q299,48 294,44 Q289,40 279.5,33 Q270,26 263.5,22.5 Q257,19 249,16 Q241,13 234,13 Q186,11 122.5,45.5 Q59,80 17,131 Q16,182 27.5,229.5 Q39,277 55.5,308.5 Q72,340 90.5,365 Q109,390 120.5,401 Q132,412 136,414 Q150,419 209,403.5 Q268,388 301,370 Q308,359 324,325 Q307,299 252.5,230.5 Q198,162 167,128 M167,221 Q224,292 240,329 Q212,328 190.5,298 Q169,268 167,221 M115,546 L116,603 Q127,615 144,626 Q146,633 155,636 Q167,638 187,638 Q199,638 211,622 L209,601 L176,560 L172,538 Q170,534 160.5,529 Q151,524 146,524 Q140,524 129.5,532 Q119,540 115,546 M358,566 L356,552 L363,537 Q367,530 357,512 Q352,504 336.5,496.5 Q321,489 313,489 Q305,489 270,521 Q263,564 267,582 Q268,587 282.5,604.5 Q297,622 302,624 Q313,629 352,640 Q359,640 363,636 Q367,632 370.5,623 Q374,614 376,610 L371,577"/> 
            <glyph glyph-name="ì" unicode="&#xEC;" horiz-adv-x="301" d=" M243,341 Q199,117 193,40 L165,21 Q100,48 93,56 Q83,66 72,97.5 Q61,129 57,150 L13,151 L15,219 Q63,293 108,326 Q153,359 218,377 M301,518 L298,506 Q246,516 208,510 Q82,566 72,574 Q66,578 54,590 Q45,600 51,612 L66,640 L123,637 Q148,612 203.5,576 Q259,540 301,518"/> 
            <glyph glyph-name="í" unicode="&#xED;" horiz-adv-x="336" d=" M243,341 Q199,117 193,40 L165,21 Q100,48 93,56 Q83,66 72,97.5 Q61,129 57,150 L13,151 L15,219 Q63,293 108,326 Q153,359 218,377 M331,641 Q336,621 336,606 Q328,599 314,591 Q312,577 306,562 Q197,522 141,515 Q122,512 111,517 L98,515 Q92,514 79,524 Q73,533 79,534 Q112,541 121,553 Q122,554 124,557.5 Q126,561 128.5,564 Q131,567 135,568 Q163,576 223,599 Q283,622 304,634 Q317,630 331,641"/> 
            <glyph glyph-name="î" unicode="&#xEE;" horiz-adv-x="316" d=" M243,341 Q199,117 193,40 L165,21 Q100,48 93,56 Q83,66 72,97.5 Q61,129 57,150 L13,151 L15,219 Q63,293 108,326 Q153,359 218,377 M51,489 L48,500 L59,513 L66,542 Q162,615 218,648 Q246,652 271,650 Q283,633 299.5,602 Q316,571 315,563 Q301,512 299,508 Q294,498 287,508 Q274,527 255,549.5 Q236,572 228,573 Q212,574 150.5,542.5 Q89,511 51,489"/> 
            <glyph glyph-name="ï" unicode="&#xEF;" horiz-adv-x="326" d=" M243,341 Q199,117 193,40 L165,21 Q100,48 93,56 Q83,66 72,97.5 Q61,129 57,150 L13,151 L15,219 Q63,293 108,326 Q153,359 218,377 M65,546 L66,603 Q77,615 94,626 Q96,633 105,636 Q117,638 137,638 Q149,638 161,622 L159,601 L126,560 L122,538 Q120,534 110.5,529 Q101,524 96,524 Q90,524 79.5,532 Q69,540 65,546 M308,566 L306,552 L313,537 Q317,530 307,512 Q302,504 286.5,496.5 Q271,489 263,489 Q255,489 220,521 Q213,564 217,582 Q218,587 232.5,604.5 Q247,622 252,624 Q263,629 302,640 Q309,640 313,636 Q317,632 320.5,623 Q324,614 326,610 L321,577"/> 
            <glyph glyph-name="ñ" unicode="&#xF1;" horiz-adv-x="431" d=" M224,196 Q163,121 114,66 L26,67 L60,334 L43,348 L64,411 Q131,432 159,419 Q179,410 184.5,381.5 Q190,353 187,296 Q268,328 335,325 Q363,324 376.5,316 Q390,308 393.5,298 Q397,288 399,266 Q401,226 401,202.5 Q401,179 398.5,129 Q396,79 396,58 L409,56 L408,37 Q330,0 301,1 Q287,2 276,12 Q265,22 257,47 Q249,72 245,88 Q241,104 234,143.5 Q227,183 224,196 M161,557 L161,581 Q221,626 257,628 Q276,628 307,611 Q338,594 358,595 Q378,595 420,630 Q431,608 417,594 Q367,535 315,533 Q301,533 269,550 Q237,567 221,566 Q199,566 146,523 Q130,532 159,555 Q160,556 161,557"/> 
            <glyph glyph-name="ò" unicode="&#xF2;" horiz-adv-x="344" d=" M45,305 L20,321 Q98,429 148,431 Q191,432 251,395 Q311,358 313,329 Q314,284 277.5,209.5 Q241,135 195,75 Q153,19 87,17 Q58,15 43.5,35 Q29,55 27,112 Q23,206 45,305 M103,283 Q81,172 120,174 Q138,175 161,191.5 Q184,208 196,224 Q161,259 103,283 M344,518 L341,506 Q289,516 251,510 Q125,566 115,574 Q109,578 97,590 Q88,600 94,612 L109,640 L166,637 Q191,612 246.5,576 Q302,540 344,518"/> 
            <glyph glyph-name="ó" unicode="&#xF3;" horiz-adv-x="360" d=" M45,305 L20,321 Q98,429 148,431 Q191,432 251,395 Q311,358 313,329 Q314,284 277.5,209.5 Q241,135 195,75 Q153,19 87,17 Q58,15 43.5,35 Q29,55 27,112 Q23,206 45,305 M103,283 Q81,172 120,174 Q138,175 161,191.5 Q184,208 196,224 Q161,259 103,283 M355,641 Q360,621 360,606 Q352,599 338,591 Q336,577 330,562 Q221,522 165,515 Q146,512 135,517 L122,515 Q116,514 103,524 Q97,533 103,534 Q136,541 145,553 Q146,554 148,557.5 Q150,561 152.5,564 Q155,567 159,568 Q187,576 247,599 Q307,622 328,634 Q341,630 355,641"/> 
            <glyph glyph-name="ô" unicode="&#xF4;" horiz-adv-x="352" d=" M45,305 L20,321 Q98,429 148,431 Q191,432 251,395 Q311,358 313,329 Q314,284 277.5,209.5 Q241,135 195,75 Q153,19 87,17 Q58,15 43.5,35 Q29,55 27,112 Q23,206 45,305 M103,283 Q81,172 120,174 Q138,175 161,191.5 Q184,208 196,224 Q161,259 103,283 M87,489 L84,500 L95,513 L102,542 Q198,615 254,648 Q282,652 307,650 Q319,633 335.5,602 Q352,571 351,563 Q337,512 335,508 Q330,498 323,508 Q310,527 291,549.5 Q272,572 264,573 Q248,574 186.5,542.5 Q125,511 87,489"/> 
            <glyph glyph-name="õ" unicode="&#xF5;" horiz-adv-x="370" d=" M45,305 L20,321 Q98,429 148,431 Q191,432 251,395 Q311,358 313,329 Q314,284 277.5,209.5 Q241,135 195,75 Q153,19 87,17 Q58,15 43.5,35 Q29,55 27,112 Q23,206 45,305 M103,283 Q81,172 120,174 Q138,175 161,191.5 Q184,208 196,224 Q161,259 103,283 M100,557 L100,581 Q160,626 196,628 Q215,628 246,611 Q277,594 297,595 Q317,595 359,630 Q370,608 356,594 Q306,535 254,533 Q240,533 208,550 Q176,567 160,566 Q138,566 85,523 Q69,532 98,555 Q99,556 100,557"/> 
            <glyph glyph-name="ö" unicode="&#xF6;" horiz-adv-x="354" d=" M45,305 L20,321 Q98,429 148,431 Q191,432 251,395 Q311,358 313,329 Q314,284 277.5,209.5 Q241,135 195,75 Q153,19 87,17 Q58,15 43.5,35 Q29,55 27,112 Q23,206 45,305 M103,283 Q81,172 120,174 Q138,175 161,191.5 Q184,208 196,224 Q161,259 103,283 M93,546 L94,603 Q105,615 122,626 Q124,633 133,636 Q145,638 165,638 Q177,638 189,622 L187,601 L154,560 L150,538 Q148,534 138.5,529 Q129,524 124,524 Q118,524 107.5,532 Q97,540 93,546 M336,566 L334,552 L341,537 Q345,530 335,512 Q330,504 314.5,496.5 Q299,489 291,489 Q283,489 248,521 Q241,564 245,582 Q246,587 260.5,604.5 Q275,622 280,624 Q291,629 330,640 Q337,640 341,636 Q345,632 348.5,623 Q352,614 354,610 L349,577"/> 
            <glyph glyph-name="÷" unicode="&#xF7;" horiz-adv-x="441" d=" M311,464 Q311,437 292.5,419 Q274,401 247,401 Q221,401 202.5,419 Q184,437 184,464 Q184,490 202,508.5 Q220,527 246,527 Q273,527 292,508.5 Q311,490 311,464 M441,252 L54,252 L54,322 L441,322 M311,110 Q311,83 292,64.5 Q273,46 247,46 Q221,46 202.5,64.5 Q184,83 184,110 Q184,136 202,154 Q220,172 246,172 Q273,172 292,154 Q311,136 311,110"/> 
            <glyph glyph-name="ø" unicode="&#xF8;" horiz-adv-x="314" d=" M34,313 L8,328 Q88,432 135,434 Q161,434 218,411 L243,458 Q253,475 267.5,467 Q282,459 275,443 L250,393 Q268,381 277,374.5 Q286,368 299,350.5 Q312,333 313,315 Q314,260 246,154 Q200,82 166.5,50 Q133,18 83,16 Q69,16 57,19 Q33,-26 32,-27 Q31,-28 -9,-37 Q-15,-39 -15,-34 Q-15,-31 -12,-26 Q-6,-16 7.5,10 Q21,36 23,39 Q7,66 7,122 Q7,178 15,227 Q23,276 34,313 M89,291 Q84,276 81.5,254.5 Q79,233 82,209.5 Q85,186 97,179 L141,264 M173,242 L140,178 Q174,191 194,224"/> 
            <glyph glyph-name="ù" unicode="&#xF9;" horiz-adv-x="396" d=" M176,403 L181,415 L227,417 Q160,199 152,139 Q232,216 283,291 Q285,294 288.5,299 Q292,304 294,307.5 Q296,311 297,311 Q337,329 396,336 Q386,262 383.5,166 Q381,70 395,-24 L352,-33 Q339,-22 319,7 L286,0 Q256,37 227,104 Q213,90 182.5,70.5 Q152,51 124,42 Q77,43 36,52 Q21,132 31,218 Q41,304 68,379 Q110,393 176,403 M376,518 L373,506 Q321,516 283,510 Q157,566 147,574 Q141,578 129,590 Q120,600 126,612 L141,640 L198,637 Q223,612 278.5,576 Q334,540 376,518"/> 
            <glyph glyph-name="ú" unicode="&#xFA;" horiz-adv-x="433" d=" M176,403 L181,415 L227,417 Q160,199 152,139 Q232,216 283,291 Q285,294 288.5,299 Q292,304 294,307.5 Q296,311 297,311 Q337,329 396,336 Q386,262 383.5,166 Q381,70 395,-24 L352,-33 Q339,-22 319,7 L286,0 Q256,37 227,104 Q213,90 182.5,70.5 Q152,51 124,42 Q77,43 36,52 Q21,132 31,218 Q41,304 68,379 Q110,393 176,403 M428,641 Q433,621 433,606 Q424,599 411,591 Q409,577 403,562 Q294,522 238,515 Q219,512 208,517 L195,515 Q189,514 176,524 Q170,533 176,534 Q209,541 218,553 Q219,554 221,557.5 Q223,561 225.5,564 Q228,567 232,568 Q260,576 320,599 Q380,622 401,634 Q414,630 428,641"/> 
            <glyph glyph-name="û" unicode="&#xFB;" horiz-adv-x="403" d=" M176,403 L181,415 L227,417 Q160,199 152,139 Q232,216 283,291 Q285,294 288.5,299 Q292,304 294,307.5 Q296,311 297,311 Q337,329 396,336 Q386,262 383.5,166 Q381,70 395,-24 L352,-33 Q339,-22 319,7 L286,0 Q256,37 227,104 Q213,90 182.5,70.5 Q152,51 124,42 Q77,43 36,52 Q21,132 31,218 Q41,304 68,379 Q110,393 176,403 M138,489 L135,500 L146,513 L153,542 Q249,615 305,648 Q333,652 358,650 Q370,633 386.5,602 Q403,571 402,563 Q388,512 386,508 Q381,498 374,508 Q361,527 342,549.5 Q323,572 315,573 Q299,574 237.5,542.5 Q176,511 138,489"/> 
            <glyph glyph-name="ü" unicode="&#xFC;" horiz-adv-x="396" d=" M176,403 L181,415 L227,417 Q160,199 152,139 Q232,216 283,291 Q285,294 288.5,299 Q292,304 294,307.5 Q296,311 297,311 Q337,329 396,336 Q386,262 383.5,166 Q381,70 395,-24 L352,-33 Q339,-22 319,7 L286,0 Q256,37 227,104 Q213,90 182.5,70.5 Q152,51 124,42 Q77,43 36,52 Q21,132 31,218 Q41,304 68,379 Q110,393 176,403 M135,546 L136,603 Q147,615 164,626 Q166,633 175,636 Q187,638 207,638 Q219,638 231,622 L229,601 L196,560 L192,538 Q190,534 180.5,529 Q171,524 166,524 Q160,524 149.5,532 Q139,540 135,546 M378,566 L376,552 L383,537 Q387,530 377,512 Q372,504 356.5,496.5 Q341,489 333,489 Q325,489 290,521 Q283,564 287,582 Q288,587 302.5,604.5 Q317,622 322,624 Q333,629 372,640 Q379,640 383,636 Q387,632 390.5,623 Q394,614 396,610 L391,577"/> 
            <glyph glyph-name="ÿ" unicode="&#xFF;" horiz-adv-x="385" d=" M118,46 L87,61 L88,79 Q50,110 38,123 Q20,249 45,346 Q76,361 110,368 L113,381 Q159,388 191,387 Q186,356 179,274 Q172,192 177,145 Q192,176 234,258.5 Q276,341 300,389 Q324,437 330,454 L360,449 Q371,378 365,316 Q361,270 313.5,141 Q266,12 246,-17 Q226,-47 165.5,-105.5 Q105,-164 55,-197 L10,-194 Q25,-149 61,-70 Q97,9 118,46 M124,546 L125,603 Q136,615 153,626 Q155,633 164,636 Q176,638 196,638 Q208,638 220,622 L218,601 L185,560 L181,538 Q179,534 169.5,529 Q160,524 155,524 Q149,524 138.5,532 Q128,540 124,546 M367,566 L365,552 L372,537 Q376,530 366,512 Q361,504 345.5,496.5 Q330,489 322,489 Q314,489 279,521 Q272,564 276,582 Q277,587 291.5,604.5 Q306,622 311,624 Q322,629 361,640 Q368,640 372,636 Q376,632 379.5,623 Q383,614 385,610 L380,577"/> 
            <glyph glyph-name="ı" unicode="&#x131;" horiz-adv-x="243" d=" M243,341 Q199,117 193,40 L165,21 Q100,48 93,56 Q83,66 72,97.5 Q61,129 57,150 L13,151 L15,219 Q63,293 108,326 Q153,359 218,377"/> 
            <glyph glyph-name="Œ" unicode="&#x152;" horiz-adv-x="827" d=" M464,597 Q637,675 822,652 L827,596 L795,522 Q692,519 606,485 L540,368 Q572,373 626,372.5 Q680,372 720,368 L794,344 L776,275 Q720,267 638,233 Q556,199 491,153 Q503,100 579,103.5 Q655,107 749,166 L759,152 Q721,118 694,51 Q636,24 593,11 Q550,-2 510,-2.5 Q470,-3 443.5,20.5 Q417,44 404,91 Q403,91 398,83 Q393,75 382.5,61 Q372,47 360,37 Q278,-36 173,18 Q156,27 137,39.5 Q118,52 90,76.5 Q62,101 44.5,136 Q27,171 26,210 Q25,303 105,485 L42,490 L90,608 L147,615 L164,657 Q387,654 464,597 M248,466 Q228,402 218,367.5 Q208,333 195.5,254.5 Q183,176 188,117 Q231,128 284.5,170 Q338,212 377,262 Q422,320 422,362 Q422,382 395,404 Q370,425 327,442 Q284,459 248,466"/> 
            <glyph glyph-name="œ" unicode="&#x153;" horiz-adv-x="524" d=" M284,344 Q317,390 326,396 Q340,406 396.5,419 Q453,432 481,433 Q503,433 507,410 Q511,391 513,350 Q495,321 443,256.5 Q391,192 356,160 Q379,125 417.5,121.5 Q456,118 483,130.5 Q510,143 521,156 L524,139 L479,82 L479,42 Q478,41 468.5,33 Q459,25 455,22.5 Q451,20 442.5,16.5 Q434,13 427,13 Q373,13 313.5,45.5 Q254,78 221,112 Q208,91 195,75 Q153,19 87,17 Q58,15 43.5,35 Q29,55 27,112 Q23,206 45,305 L20,321 Q35,341 52,362 Q69,383 98.5,407 Q128,431 148,431 Q180,431 228,403 Q276,375 284,344 M105,286 Q81,172 120,174 Q139,175 162.5,192 Q186,209 198,226 Q160,263 105,286 M345,222 Q414,276 438,331 Q409,328 381,318 Q370,301 358,270.5 Q346,240 345,222"/> 
            <glyph glyph-name="Ÿ" unicode="&#x178;" horiz-adv-x="513" d=" M427,652 L475,608 L475,542 L513,508 Q480,335 430,231 Q409,186 338,85.5 Q267,-15 165,-119 L82,-87 Q181,66 243,211 Q199,170 155,143 Q119,171 69,219 Q54,303 53,443.5 Q52,584 66,664 Q115,619 173,571 Q169,500 181,407 Q193,314 208,283 Q211,276 213.5,274 Q216,272 220,274 Q224,276 231,283 Q268,320 329,433 Q390,546 427,652 M165,751 L166,808 Q177,820 194,831 Q196,838 205,841 Q217,843 237,843 Q249,843 261,827 L259,806 L226,765 L222,743 Q220,739 210.5,734 Q201,729 196,729 Q190,729 179.5,737 Q169,745 165,751 M408,771 L406,757 L413,742 Q417,735 407,717 Q402,709 386.5,701.5 Q371,694 363,694 Q355,694 320,726 Q313,769 317,787 Q318,792 332.5,809.5 Q347,827 352,829 Q363,834 402,845 Q409,845 413,841 Q417,837 420.5,828 Q424,819 426,815 L421,782"/> 
            <glyph glyph-name="ƒ" unicode="&#x192;" horiz-adv-x="427" d=" M169,437 Q179,492 223.5,575 Q268,658 340,736 Q369,740 427,725 Q422,654 387.5,575.5 Q353,497 307,477 Q306,469 305,453.5 Q304,438 303,430 Q380,426 426,421 Q417,389 397,362 L295,366 Q294,361 292,339 Q290,317 289,308.5 Q288,300 285,280 Q282,260 278.5,248 Q275,236 270,218.5 Q265,201 257.5,186.5 Q250,172 241,157 L294,199 L323,164 L222,76 Q213,45 176.5,-33 Q140,-111 122,-139 L71,-143 L71,7 Q71,44 121,106 Q146,222 157,373 L41,387 L55,434"/> 
            <glyph glyph-name="ˆ" unicode="&#x2C6;" horiz-adv-x="335" d=" M70,689 L67,700 L78,713 L85,742 Q181,815 237,848 Q265,852 290,850 Q302,833 318.5,802 Q335,771 334,763 Q320,712 318,708 Q313,698 306,708 Q293,727 274,749.5 Q255,772 247,773 Q231,774 169.5,742.5 Q108,711 70,689"/> 
            <glyph glyph-name="˚" unicode="&#x2DA;" horiz-adv-x="284" d=" M222,748 Q195,709 153,706 Q116,705 92,724.5 Q68,744 67,770 Q65,800 92,824 Q119,848 158,850 Q194,852 229,832 Q264,812 277,797 Q284,790 280,782 Q254,747 250,747 M199,768 Q198,778 185.5,787 Q173,796 154,795 Q130,794 120.5,783 Q111,772 112,763 Q112,755 124.5,745.5 Q137,736 156,737 Q176,738 188,748.5 Q200,759 199,768"/> 
            <glyph glyph-name="˜" unicode="&#x2DC;" horiz-adv-x="360" d=" M90,761 L90,785 Q150,830 186,832 Q205,832 236,815 Q267,798 287,799 Q307,799 349,834 Q360,812 346,798 Q296,739 244,737 Q230,737 198,754 Q166,771 150,770 Q128,770 75,727 Q59,736 88,759 Q89,760 90,761"/> 
            <glyph glyph-name="Ω" unicode="&#x3A9;" horiz-adv-x="613" d=" M613,0 L390,0 L390,110 Q460,146 495.5,226 Q531,306 531,392 Q531,521 479.5,600.5 Q428,680 329,680 Q228,680 176,599.5 Q124,519 124,391 Q124,300 163.5,216.5 Q203,133 272,106 L272,0 L43,0 L43,128 L65,128 Q65,101 67.5,88 Q70,75 83,65 Q96,55 122,55 L237,55 L237,85 Q159,117 105.5,200 Q52,283 52,388 Q52,541 129,626.5 Q206,712 330,712 Q454,712 529.5,620 Q605,528 605,398 Q605,341 587,282.5 Q569,224 527,169 Q485,114 425,88 L425,55 L534,55 Q571,55 581,72 Q591,89 591,128 L613,128"/> 
            <glyph glyph-name="π" unicode="&#x3C0;" horiz-adv-x="416" d=" M416,86 Q408,41 389.5,14.5 Q371,-12 346,-12 Q314,-12 297,19 Q281,49 281,142 L281,423 L173,423 L173,216 Q173,71 144,23 Q121,-12 87,-12 Q76,-12 67,-3.5 Q58,5 58,16 Q58,41 91,51 Q121,59 130,104 Q139,149 139,237 L139,423 L114,423 Q88,423 72.5,407.5 Q57,392 50,356 L29,361 Q31,418 55.5,450 Q80,482 125,482 L406,482 L406,423 L315,423 L315,168 Q315,99 326,69 Q335,41 356,41 Q383,41 401,98"/> 
            <glyph glyph-name="–" unicode="&#x2013;" horiz-adv-x="486" d=" M457,263 Q463,206 479,177 Q486,164 478,153 Q470,142 457,149 Q426,163 384.5,165 Q343,167 308.5,161.5 Q274,156 229,150.5 Q184,145 154,147 Q111,149 95,167 Q63,211 52,241 Q48,252 52.5,260 Q57,268 72,266 Q126,259 255,268 Q384,277 457,263"/> 
            <glyph glyph-name="—" unicode="&#x2014;" horiz-adv-x="1055" d=" M1026,274 Q1032,221 1047,189 Q1055,175 1047,164.5 Q1039,154 1026,160 Q988,177 933,177 Q766,175 529.5,165 Q293,155 159,156 Q111,156 96,179 L52,253 Q47,262 53.5,269.5 Q60,277 73,277 Q77,277 104,274.5 Q131,272 169,272 Q340,271 561.5,279 Q783,287 920,287 Q964,286 1026,274"/> 
            <glyph glyph-name="‘" unicode="&#x2018;" horiz-adv-x="237" d=" M206,470 L169,443 Q144,456 113,452 L100,463 L101,477 Q103,480 115.5,502.5 Q128,525 140.5,547.5 Q153,570 171.5,600.5 Q190,631 206,654 Q216,669 223,660 L237,642 Q228,612 217.5,557.5 Q207,503 206,470"/> 
            <glyph glyph-name="’" unicode="&#x2019;" horiz-adv-x="250" d=" M145,639 L182,666 Q209,652 237,657 L250,645 L249,632 Q248,631 229,596.5 Q210,562 187.5,523 Q165,484 145,455 Q135,442 127,449 L113,467 Q122,495 132.5,549.5 Q143,604 145,639"/> 
            <glyph glyph-name="“" unicode="&#x201C;" horiz-adv-x="364" d=" M206,470 L169,443 Q144,456 113,452 L100,463 L101,477 Q103,480 115.5,502.5 Q128,525 140.5,547.5 Q153,570 171.5,600.5 Q190,631 206,654 Q216,669 223,660 L237,642 Q228,612 217.5,557.5 Q207,503 206,470 M332,470 L295,443 Q271,456 240,452 L227,463 L228,477 Q229,478 248,512.5 Q267,547 289.5,586 Q312,625 332,654 Q343,668 350,660 L364,642 Q355,614 344.5,559.5 Q334,505 332,470"/> 
            <glyph glyph-name="”" unicode="&#x201D;" horiz-adv-x="377" d=" M271,639 L308,666 Q336,652 364,657 L377,645 L376,632 Q374,629 361.5,606.5 Q349,584 336.5,561.5 Q324,539 305.5,508.5 Q287,478 271,455 Q261,440 254,449 L240,467 Q249,497 259.5,551.5 Q270,606 271,639 M145,639 L182,666 Q209,652 237,657 L250,645 L249,632 Q248,631 229,596.5 Q210,562 187.5,523 Q165,484 145,455 Q135,442 127,449 L113,467 Q122,495 132.5,549.5 Q143,604 145,639"/> 
            <glyph glyph-name="„" unicode="&#x201E;" horiz-adv-x="324" d=" M218,63 L255,90 Q283,76 311,81 L324,69 L322,56 Q268,-46 218,-121 Q208,-136 201,-127 L187,-109 Q212,-26 218,63 M91,63 L128,90 Q156,76 184,81 L197,69 L196,56 Q194,53 181.5,30.5 Q169,8 156.5,-14.5 Q144,-37 125.5,-67.5 Q107,-98 91,-121 Q81,-136 74,-127 L60,-109 Q69,-79 79.5,-24.5 Q90,30 91,63"/> 
            <glyph glyph-name="•" unicode="&#x2022;" horiz-adv-x="257" d=" M158,438 Q199,438 228,409.5 Q257,381 257,340 Q257,299 228,270 Q199,241 158,241 Q117,241 88.5,270 Q60,299 60,340 Q60,380 89,409 Q118,438 158,438"/> 
            <glyph glyph-name="…" unicode="&#x2026;" horiz-adv-x="866" d=" M27,34 Q58,83 97,131 L117,132 Q144,115 180,110 Q193,108 196.5,100.5 Q200,93 198,85.5 Q196,78 190,62 Q99,1 49,-13 Q32,12 27,34 M360,34 Q388,77 431,131 L451,132 Q478,115 513,110 Q526,108 529.5,100.5 Q533,93 531,85.5 Q529,78 523,62 Q432,1 382,-13 Q367,8 360,34 M693,34 Q727,86 764,131 L784,132 Q812,115 847,110 Q865,107 865.5,93.5 Q866,80 857,62 Q766,1 716,-13 Q701,8 693,34"/> 
            <glyph glyph-name="‰" unicode="&#x2030;" horiz-adv-x="792" d=" M162,643 Q186,629 201,616 L213,623 Q256,596 272.5,570 Q289,544 290,507 Q292,423 273,387 Q261,364 228.5,339 Q196,314 161,305 Q111,292 96,313 Q83,331 70.5,363 Q58,395 57,425 Q56,453 74.5,516 Q93,579 113,602 Q134,627 162,643 M207,568 Q148,493 133,400 Q165,408 191.5,434 Q218,460 226,495 Q234,530 207,568 M29,-8 Q37,8 274,343 Q343,442 403,522 Q463,602 482,618 Q486,622 489,623 Q492,624 494.5,623 Q497,622 501,621 Q505,620 508,619 Q514,618 522.5,617.5 Q531,617 537,616.5 Q543,616 549,615 Q555,614 558,612 Q561,610 561,607 Q561,597 553,588 Q535,569 477,498.5 Q419,428 362,353 Q310,285 255,211 Q200,137 173,100.5 Q146,64 121.5,33.5 Q97,3 83,-10 Q60,-29 47,-29 Q35,-30 29.5,-23 Q24,-16 29,-8 M407,338 Q431,324 446,311 L457,317 Q501,291 517.5,265 Q534,239 535,202 Q537,118 518,82 Q506,59 473.5,34 Q441,9 406,0 Q357,-15 341,8 Q303,63 302,119 Q300,147 319,210 Q338,273 358,297 Q379,322 407,338 M452,263 Q393,188 378,95 Q410,103 436.5,129 Q463,155 471,190 Q479,225 452,263 M662,338 Q686,324 701,311 L712,317 Q755,291 771.5,265 Q788,239 790,202 Q792,120 772,82 Q760,58 727.5,33.5 Q695,9 660,0 Q612,-15 596,8 Q582,26 569.5,57.5 Q557,89 556,119 Q555,148 573.5,210.5 Q592,273 612,297 Q638,325 662,338 M706,263 Q648,188 633,95 Q664,103 690.5,129 Q717,155 725,190 Q733,225 706,263"/> 
            <glyph glyph-name="‹" unicode="&#x2039;" horiz-adv-x="244" d=" M244,105 L243,84 L98,102 Q94,120 60,183.5 Q26,247 26,278 Q27,298 62.5,358.5 Q98,419 125,445 Q135,454 142,454.5 Q149,455 162,448 L237,409 L238,390 Q209,365 169,313 Q129,261 129,237 Q129,228 136,216.5 Q143,205 156.5,190 Q170,175 182.5,163 Q195,151 214.5,133 Q234,115 244,105"/> 
            <glyph glyph-name="›" unicode="&#x203A;" horiz-adv-x="222" d=" M18,386 L71,412 L71,431 L118,482 Q160,417 191,346 Q222,275 222,229 Q222,154 170,114 Q143,94 103.5,86 Q64,78 10,88 L2,114 Q40,134 60,147 Q80,160 100,182 Q120,204 120,226 Q120,254 71,314 L34,346"/> 
            <glyph glyph-name="⁄" unicode="&#x2044;" horiz-adv-x="421" d=" M-111,-8 Q-103,8 134,343 Q203,442 263,522 Q323,602 342,618 Q346,622 349,623 Q352,624 354.5,623 Q357,622 361,621 Q365,620 368,619 Q374,618 382.5,617.5 Q391,617 397,616.5 Q403,616 409,615 Q415,614 418,612 Q421,610 421,607 Q421,597 413,588 Q395,569 337,498.5 Q279,428 222,353 Q170,285 115,211 Q60,137 33,100.5 Q6,64 -18.5,33.5 Q-43,3 -57,-10 Q-80,-29 -93,-29 Q-105,-30 -110.5,-23 Q-116,-16 -111,-8"/> 
            <glyph glyph-name="€" unicode="&#x20AC;" horiz-adv-x="550" d=" M405,318 Q395,288 380,267 Q238,277 190,281 Q176,257 170,239 Q204,218 287,218 Q354,218 437.5,232.5 Q521,247 550,258 L543,190 Q507,150 467,133 L469,58 Q369,10 224,10 Q189,10 171,13 Q152,16 140,42 Q115,94 101.5,158 Q88,222 88,265 L88,289 L11,295 L21,335 L97,332 Q98,335 111,368 L32,374 L44,413 L132,410 Q191,511 303,573.5 Q415,636 535,645 L543,572 L518,485 Q386,468 301,403 L445,395 Q436,369 419,345 Q364,349 327,351.5 Q290,354 281.5,354.5 Q273,355 267.5,355.5 Q262,356 250,357 Q245,352 224,328 Q272,326 405,318"/> 
            <glyph glyph-name="ℓ" unicode="&#x2113;" horiz-adv-x="357" d=" M357,100 Q312,-12 226,-12 Q177,-12 148,17 Q112,53 112,127 L112,222 Q92,197 52,155 L31,179 Q95,249 112,273 L112,517 Q112,604 143,658 Q174,712 226,712 Q269,712 289.5,684 Q310,656 310,612 Q310,516 236,384 Q193,312 180,297 L180,123 Q180,77 197.5,52.5 Q215,28 240,28 Q291,28 328,114 M278,611 L277,611 Q277,679 231,679 Q180,679 180,552 L180,356 Q181,358 187,367.5 Q193,377 200.5,390 Q208,403 214,414 Q278,526 278,611"/> 
            <glyph glyph-name="Ω" unicode="&#x2126;" horiz-adv-x="613" d=" M613,0 L390,0 L390,110 Q460,146 495.5,226 Q531,306 531,392 Q531,521 479.5,600.5 Q428,680 329,680 Q228,680 176,599.5 Q124,519 124,391 Q124,300 163.5,216.5 Q203,133 272,106 L272,0 L43,0 L43,128 L65,128 Q65,101 67.5,88 Q70,75 83,65 Q96,55 122,55 L237,55 L237,85 Q159,117 105.5,200 Q52,283 52,388 Q52,541 129,626.5 Q206,712 330,712 Q454,712 529.5,620 Q605,528 605,398 Q605,341 587,282.5 Q569,224 527,169 Q485,114 425,88 L425,55 L534,55 Q571,55 581,72 Q591,89 591,128 L613,128"/> 
            <glyph glyph-name="℮" unicode="&#x212E;" horiz-adv-x="591" d=" M591,280 L159,280 L159,77 Q223,15 313,15 Q449,15 527,146 L554,131 Q506,60 450.5,24 Q395,-12 313,-12 Q190,-12 115,71.5 Q40,155 40,280 Q40,405 114.5,488.5 Q189,572 313,572 Q439,572 513,489.5 Q587,407 591,280 M467,307 L467,480 Q404,545 312,545 Q220,545 159,482 L159,307"/> 
            <glyph glyph-name="∂" unicode="&#x2202;" horiz-adv-x="434" d=" M434,471 Q434,326 385,197 Q367,150 349,116 Q331,82 306.5,50.5 Q282,19 251,2.5 Q220,-14 183,-14 Q109,-14 69.5,44.5 Q30,103 30,185 Q30,302 90,384 Q150,466 247,466 Q301,466 337.5,437.5 Q374,409 386,375 L388,375 Q392,423 392,458 Q392,509 380.5,553 Q369,597 337.5,630.5 Q306,664 258,664 Q175,664 114,586 L97,604 Q113,626 127.5,642 Q142,658 164.5,677 Q187,696 216,706.5 Q245,717 278,717 Q434,717 434,471 M381,324 Q368,366 337.5,399 Q307,432 257,432 Q191,432 144,358 Q97,284 97,174 Q97,100 126.5,60.5 Q156,21 201,21 Q246,21 284.5,70.5 Q323,120 345.5,184.5 Q368,249 381,324"/> 
            <glyph glyph-name="∆" unicode="&#x2206;" horiz-adv-x="533" d=" M533,0 L18,0 L257,712 L302,712 M451,39 L264,597 L68,39"/> 
            <glyph glyph-name="∏" unicode="&#x220F;" horiz-adv-x="596" d=" M596,-131 L391,-131 L391,-109 L408,-109 Q440,-109 449.5,-91 Q459,-73 459,-36 L460,666 L170,666 L170,-36 Q170,-73 179.5,-91 Q189,-109 221,-109 L238,-109 L238,-131 L35,-131 L35,-109 L52,-109 Q84,-109 93.5,-91 Q103,-73 103,-36 L103,605 Q103,643 93.5,660.5 Q84,678 52,678 L35,678 L35,700 L596,700 L596,678 L579,678 Q546,678 537,660.5 Q528,643 528,605 L528,-36 Q528,-73 537.5,-91 Q547,-109 579,-109 L596,-109"/> 
            <glyph glyph-name="∑" unicode="&#x2211;" horiz-adv-x="492" d=" M492,7 L480,-131 L9,-131 L8,-106 L253,286 L17,676 L17,700 L465,700 L472,576 L453,576 Q448,627 434.5,646 Q421,665 379,665 L94,665 L310,317 L67,-71 L391,-71 Q436,-71 450.5,-55 Q465,-39 472,11"/> 
            <glyph glyph-name="−" unicode="&#x2212;" horiz-adv-x="441" d=" M441,252 L54,252 L54,322 L441,322"/> 
            <glyph glyph-name="∕" unicode="&#x2215;" horiz-adv-x="421" d=" M-111,-8 Q-103,8 134,343 Q203,442 263,522 Q323,602 342,618 Q346,622 349,623 Q352,624 354.5,623 Q357,622 361,621 Q365,620 368,619 Q374,618 382.5,617.5 Q391,617 397,616.5 Q403,616 409,615 Q415,614 418,612 Q421,610 421,607 Q421,597 413,588 Q395,569 337,498.5 Q279,428 222,353 Q170,285 115,211 Q60,137 33,100.5 Q6,64 -18.5,33.5 Q-43,3 -57,-10 Q-80,-29 -93,-29 Q-105,-30 -110.5,-23 Q-116,-16 -111,-8"/> 
            <glyph glyph-name="∙" unicode="&#x2219;" horiz-adv-x="251" d=" M78,335 Q115,392 148,431 L168,432 Q197,415 231,411 Q244,409 247.5,401.5 Q251,394 249,386 Q247,378 241,362 Q153,303 100,288 Q82,314 78,335"/> 
            <glyph glyph-name="√" unicode="&#x221A;" horiz-adv-x="310" d=" M310,728 L233,-12 L188,-12 L87,331 L37,298 L20,325 L118,389 L209,73 L211,73 L279,728"/> 
            <glyph glyph-name="∞" unicode="&#x221E;" horiz-adv-x="617" d=" M489,139 Q436,139 402,166.5 Q368,194 342,243 L340,243 Q279,139 192,139 Q133,139 95,179 Q57,219 57,280 Q57,343 94,383 Q131,423 189,423 Q281,423 331,323 L333,323 Q363,371 397.5,397 Q432,423 486,423 Q541,423 579,384 Q617,345 617,283 Q617,221 580,180 Q543,139 489,139 M490,386 L491,386 Q471,386 454,379.5 Q437,373 427,366.5 Q417,360 402,340 Q387,320 382,312 Q377,304 359,274 Q407,176 488,176 Q534,176 559,207.5 Q584,239 584,280 Q584,327 560.5,356.5 Q537,386 490,386 M190,386 L191,386 Q146,386 118,357.5 Q90,329 90,281 Q90,233 116,204.5 Q142,176 187,176 Q210,176 230,187 Q250,198 267,220 Q284,242 292.5,255 Q301,268 314,292 Q271,386 190,386"/> 
            <glyph glyph-name="∫" unicode="&#x222B;" horiz-adv-x="227" d=" M227,703 Q227,693 221.5,684 Q216,675 206,675 Q195,675 181,686 Q166,697 156,697 Q133,697 133,652 Q132,635 136.5,587.5 Q141,540 142,500 Q151,365 151,253 Q151,110 146,33 Q140,-94 128,-137 Q118,-174 103.5,-192.5 Q89,-211 61,-211 Q41,-211 25,-199 Q9,-187 9,-168 Q9,-155 16,-146.5 Q23,-138 35,-138 Q45,-138 57,-151 Q65,-161 77,-161 Q101,-161 102,-83 Q103,-72 101.5,-53.5 Q100,-35 97.5,-7.5 Q95,20 94,32 Q87,146 87,251 Q87,361 91,460 Q95,622 104,675 Q117,748 169,748 Q193,748 210,734 Q227,720 227,703"/> 
            <glyph glyph-name="≈" unicode="&#x2248;" horiz-adv-x="453" d=" M453,445 Q443,384 413,345 Q383,306 336,306 Q291,306 229,343 Q180,371 158,371 Q131,371 115,354 Q99,337 87,296 L41,313 Q69,452 161,452 Q201,452 258,419 Q307,388 340,388 Q366,388 380.5,405 Q395,422 407,462 M453,262 Q442,201 412.5,162 Q383,123 336,123 Q291,123 229,160 Q183,188 158,188 Q131,188 115,171.5 Q99,155 87,113 L41,130 Q69,270 161,270 Q203,270 258,236 Q309,205 340,205 Q365,205 380,222.5 Q395,240 407,279"/> 
            <glyph glyph-name="≠" unicode="&#x2260;" horiz-adv-x="441" d=" M441,162 L232,162 L171,12 L98,12 L160,162 L54,162 L54,232 L189,232 L234,341 L54,341 L54,411 L262,411 L325,563 L397,563 L335,411 L441,411 L441,341 L306,341 L261,232 L441,232"/> 
            <glyph glyph-name="≤" unicode="&#x2264;" horiz-adv-x="441" d=" M441,0 L54,0 L54,70 L441,70 M441,107 L54,285 L54,356 L441,534 L441,457 L136,321 L441,185"/> 
            <glyph glyph-name="≥" unicode="&#x2265;" horiz-adv-x="441" d=" M441,0 L54,0 L54,70 L441,70 M441,284 L54,107 L54,184 L359,319 L54,456 L54,533 L441,355"/> 
            <glyph glyph-name="◊" unicode="&#x25CA;" horiz-adv-x="366" d=" M366,349 L210,-12 L167,-12 L16,349 L167,712 L210,712 M324,349 L189,663 L57,349 L189,36"/> 
            <glyph glyph-name="ﬁ" unicode="&#xFB01;" horiz-adv-x="513" d=" M310,285 Q341,322 374,341 Q407,360 461,377 L486,341 Q445,143 436,40 L407,21 Q342,48 335,56 Q325,66 314,98 Q303,130 299,150 L282,248 L215,165 Q224,129 235,12 Q246,-105 241,-135 Q236,-161 153,-195 Q93,-123 57.5,-45 Q22,33 23,134 Q24,225 72,344 Q127,475 236,664 L271,664 L276,557 Q210,362 189,308 L203,263 M173,133 Q164,97 166,34 Q168,-29 181,-74 Q201,-42 193,151 M387,418 L316,466 Q390,542 404,551 Q415,559 487,576 L513,518"/> 
            <glyph glyph-name="ﬂ" unicode="&#xFB02;" horiz-adv-x="535" d=" M279,260 Q257,216 215,165 Q224,129 235,12 Q246,-105 241,-135 Q236,-161 153,-195 Q92,-123 57,-45 Q22,33 24,134 Q24,224 72,344 Q127,475 236,664 L271,664 L276,557 Q210,362 189,308 L203,263 Q248,266 288,325 L289,325 Q311,451 404,673 L445,658 L455,668 L522,631 L523,518 Q461,366 432.5,279.5 Q404,193 405,132 Q407,78 430,35 Q484,21 527,51 L535,37 Q512,16 510,-16 L453,-32 Q367,5 325,54 Q280,106 278,212 Q277,227 279,260 M173,133 Q164,97 166,34 Q168,-29 181,-74 Q201,-42 193,151"/> 
            <glyph glyph-name=" " unicode="&#x20;" horiz-adv-x="283" d=" M153,221 L144,185 L89,168 Q94,206 99,345 Q104,484 131,585 L120,634 Q155,655 191,668 Q210,662 235,642.5 Q260,623 274,606 Q283,597 283,591.5 Q283,586 276,566 Q220,391 208,279 Q206,257 196,246.5 Q186,236 153,221 M148,22 L106,23 L64,-12 Q63,-11 58,-6.5 Q53,-2 51,0.5 Q49,3 46,7.5 Q43,12 41.5,18 Q40,24 40,32 Q40,42 69,105 Q75,116 87,126 Q99,135 124,143.5 Q149,152 160,153 Q177,154 179,140 Q179,123 171,83.5 Q163,44 148,22"/> 
            <glyph glyph-name="!" unicode="&#x21;" horiz-adv-x="399" d=" M140,649 L236,655 Q244,656 249.5,649.5 Q255,643 249,628 Q236,601 196.5,527.5 Q157,454 148,440 Q138,426 130,424 Q122,422 96,432 Q117,551 140,649 M284,649 L380,655 Q388,656 393.5,649.5 Q399,643 393,628 Q380,601 340.5,527.5 Q301,454 292,440 Q282,426 274,424 Q266,422 241,432 Q259,542 284,649"/> 
            <glyph glyph-name="&quot;" unicode="&#x22;" horiz-adv-x="484" d=" M484,552 L462,394 L440,399 L423,476 Q387,473 342,447 Q330,323 330,241 Q376,225 407,211 Q419,205 428,191 Q436,180 445.5,155 Q455,130 455,116 Q455,93 435,79 Q389,46 318,16 L313,-71 Q313,-92 293,-90 Q282,-90 271.5,-96.5 Q261,-103 254,-103 L253,-103 Q241,-101 242,-84 L243,-11 Q188,-24 150.5,-10.5 Q113,3 69,44 L72,56 Q89,55 105,56 Q121,57 136,61 Q151,65 162,68 Q173,71 187,78.5 Q201,86 207.5,89.5 Q214,93 228.5,101.5 Q243,110 246,112 L247,155 Q175,179 137,195.5 Q99,212 78,231 Q33,271 33,335 Q34,386 60,436 Q86,486 125.5,524 Q165,562 208.5,590 Q252,618 293,633 L305,690 Q307,701 316.5,706 Q326,711 351,703 L350,653 L385,660 Q401,664 406,651 Q433,578 484,552 M261,398 Q126,307 251,270"/> 
            </font>
</defs>
</svg>
