<?xml version="1.0" standalone="no"?>
<!DOCTYPE svg PUBLIC "-//W3C//DTD SVG 1.1//EN" "http://www.w3.org/Graphics/SVG/1.1/DTD/svg11.dtd" >
<svg xmlns="http://www.w3.org/2000/svg">
    <defs>
        <font id="LubalinGraphStd-ExtraLight">
            <font-face font-family="ITC Lubalin Graph Std ExLight"
                       units-per-em="1000"
                       ascent="714"
                       descent="-286"
                       bbox="-132 -235 1185 919"
                    />
            <missing-glyph horiz-adv-x="0" />
            
            <glyph glyph-name="!" unicode="&#x21;" horiz-adv-x="140" d=" M140,715 L140,180 L111,180 L111,715 M140,78 L140,0 L111,0 L111,78"/> 
            <glyph glyph-name="&quot;" unicode="&#x22;" horiz-adv-x="243" d=" M108,428 L83,428 L79,714 L112,714 M239,428 L214,428 L210,714 L243,714"/> 
            <glyph glyph-name="#" unicode="&#x23;" horiz-adv-x="539" d=" M381,263 L338,0 L312,0 L353,263 L186,263 L145,0 L116,0 L160,263 L44,263 L48,289 L163,289 L189,441 L74,441 L79,468 L193,468 L234,714 L261,714 L220,468 L387,468 L428,714 L455,714 L414,468 L539,468 L535,441 L409,441 L384,289 L509,289 L507,263 M356,289 L383,441 L217,441 L190,289"/> 
            <glyph glyph-name="$" unicode="&#x24;" horiz-adv-x="480" d=" M104,105 L104,0 L77,0 L77,180 L105,180 Q135,34 274,34 Q357,34 403,80.5 Q449,127 449,194 Q449,270 404,306 Q359,342 268,362 Q172,384 128,424.5 Q84,465 84,541 Q84,612 132,661.5 Q180,711 257,717 L257,825 L287,825 L287,717 Q394,710 428,626 L428,711 L455,711 L455,551 L428,551 Q417,617 375,653.5 Q333,690 271,690 Q198,690 156.5,645.5 Q115,601 115,541 Q115,470 160,437.5 Q205,405 295,385 Q381,367 430.5,323.5 Q480,280 480,193 Q480,117 425.5,62.5 Q371,8 287,4 L287,-115 L257,-115 L257,4 Q202,6 163,33.5 Q124,61 104,105"/> 
            <glyph glyph-name="%" unicode="&#x25;" horiz-adv-x="800" d=" M591,715 L270,0 L241,0 L563,715 M507,138 L507,286 Q507,332 524,364.5 Q541,397 567.5,411.5 Q594,426 614.5,431.5 Q635,437 652,437 Q714,437 757,396 Q800,355 800,291 L800,138 Q800,97 783.5,66.5 Q767,36 742,21 Q717,6 695,-1 Q673,-8 655,-8 Q603,-8 555,28 Q507,64 507,138 M531,285 L531,141 Q531,84 567,51.5 Q603,19 654,19 Q697,19 736,48.5 Q775,78 775,141 L775,288 Q775,338 744,374.5 Q713,411 652,411 Q601,411 566,377.5 Q531,344 531,285 M35,423 L35,571 Q35,617 52,649.5 Q69,682 95.5,696.5 Q122,711 142.5,716.5 Q163,722 180,722 Q242,722 285,681 Q328,640 328,576 L328,423 Q328,382 311.5,351.5 Q295,321 270,306 Q245,291 223,284 Q201,277 183,277 Q131,277 83,313 Q35,349 35,423 M59,570 L59,426 Q59,369 95,336.5 Q131,304 182,304 Q225,304 264,333.5 Q303,363 303,426 L303,573 Q303,623 272,659.5 Q241,696 180,696 Q129,696 94,662.5 Q59,629 59,570"/> 
            <glyph glyph-name="&amp;" unicode="&#x26;" horiz-adv-x="691" d=" M469,220 L567,439 L691,439 L691,412 L586,412 L490,199 L676,9 L655,-11 L476,172 L453,127 Q437,97 424,78 Q411,59 387.5,35 Q364,11 330,-1 Q296,-13 253,-13 Q164,-13 107.5,42.5 Q51,98 51,187 Q51,234 68,271.5 Q85,309 116,335.5 Q147,362 176,378.5 Q205,395 244,411 L208,450 Q174,488 160,513 Q146,538 145,576 Q145,637 190,682 Q235,727 299,727 Q369,727 411.5,683 Q454,639 454,576 Q454,513 413.5,476 Q373,439 291,402 M454,193 L264,390 Q159,350 120,302 Q81,254 80,186 Q81,110 130,62 Q179,14 256,14 Q313,14 353.5,42 Q394,70 428,139 M223,474 L271,423 Q354,459 389.5,491.5 Q425,524 425,577 Q425,625 390.5,662 Q356,699 298,700 Q241,699 207.5,661.5 Q174,624 174,580 Q174,525 223,474"/> 
            <glyph glyph-name="'" unicode="&#x27;" horiz-adv-x="124" d=" M120,428 L95,428 L91,714 L124,714"/> 
            <glyph glyph-name="(" unicode="&#x28;" horiz-adv-x="380" d=" M380,757 L380,724 Q272,657 201,532.5 Q130,408 130,263 Q130,117 201,-7.5 Q272,-132 380,-199 L380,-235 Q298,-183 245,-123 Q177,-44 138,56 Q99,156 99,263 Q99,415 176.5,549.5 Q254,684 380,757"/> 
            <glyph glyph-name=")" unicode="&#x29;" horiz-adv-x="311" d=" M31,-235 L31,-202 Q139,-134 209.5,-9.5 Q280,115 280,260 Q280,405 209.5,530 Q139,655 31,722 L31,757 Q113,704 165,645 Q311,478 311,260 Q311,108 233.5,-27 Q156,-162 31,-235"/> 
            <glyph glyph-name="*" unicode="&#x2A;" horiz-adv-x="395" d=" M395,583 L253,537 Q267,518 297.5,475.5 Q328,433 342,413 Q338,410 331,405.5 Q324,401 320,398 L233,523 Q220,503 189,460 Q158,417 144,397 Q140,400 132.5,405 Q125,410 121,413 L214,537 Q188,544 135,561.5 Q82,579 69,583 Q70,588 73,594.5 Q76,601 78,606 L222,560 Q221,584 220.5,635 Q220,686 220,710 L246,710 L247,560 Q273,568 324.5,585.5 Q376,603 387,607 Q388,603 389.5,599.5 Q391,596 392.5,591 Q394,586 395,583"/> 
            <glyph glyph-name="+" unicode="&#x2B;" horiz-adv-x="488" d=" M488,276 L281,276 L281,45 L254,45 L254,276 L47,276 L47,303 L254,303 L254,534 L281,534 L281,303 L488,303"/> 
            <glyph glyph-name="," unicode="&#x2C;" horiz-adv-x="171" d=" M47,-101 L142,78 L171,78 L76,-101"/> 
            <glyph glyph-name="-" unicode="&#x2D;" horiz-adv-x="257" d=" M0,289 L257,289 L257,261 L0,261"/> 
            <glyph glyph-name="." unicode="&#x2E;" horiz-adv-x="149" d=" M149,78 L149,0 L120,0 L120,78"/> 
            <glyph glyph-name="/" unicode="&#x2F;" horiz-adv-x="436" d=" M436,715 L54,-193 L22,-193 L404,715"/> 
            <glyph glyph-name="0" unicode="&#x30;" horiz-adv-x="497" d=" M38,212 L38,495 Q38,553 57,598 Q76,643 102.5,667 Q129,691 163,706 Q197,721 221,725.5 Q245,730 265,730 Q362,730 429.5,667 Q497,604 497,503 L497,212 Q497,160 479,118.5 Q461,77 435,53 Q409,29 376.5,12.5 Q344,-4 317.5,-9.5 Q291,-15 270,-15 Q235,-15 197.5,-3.5 Q160,8 123,32.5 Q86,57 62,103.5 Q38,150 38,212 M67,498 L67,212 Q67,120 126.5,66 Q186,12 268,12 Q297,12 329,22 Q361,32 394,53.5 Q427,75 448,116 Q469,157 469,212 L469,503 Q469,583 416,643.5 Q363,704 265,704 Q182,704 124.5,649.5 Q67,595 67,498"/> 
            <glyph glyph-name="1" unicode="&#x31;" horiz-adv-x="448" d=" M107,0 L107,26 L266,26 L266,689 L107,689 L107,715 L295,715 L295,26 L448,26 L448,0"/> 
            <glyph glyph-name="2" unicode="&#x32;" horiz-adv-x="488" d=" M55,0 L55,26 L362,344 Q454,437 458,518 Q459,600 407,653 Q355,706 276,706 Q202,706 149.5,654 Q97,602 95,504 L66,504 Q68,617 132.5,674.5 Q197,732 280,732 Q370,732 429,670 Q488,608 487,513 Q483,462 458,418.5 Q433,375 382,324 L94,26 L461,26 L461,161 L487,161 L487,0"/> 
            <glyph glyph-name="3" unicode="&#x33;" horiz-adv-x="475" d=" M38,206 L67,206 Q70,112 128,62 Q186,12 258,12 Q340,12 393,63 Q446,114 446,199 Q446,275 391.5,328 Q337,381 237,381 L199,381 L199,407 L237,407 Q318,407 362,451.5 Q406,496 406,561 Q406,619 368,661 Q330,703 266,703 Q205,703 161.5,665.5 Q118,628 114,567 L87,567 Q91,643 145,686 Q199,729 263,729 Q343,729 389,679.5 Q435,630 435,560 Q435,505 402,460 Q369,415 320,397 L320,395 Q388,377 431.5,325 Q475,273 475,205 Q475,112 416,48.5 Q357,-15 255,-15 Q159,-15 99,48.5 Q39,112 38,206"/> 
            <glyph glyph-name="4" unicode="&#x34;" horiz-adv-x="534" d=" M297,0 L297,26 L390,26 L390,183 L16,183 L16,208 L380,715 L419,715 L419,209 L534,209 L534,183 L419,183 L419,26 L512,26 L512,0 M388,680 L50,209 L390,209 L390,680"/> 
            <glyph glyph-name="5" unicode="&#x35;" horiz-adv-x="497" d=" M130,714 L457,714 L457,688 L153,688 L107,417 Q180,474 264,474 Q366,474 431.5,404 Q497,334 497,233 Q497,130 425.5,58.5 Q354,-13 258,-13 Q178,-13 105,45 Q32,103 20,210 L49,210 Q60,119 122,66.5 Q184,14 259,14 Q344,14 406.5,77.5 Q469,141 469,230 Q469,320 410.5,384 Q352,448 262,448 Q163,448 96,365 L71,372"/> 
            <glyph glyph-name="6" unicode="&#x36;" horiz-adv-x="503" d=" M341,714 L151,437 L154,436 Q206,472 273,472 Q369,472 436,404.5 Q503,337 503,232 Q503,132 436,59.5 Q369,-13 268,-13 Q220,-13 180,2 Q140,17 113,40.5 Q86,64 67.5,95 Q49,126 40.5,158 Q32,190 32,221 Q32,310 93,400 L308,714 M61,223 Q61,137 117,75.5 Q173,14 267,14 Q357,14 415.5,77 Q474,140 474,229 Q474,331 411.5,388.5 Q349,446 271,446 Q186,446 123.5,386.5 Q61,327 61,223"/> 
            <glyph glyph-name="7" unicode="&#x37;" horiz-adv-x="474" d=" M92,688 L92,553 L66,553 L66,714 L474,714 L474,688 L155,0 L125,0 L443,688"/> 
            <glyph glyph-name="8" unicode="&#x38;" horiz-adv-x="483" d=" M89,550 Q89,625 141.5,676.5 Q194,728 268,728 Q345,728 396,676.5 Q447,625 447,550 Q447,499 416.5,455 Q386,411 335,389 Q401,368 442,315.5 Q483,263 483,193 Q483,107 420,47 Q357,-13 268,-13 Q175,-13 113,46.5 Q51,106 51,193 Q51,267 93.5,318 Q136,369 200,389 Q149,411 119,454.5 Q89,498 89,550 M118,549 Q118,485 161.5,442.5 Q205,400 268,400 Q332,400 375,444 Q418,488 418,549 Q418,612 376,657 Q334,702 268,702 Q202,702 160,658 Q118,614 118,549 M80,193 Q80,120 133.5,67 Q187,14 268,14 Q347,14 400.5,65.5 Q454,117 454,193 Q454,267 401.5,320.5 Q349,374 268,374 Q187,374 133.5,322.5 Q80,271 80,193"/> 
            <glyph glyph-name="9" unicode="&#x39;" horiz-adv-x="504" d=" M194,0 L385,278 L384,279 Q329,243 264,243 Q168,243 100.5,310.5 Q33,378 33,483 Q33,582 100.5,654.5 Q168,727 269,727 Q328,727 375,705 Q422,683 449,647.5 Q476,612 490,572.5 Q504,533 504,494 Q504,403 443,315 L227,0 M475,492 Q475,578 419,639.5 Q363,701 270,701 Q180,701 121,638 Q62,575 62,486 Q62,384 124.5,326.5 Q187,269 265,269 Q299,269 333.5,281.5 Q368,294 401,318.5 Q434,343 454.5,388.5 Q475,434 475,492"/> 
            <glyph glyph-name=":" unicode="&#x3A;" horiz-adv-x="149" d=" M149,78 L149,0 L120,0 L120,78 M149,496 L149,418 L120,418 L120,496"/> 
            <glyph glyph-name=";" unicode="&#x3B;" horiz-adv-x="171" d=" M148,496 L148,418 L119,418 L119,496 M47,-101 L142,78 L171,78 L76,-101"/> 
            <glyph glyph-name="&lt;" unicode="&#x3C;" horiz-adv-x="489" d=" M489,62 L46,291 L46,288 L489,518 L489,484 L108,292 L108,290 L489,95"/> 
            <glyph glyph-name="=" unicode="&#x3D;" horiz-adv-x="488" d=" M488,377 L48,377 L48,404 L488,404 M488,176 L48,176 L48,203 L488,203"/> 
            <glyph glyph-name="&gt;" unicode="&#x3E;" horiz-adv-x="489" d=" M489,291 L46,61 L46,95 L427,287 L427,290 L46,484 L46,517 L489,288"/> 
            <glyph glyph-name="?" unicode="&#x3F;" horiz-adv-x="471" d=" M277,180 L248,180 Q248,235 268,271.5 Q288,308 339,348 Q442,428 442,522 Q442,601 388.5,651.5 Q335,702 259,702 Q183,702 126.5,650.5 Q70,599 68,521 L39,521 Q43,612 106.5,672 Q170,732 260,732 Q353,732 412,672 Q471,612 471,522 Q471,414 353,326 Q308,292 292.5,260.5 Q277,229 277,180 M276,78 L276,0 L248,0 L248,78"/> 
            <glyph glyph-name="@" unicode="&#x40;" horiz-adv-x="767" d=" M767,413 Q767,314 707,236.5 Q647,159 554,159 L496,159 L508,226 Q454,148 364,148 Q294,148 249.5,199 Q205,250 205,326 Q205,419 262.5,478.5 Q320,538 397,538 Q452,538 491.5,504 Q531,470 541,414 Q541,417 545.5,441 Q550,465 554,489.5 Q558,514 560,526 L647,526 Q646,519 644.5,513.5 Q643,508 643,506 L580,506 L523,180 L559,180 Q632,180 688.5,247 Q745,314 745,412 Q745,543 658.5,624 Q572,705 431,705 Q279,705 174.5,600 Q70,495 70,350 Q70,193 164.5,100.5 Q259,8 411,8 Q541,8 653,54 L659,35 Q547,-14 410,-14 Q243,-14 144,86.5 Q45,187 45,349 Q45,505 156.5,616.5 Q268,728 431,728 Q582,728 674.5,641 Q767,554 767,413 M526,360 Q526,427 492.5,471 Q459,515 394,515 Q326,515 278.5,461 Q231,407 231,327 Q231,257 269,214.5 Q307,172 368,172 Q440,172 483,227 Q526,282 526,360"/> 
            <glyph glyph-name="A" unicode="&#x41;" horiz-adv-x="805" d=" M584,0 L584,26 L679,26 L583,248 L209,248 L113,26 L211,26 L211,0 L-10,0 L-10,26 L82,26 L366,688 L242,688 L242,714 L415,714 L710,26 L805,26 L805,0 M395,687 L221,274 L570,274"/> 
            <glyph glyph-name="B" unicode="&#x42;" horiz-adv-x="554" d=" M30,688 L30,714 L300,714 Q380,714 426,688 Q510,641 510,535 Q510,423 411,380 L411,378 Q479,358 516.5,310 Q554,262 554,190 Q553,107 497.5,53.5 Q442,0 327,0 L30,0 L30,26 L128,26 L128,688 M157,361 L157,26 L328,26 Q422,26 473,67.5 Q524,109 525,190 Q525,301 429,344 Q388,361 303,361 M157,688 L157,387 L301,387 Q376,387 408,405 Q481,446 481,539 Q481,584 459.5,618 Q438,652 408,667 Q366,688 300,688"/> 
            <glyph glyph-name="C" unicode="&#x43;" horiz-adv-x="718" d=" M685,156 L718,156 Q677,87 593.5,37 Q510,-13 406,-13 Q251,-13 143,92.5 Q35,198 35,357 Q35,516 142.5,621.5 Q250,727 406,727 Q572,726 677,610 L677,716 L703,716 L703,566 L678,566 Q636,624 566.5,662 Q497,700 406,701 Q262,701 163,602.5 Q64,504 64,357 Q64,210 163,112 Q262,14 406,14 Q464,14 515.5,31 Q567,48 602,75.5 Q637,103 654.5,120.5 Q672,138 685,156"/> 
            <glyph glyph-name="D" unicode="&#x44;" horiz-adv-x="691" d=" M128,26 L128,688 L30,688 L30,714 L305,714 Q494,714 592.5,614 Q691,514 691,357 Q691,195 588.5,97.5 Q486,0 305,0 L30,0 L30,26 M157,688 L157,26 L305,26 Q475,26 568.5,115.5 Q662,205 662,355 Q662,501 570.5,594.5 Q479,688 305,688"/> 
            <glyph glyph-name="E" unicode="&#x45;" horiz-adv-x="515" d=" M489,26 L489,170 L515,170 L515,0 L30,0 L30,26 L128,26 L128,688 L30,688 L30,714 L515,714 L515,544 L489,544 L489,688 L157,688 L157,373 L465,373 L465,347 L157,347 L157,26"/> 
            <glyph glyph-name="F" unicode="&#x46;" horiz-adv-x="505" d=" M255,26 L255,0 L30,0 L30,26 L128,26 L128,688 L30,688 L30,714 L505,714 L505,544 L479,544 L479,688 L157,688 L157,373 L455,373 L455,347 L157,347 L157,26"/> 
            <glyph glyph-name="G" unicode="&#x47;" horiz-adv-x="759" d=" M694,605 L694,716 L720,716 L720,561 L695,561 Q589,701 410,701 Q266,701 165,602.5 Q64,504 64,357 Q64,210 163,112 Q262,14 406,14 Q535,14 622.5,91.5 Q710,169 731,276 L325,276 L325,302 L759,302 L759,0 L731,0 L731,195 Q687,100 605.5,43.5 Q524,-13 406,-13 Q251,-13 143,92.5 Q35,198 35,357 Q35,516 144.5,621.5 Q254,727 410,727 Q492,727 569,695 Q646,663 694,605"/> 
            <glyph glyph-name="H" unicode="&#x48;" horiz-adv-x="683" d=" M683,688 L585,688 L585,26 L683,26 L683,0 L458,0 L458,26 L556,26 L556,347 L156,347 L156,26 L255,26 L255,0 L30,0 L30,26 L127,26 L127,688 L30,688 L30,714 L255,714 L255,688 L156,688 L156,373 L556,373 L556,688 L458,688 L458,714 L683,714"/> 
            <glyph glyph-name="I" unicode="&#x49;" horiz-adv-x="255" d=" M255,688 L156,688 L156,26 L255,26 L255,0 L30,0 L30,26 L127,26 L127,688 L30,688 L30,714 L255,714"/> 
            <glyph glyph-name="J" unicode="&#x4A;" horiz-adv-x="463" d=" M463,688 L364,688 L364,205 Q364,131 347,87 Q327,47 298,24 Q248,-13 184,-13 Q120,-13 69,26.5 Q18,66 6,136 L38,136 Q47,98 67,71 Q87,44 111,33 Q135,22 152.5,18 Q170,14 185,14 Q237,15 272,39.5 Q307,64 320,98 Q335,137 335,205 L335,688 L238,688 L238,714 L463,714"/> 
            <glyph glyph-name="K" unicode="&#x4B;" horiz-adv-x="637" d=" M637,688 L546,688 L186,356 L546,26 L637,26 L637,0 L412,0 L412,26 L506,26 L156,346 L156,26 L255,26 L255,0 L30,0 L30,26 L127,26 L127,688 L30,688 L30,714 L255,714 L255,688 L156,688 L156,364 L507,688 L412,688 L412,714 L637,714"/> 
            <glyph glyph-name="L" unicode="&#x4C;" horiz-adv-x="458" d=" M458,0 L30,0 L30,26 L126,26 L126,688 L30,688 L30,714 L255,714 L255,688 L155,688 L155,26 L432,26 L432,170 L458,170"/> 
            <glyph glyph-name="M" unicode="&#x4D;" horiz-adv-x="977" d=" M977,688 L878,688 L878,26 L977,26 L977,0 L752,0 L752,26 L849,26 L849,686 L847,686 L511,0 L494,0 L157,686 L155,686 L155,26 L255,26 L255,0 L30,0 L30,26 L126,26 L126,688 L30,688 L30,714 L173,714 L503,46 L833,714 L977,714"/> 
            <glyph glyph-name="N" unicode="&#x4E;" horiz-adv-x="786" d=" M170,714 L660,39 L662,39 L662,688 L561,688 L561,714 L786,714 L786,688 L691,688 L691,0 L654,0 L157,686 L155,686 L155,26 L255,26 L255,0 L30,0 L30,26 L126,26 L126,688 L30,688 L30,714"/> 
            <glyph glyph-name="O" unicode="&#x4F;" horiz-adv-x="776" d=" M35,198 Q35,516 142.5,621.5 Q250,727 406,727 Q561,727 668.5,621.5 Q776,516 776,357 Q776,198 668.5,92.5 Q561,-13 406,-13 Q251,-13 35,198 M64,504 Q64,210 163,112 Q262,14 406,14 Q549,14 648.5,112 Q748,210 748,357 Q748,504 648.5,602.5 Q549,701 406,701 Q262,701 64,504"/> 
            <glyph glyph-name="P" unicode="&#x50;" horiz-adv-x="544" d=" M30,714 L293,714 Q359,714 398,705 Q437,696 472,671 Q504,648 524,603.5 Q544,559 544,511 Q544,463 524,418.5 Q504,374 472,351 Q437,326 397.5,317 Q358,308 293,308 L156,308 L156,26 L255,26 L255,0 L30,0 L30,26 L127,26 L127,688 L30,688 M156,688 L156,334 L294,334 Q354,334 390,343 Q426,352 456,374 Q482,393 498.5,431 Q515,469 515,510 Q515,552 498.5,590.5 Q482,629 456,648 Q426,670 390.5,679 Q355,688 294,688"/> 
            <glyph glyph-name="Q" unicode="&#x51;" horiz-adv-x="836" d=" M810,17 L810,127 L836,127 L836,-13 Q720,-5 629,59 Q528,-13 409,-13 Q243,-13 139,96 Q35,205 35,357 Q35,516 142.5,621.5 Q250,727 406,727 Q562,727 669.5,621.5 Q777,516 777,357 Q777,198 653,77 Q722,29 810,17 M84,238 Q178,267 251,267 Q365,267 463,214 Q485,202 509,185 Q533,168 630,95 Q748,196 748,357 Q748,504 648.5,602.5 Q549,701 406,701 Q263,701 163.5,602.5 Q64,504 64,357 Q64,296 84,238 M96,210 Q120,160 155,122.5 Q190,85 223,65 Q256,45 294,32.5 Q332,20 358,17 Q384,14 410,14 Q524,14 607,77 Q503,152 489,166 Q375,241 247,241 Q182,241 96,210"/> 
            <glyph glyph-name="R" unicode="&#x52;" horiz-adv-x="614" d=" M30,714 L313,714 Q445,714 512,656 Q579,598 579,495 Q579,404 515.5,342.5 Q452,281 347,280 L338,280 L519,26 L614,26 L614,0 L504,0 L284,306 L338,306 Q437,306 493.5,358.5 Q550,411 550,494 Q550,580 492,634 Q434,688 313,688 L155,688 L155,26 L255,26 L255,0 L30,0 L30,26 L126,26 L126,688 L30,688"/> 
            <glyph glyph-name="S" unicode="&#x53;" horiz-adv-x="460" d=" M50,173 L75,173 Q85,125 106,91 Q127,57 154.5,41.5 Q182,26 205.5,20 Q229,14 253,14 Q324,14 377.5,62 Q431,110 431,184 Q431,221 417.5,251 Q404,281 387,298 Q370,315 339.5,329.5 Q309,344 292.5,349 Q276,354 246,362 Q156,385 118,412 Q54,459 53,540 Q51,625 108,675.5 Q165,726 247,726 Q293,726 333.5,706 Q374,686 399,646 L399,714 L425,714 L425,566 L400,566 Q394,590 386,609 Q378,628 361.5,651 Q345,674 315.5,687 Q286,700 245,700 Q175,700 128.5,657 Q82,614 82,545 Q82,512 94,486.5 Q106,461 122,446 Q138,431 169,417 Q200,403 220.5,397 Q241,391 280,381 Q346,362 376,344 Q460,291 460,187 Q460,102 398,44.5 Q336,-13 254,-13 Q130,-13 76,95 L76,0 L50,0"/> 
            <glyph glyph-name="T" unicode="&#x54;" horiz-adv-x="467" d=" M10,714 L467,714 L467,542 L441,542 L441,688 L253,688 L253,26 L351,26 L351,0 L126,0 L126,26 L224,26 L224,688 L36,688 L36,542 L10,542"/> 
            <glyph glyph-name="U" unicode="&#x55;" horiz-adv-x="650" d=" M650,688 L550,688 L550,251 Q551,208 547.5,176.5 Q544,145 523.5,101.5 Q503,58 464,31 Q404,-13 331,-13 Q258,-13 198,31 Q159,58 138.5,101.5 Q118,145 114.5,176.5 Q111,208 112,251 L112,688 L15,688 L15,714 L240,714 L240,688 L141,688 L141,251 Q141,208 142.5,187 Q144,166 154.5,136.5 Q165,107 186,79 Q209,49 249.5,31.5 Q290,14 333,14 Q374,14 414,31.5 Q454,49 477,79 Q498,107 508,136.5 Q518,166 519.5,187 Q521,208 521,251 L521,688 L425,688 L425,714 L650,714"/> 
            <glyph glyph-name="V" unicode="&#x56;" horiz-adv-x="789" d=" M789,688 L692,688 L397,0 L377,0 L83,688 L-10,688 L-10,714 L215,714 L215,688 L116,688 L388,48 L660,688 L564,688 L564,714 L789,714"/> 
            <glyph glyph-name="W" unicode="&#x57;" horiz-adv-x="1003" d=" M1003,688 L905,688 L707,0 L670,0 L495,638 L493,638 L320,0 L281,0 L85,688 L-10,688 L-10,714 L215,714 L215,688 L116,688 L300,40 L302,40 L484,714 L505,714 L689,40 L691,40 L875,688 L778,688 L778,714 L1003,714"/> 
            <glyph glyph-name="X" unicode="&#x58;" horiz-adv-x="671" d=" M662,688 L565,688 L347,362 L574,26 L671,26 L671,0 L446,0 L446,26 L541,26 L331,337 L121,26 L220,26 L220,0 L-5,0 L-5,26 L89,26 L315,362 L96,688 L2,688 L2,714 L227,714 L227,688 L131,688 L331,389 L531,688 L437,688 L437,714 L662,714"/> 
            <glyph glyph-name="Y" unicode="&#x59;" horiz-adv-x="664" d=" M664,688 L567,688 L341,246 L341,26 L440,26 L440,0 L215,0 L215,26 L312,26 L312,246 L86,688 L-10,688 L-10,714 L215,714 L215,688 L118,688 L327,279 L534,688 L439,688 L439,714 L664,714"/> 
            <glyph glyph-name="Z" unicode="&#x5A;" horiz-adv-x="476" d=" M26,714 L466,714 L67,26 L450,26 L450,172 L476,172 L476,0 L19,0 L419,688 L52,688 L52,542 L26,542"/> 
            <glyph glyph-name="[" unicode="&#x5B;" horiz-adv-x="332" d=" M332,757 L332,723 Q203,658 203,508 L203,16 Q203,-134 332,-198 L332,-233 Q172,-157 172,16 L172,508 Q172,526 173,538.5 Q174,551 178,576.5 Q182,602 192.5,623 Q203,644 219.5,669 Q236,694 265,716.5 Q294,739 332,757"/> 
            <glyph glyph-name="\" unicode="&#x5C;" horiz-adv-x="460" d=" M428,-192 L46,715 L78,715 L460,-192"/> 
            <glyph glyph-name="]" unicode="&#x5D;" horiz-adv-x="239" d=" M78,-233 L78,-198 Q208,-134 208,16 L208,508 Q208,659 78,723 L78,757 Q239,679 239,508 L239,16 Q239,-156 78,-233"/> 
            <glyph glyph-name="^" unicode="&#x5E;" horiz-adv-x="481" d=" M481,380 L448,380 L270,666 L267,666 L88,380 L55,380 L264,712 L273,712"/> 
            <glyph glyph-name="_" unicode="&#x5F;" horiz-adv-x="483" d=" M483,-121 L0,-121 L0,-95 L483,-95"/> 
            <glyph glyph-name="`" unicode="&#x60;" horiz-adv-x="382" d=" M153,740 L382,607 L369,584 L139,718"/> 
            <glyph glyph-name="a" unicode="&#x61;" horiz-adv-x="667" d=" M534,0 L534,128 L532,128 Q498,62 436,24.5 Q374,-13 294,-13 Q173,-13 99,67 Q25,147 25,256 Q25,366 99.5,445.5 Q174,525 294,525 Q381,525 446,481 Q511,437 532,382 L534,382 L534,512 L667,512 L667,488 L561,488 L561,24 L667,24 L667,0 M297,13 Q401,13 469,84 Q537,155 537,256 Q537,360 467,429.5 Q397,499 294,499 Q192,499 122,430.5 Q52,362 52,256 Q53,160 117,86.5 Q181,13 297,13"/> 
            <glyph glyph-name="b" unicode="&#x62;" horiz-adv-x="662" d=" M20,690 L20,714 L153,714 L153,382 L155,382 Q185,443 245.5,483.5 Q306,524 393,525 Q513,525 587.5,445.5 Q662,366 662,256 Q662,147 588,67 Q514,-13 393,-13 Q313,-13 251,24.5 Q189,62 155,128 L153,128 L153,0 L20,0 L20,24 L126,24 L126,690 M390,13 Q506,13 570,86.5 Q634,160 635,256 Q635,362 565,430.5 Q495,499 393,499 Q290,499 220,429.5 Q150,360 150,256 Q150,155 218,84 Q286,13 390,13"/> 
            <glyph glyph-name="c" unicode="&#x63;" horiz-adv-x="548" d=" M537,363 L511,363 Q487,427 430.5,463.5 Q374,500 295,499 Q197,498 122,431 Q91,402 71.5,355 Q52,308 52,256 Q52,150 123,81.5 Q194,13 294,13 Q377,14 437.5,57 Q498,100 518,161 L548,161 Q521,82 453,35 Q385,-12 294,-13 Q180,-13 102.5,62 Q25,137 25,255 Q25,370 101.5,447.5 Q178,525 294,525 Q441,525 511,420 L511,512 L537,512"/> 
            <glyph glyph-name="d" unicode="&#x64;" horiz-adv-x="667" d=" M428,690 L428,714 L561,714 L561,24 L667,24 L667,0 L534,0 L534,128 L532,128 Q498,62 436,24.5 Q374,-13 294,-13 Q173,-13 99,67 Q25,147 25,256 Q25,366 99.5,445.5 Q174,525 294,525 Q381,525 446,481 Q511,437 532,382 L534,382 L534,690 M297,13 Q401,13 469,84 Q537,155 537,256 Q537,360 467,429.5 Q397,499 294,499 Q192,499 122,430.5 Q52,362 52,256 Q53,160 117,86.5 Q181,13 297,13"/> 
            <glyph glyph-name="e" unicode="&#x65;" horiz-adv-x="564" d=" M563,253 L53,253 Q54,193 77.5,145 Q101,97 137.5,69.5 Q174,42 215,27.5 Q256,13 295,13 Q367,13 425.5,48.5 Q484,84 514,148 L544,148 Q509,69 442,27.5 Q375,-14 294,-13 Q178,-13 101.5,64 Q25,141 25,256 L25,255 Q25,370 103,447.5 Q181,525 295,525 Q402,525 480.5,454 Q559,383 564,268 M54,278 L536,278 Q532,370 459,436.5 Q386,503 295,499 Q199,499 129.5,436.5 Q60,374 54,278"/> 
            <glyph glyph-name="f" unicode="&#x66;" horiz-adv-x="291" d=" M25,0 L25,24 L131,24 L131,487 L25,487 L25,512 L131,512 L131,562 Q131,721 291,727 L291,701 Q158,697 158,565 L158,512 L269,512 L269,487 L158,487 L158,24 L269,24 L269,0"/> 
            <glyph glyph-name="g" unicode="&#x67;" horiz-adv-x="670" d=" M52,-61 L83,-61 Q114,-113 149,-140 Q216,-193 300,-193 Q394,-193 465.5,-124.5 Q537,-56 537,52 L537,128 L534,128 Q501,62 439,24.5 Q377,-13 297,-13 Q174,-13 99.5,67 Q25,147 25,256 Q25,366 100,445.5 Q175,525 297,525 Q384,525 449,481 Q514,437 535,382 L537,382 L537,512 L670,512 L670,488 L564,488 L564,57 Q564,-4 544,-53.5 Q524,-103 495,-132.5 Q466,-162 429.5,-182.5 Q393,-203 361.5,-210.5 Q330,-218 304,-218 Q224,-218 154,-176.5 Q84,-135 52,-61 M540,256 Q540,360 470,429.5 Q400,499 297,499 Q193,499 122.5,430.5 Q52,362 52,256 Q53,160 118,86.5 Q183,13 300,13 Q404,13 472,84 Q540,155 540,256"/> 
            <glyph glyph-name="h" unicode="&#x68;" horiz-adv-x="701" d=" M20,690 L20,714 L154,714 L154,413 L156,413 Q179,466 238,496 Q297,526 362,525 Q461,525 522,473 Q597,411 597,270 L597,24 L701,24 L701,0 L463,0 L463,24 L570,24 L570,270 Q570,394 507,451 Q454,499 362,499 Q265,497 209.5,443.5 Q154,390 154,295 L154,24 L258,24 L258,0 L20,0 L20,24 L127,24 L127,690"/> 
            <glyph glyph-name="i" unicode="&#x69;" horiz-adv-x="263" d=" M25,488 L25,512 L158,512 L158,24 L263,24 L263,0 L25,0 L25,24 L131,24 L131,488 M158,714 L158,627 L131,627 L131,714"/> 
            <glyph glyph-name="j" unicode="&#x6A;" horiz-adv-x="158" d=" M25,488 L25,512 L158,512 L158,6 Q158,-22 157.5,-37.5 Q157,-53 153.5,-80.5 Q150,-108 141.5,-125 Q133,-142 119,-161 Q105,-180 81,-191 Q57,-202 25,-206 L25,-177 Q71,-170 95,-144 Q119,-118 125,-85 Q131,-52 131,6 L131,488 M158,714 L158,627 L131,627 L131,714"/> 
            <glyph glyph-name="k" unicode="&#x6B;" horiz-adv-x="559" d=" M5,690 L5,714 L138,714 L138,282 L390,488 L291,488 L291,512 L529,512 L529,488 L425,488 L169,279 L446,24 L559,24 L559,0 L321,0 L321,24 L410,24 L138,274 L138,24 L243,24 L243,0 L5,0 L5,24 L111,24 L111,690"/> 
            <glyph glyph-name="l" unicode="&#x6C;" horiz-adv-x="258" d=" M20,690 L20,714 L153,714 L153,24 L258,24 L258,0 L20,0 L20,24 L126,24 L126,690"/> 
            <glyph glyph-name="m" unicode="&#x6D;" horiz-adv-x="1002" d=" M25,488 L25,512 L158,512 L158,421 L160,421 Q177,454 201.5,476.5 Q226,499 252,508.5 Q278,518 296,521.5 Q314,525 330,525 Q427,525 481,462 Q504,437 515,402 L517,402 Q530,438 553,462 Q610,525 701,525 Q789,525 841,473 Q900,417 900,287 L900,24 L1002,24 L1002,0 L764,0 L764,24 L873,24 L873,287 Q873,404 821,456 Q780,499 701,499 Q614,499 569,440 Q545,409 537,378.5 Q529,348 529,287 L529,24 L633,24 L633,0 L395,0 L395,24 L502,24 L502,287 Q505,387 466,439 Q421,496 330,499 Q294,500 259.5,484.5 Q225,469 206,443 Q158,390 158,292 L158,24 L263,24 L263,0 L25,0 L25,24 L131,24 L131,488"/> 
            <glyph glyph-name="n" unicode="&#x6E;" horiz-adv-x="706" d=" M25,488 L25,512 L158,512 L158,413 L160,413 Q183,466 242,496 Q301,526 366,525 Q465,525 526,473 Q601,411 601,270 L601,24 L706,24 L706,0 L468,0 L468,24 L574,24 L574,270 Q574,394 511,451 Q458,499 366,499 Q269,497 213.5,443.5 Q158,390 158,295 L158,24 L263,24 L263,0 L25,0 L25,24 L131,24 L131,488"/> 
            <glyph glyph-name="o" unicode="&#x6F;" horiz-adv-x="564" d=" M25,141 Q25,371 102,448 Q179,525 294,525 Q409,525 486.5,448 Q564,371 564,256 Q564,141 487,64 Q410,-13 294,-13 Q179,-13 25,141 M52,360 Q52,152 121,82.5 Q190,13 294,13 Q398,13 467.5,82.5 Q537,152 537,256 Q537,360 467.5,429.5 Q398,499 294,499 Q190,499 52,360"/> 
            <glyph glyph-name="p" unicode="&#x70;" horiz-adv-x="662" d=" M20,488 L20,512 L153,512 L153,384 L155,384 Q189,450 251,487.5 Q313,525 393,525 Q514,525 588,445 Q662,365 662,256 Q662,146 587.5,66.5 Q513,-13 393,-13 Q306,-13 241,31 Q176,75 155,130 L153,130 L153,-182 L258,-182 L258,-206 L20,-206 L20,-182 L126,-182 L126,488 M390,499 Q286,499 218,428 Q150,357 150,256 Q150,152 220,82.5 Q290,13 393,13 Q495,13 565,81.5 Q635,150 635,256 Q634,352 570,425.5 Q506,499 390,499"/> 
            <glyph glyph-name="q" unicode="&#x71;" horiz-adv-x="667" d=" M427,-206 L427,-182 L534,-182 L534,130 L532,130 Q511,75 446,31 Q381,-13 294,-13 Q174,-13 99.5,66.5 Q25,146 25,256 Q25,365 99,445 Q173,525 294,525 Q374,525 436,487.5 Q498,450 532,384 L534,384 L534,512 L667,512 L667,488 L561,488 L561,-182 L665,-182 L665,-206 M297,499 Q181,499 117,425.5 Q53,352 52,256 Q52,150 122,81.5 Q192,13 294,13 Q397,13 467,82.5 Q537,152 537,256 Q537,357 469,428 Q401,499 297,499"/> 
            <glyph glyph-name="r" unicode="&#x72;" horiz-adv-x="339" d=" M25,488 L25,512 L158,512 L158,419 L160,419 Q176,453 200,475.5 Q224,498 252.5,507.5 Q281,517 297.5,520 Q314,523 339,525 L339,498 Q273,496 227,463 Q185,425 171.5,382 Q158,339 158,277 L158,24 L263,24 L263,0 L25,0 L25,24 L131,24 L131,488"/> 
            <glyph glyph-name="s" unicode="&#x73;" horiz-adv-x="371" d=" M319,390 L319,396 Q316,448 281.5,473.5 Q247,499 199,499 Q141,499 109.5,468.5 Q78,438 78,394 Q78,352 105,329 Q132,306 204,287 Q289,265 330,232.5 Q371,200 371,132 Q371,74 325,30.5 Q279,-13 208,-13 Q109,-13 64,58 L64,0 L38,0 L38,142 L65,142 Q66,83 107.5,48 Q149,13 208,13 Q268,13 306,47.5 Q344,82 344,132 Q344,183 312.5,212 Q281,241 203,260 Q125,280 88,307.5 Q51,335 51,392 Q51,453 95,489 Q139,525 200,525 Q280,525 319,470 L319,512 L345,512 L345,390"/> 
            <glyph glyph-name="t" unicode="&#x74;" horiz-adv-x="278" d=" M120,512 L120,715 L147,715 L147,512 L278,512 L278,487 L147,487 L147,24 L278,24 L278,0 L120,0 L120,487 L7,487 L7,512"/> 
            <glyph glyph-name="u" unicode="&#x75;" horiz-adv-x="702" d=" M463,512 L596,512 L596,24 L702,24 L702,0 L569,0 L569,103 L567,103 Q544,46 486.5,16 Q429,-14 361,-13 Q262,-13 201,39 Q126,101 126,242 L126,488 L20,488 L20,512 L153,512 L153,242 Q153,119 216,61 Q269,13 361,13 Q458,14 513.5,68.5 Q569,123 569,221 L569,488 L463,488"/> 
            <glyph glyph-name="v" unicode="&#x76;" horiz-adv-x="635" d=" M397,488 L397,512 L635,512 L635,488 L533,488 L332,0 L297,0 L97,488 L-5,488 L-5,512 L233,512 L233,488 L125,488 L315,32 L502,488"/> 
            <glyph glyph-name="w" unicode="&#x77;" horiz-adv-x="897" d=" M659,488 L659,512 L897,512 L897,488 L794,488 L613,0 L582,0 L445,388 L443,388 L308,0 L277,0 L98,488 L-5,488 L-5,512 L233,512 L233,488 L128,488 L292,41 L293,41 L435,442 L456,442 L598,41 L600,41 L763,488"/> 
            <glyph glyph-name="x" unicode="&#x78;" horiz-adv-x="548" d=" M-2,0 L-2,24 L101,24 L256,257 L101,488 L-2,488 L-2,512 L236,512 L236,488 L135,488 L272,283 L410,488 L310,488 L310,512 L548,512 L548,488 L443,488 L288,257 L443,24 L548,24 L548,0 L310,0 L310,24 L410,24 L272,231 L135,24 L236,24 L236,0"/> 
            <glyph glyph-name="y" unicode="&#x79;" horiz-adv-x="634" d=" M106,-206 L106,-182 L210,-182 L290,1 L97,488 L-5,488 L-5,512 L233,512 L233,488 L127,488 L307,38 L499,488 L396,488 L396,512 L634,512 L634,488 L530,488 L241,-182 L344,-182 L344,-206"/> 
            <glyph glyph-name="z" unicode="&#x7A;" horiz-adv-x="396" d=" M22,0 L22,23 L339,487 L61,487 L61,363 L35,363 L35,512 L374,512 L374,486 L56,25 L370,25 L370,149 L396,149 L396,0"/> 
            <glyph glyph-name="{" unicode="&#x7B;" horiz-adv-x="332" d=" M332,-233 L269,-233 Q224,-233 206.5,-204 Q189,-175 189,-111 L189,66 Q189,138 172.5,180.5 Q156,223 111,245 L111,272 Q146,281 167.5,332 Q189,383 189,458 L189,639 Q189,702 206.5,729.5 Q224,757 269,757 L332,757 L332,732 L280,732 Q242,732 231,710.5 Q220,689 220,621 L220,442 Q220,387 200.5,333.5 Q181,280 142,259 Q177,243 198.5,194 Q220,145 220,82 L220,-95 Q220,-167 231.5,-187.5 Q243,-208 280,-208 L332,-208"/> 
            <glyph glyph-name="|" unicode="&#x7C;" horiz-adv-x="106" d=" M106,-235 L79,-235 L79,765 L106,765"/> 
            <glyph glyph-name="}" unicode="&#x7D;" horiz-adv-x="299" d=" M78,-233 L78,-208 L130,-208 Q168,-208 179,-187.5 Q190,-167 190,-95 L190,82 Q190,145 211.5,194.5 Q233,244 269,259 Q230,280 210,334 Q190,388 190,442 L190,621 Q190,690 179,711 Q168,732 130,732 L78,732 L78,757 L142,757 Q187,757 204,729.5 Q221,702 221,639 L221,458 Q221,383 242.5,332 Q264,281 299,272 L299,245 Q254,223 237.5,180.5 Q221,138 221,66 L221,-111 Q221,-176 203.5,-204.5 Q186,-233 142,-233"/> 
            <glyph glyph-name="~" unicode="&#x7E;" horiz-adv-x="494" d=" M494,320 Q441,242 367,242 Q316,242 261,278 Q207,313 166,313 Q106,313 62,246 L42,262 Q100,340 168,340 Q220,340 274,305 Q329,268 369,268 Q429,268 474,335"/> 
            <glyph glyph-name="¡" unicode="&#xA1;" horiz-adv-x="140" d=" M111,-202 L111,353 L140,353 L140,-202 M111,435 L111,513 L140,513 L140,435"/> 
            <glyph glyph-name="¢" unicode="&#xA2;" horiz-adv-x="471" d=" M465,453 L439,453 Q389,544 281,544 Q197,544 146,490 Q95,436 95,359 Q95,283 144,226.5 Q193,170 280,170 Q342,170 382,197 Q422,224 439,256 L471,256 Q454,222 428.5,197.5 Q403,173 376.5,162.5 Q350,152 332,147.5 Q314,143 297,142 L297,38 L268,38 L268,142 Q172,148 119,213.5 Q66,279 66,356 Q66,404 85,448.5 Q104,493 152,529.5 Q200,566 268,572 L268,664 L297,664 L297,571 Q391,558 439,496 L439,567 L464,567 L464,455 Q464,453 465,453"/> 
            <glyph glyph-name="£" unicode="&#xA3;" horiz-adv-x="526" d=" M390,380 L390,354 L155,354 L155,352 Q192,325 223.5,277.5 Q255,230 255,166 Q255,93 212,26 L300,26 Q361,26 391,36.5 Q421,47 446,70 Q497,124 497,192 Q497,217 491,241 L521,241 Q526,218 526,193 Q526,108 469,51 Q433,20 399.5,10 Q366,0 296,0 L35,0 L35,26 L178,26 Q179,28 186,38.5 Q193,49 199,59.5 Q205,70 211.5,85.5 Q218,101 222,121.5 Q226,142 226,165 Q226,221 198.5,265 Q171,309 114,354 L6,354 L6,380 L89,380 Q50,429 49,497 Q49,595 114,660.5 Q179,726 279,726 Q357,726 419.5,679.5 Q482,633 503,550 L473,550 Q454,617 401,658.5 Q348,700 279,700 Q191,698 136,643 Q81,588 78,497 Q80,431 127,380"/> 
            <glyph glyph-name="¤" unicode="&#xA4;" horiz-adv-x="560" d=" M33,113 L110,190 Q48,260 48,356 Q48,451 111,522 L33,601 L53,621 L131,542 Q202,605 297,605 Q391,605 462,542 L540,620 L560,600 L482,522 Q546,452 546,356 Q546,261 483,190 L560,114 L540,94 L463,170 Q392,107 297,107 Q201,107 130,170 L53,93 M73,448 Q73,264 139,198 Q205,132 297,132 Q389,132 455,198 Q521,264 521,356 Q521,448 455,514 Q389,580 297,580 Q205,580 73,448"/> 
            <glyph glyph-name="¥" unicode="&#xA5;" horiz-adv-x="575" d=" M575,688 L478,688 L348,395 L490,395 L490,370 L337,370 L291,266 L490,266 L490,241 L282,241 L282,26 L381,26 L381,0 L156,0 L156,26 L253,26 L253,241 L43,241 L43,266 L244,266 L198,370 L43,370 L43,395 L187,395 L57,688 L-39,688 L-39,714 L186,714 L186,688 L89,688 L268,277 L445,688 L350,688 L350,714 L575,714"/> 
            <glyph glyph-name="¦" unicode="&#xA6;" horiz-adv-x="106" d=" M106,354 L79,354 L79,765 L106,765 M106,-235 L79,-235 L79,174 L106,174"/> 
            <glyph glyph-name="§" unicode="&#xA7;" horiz-adv-x="496" d=" M460,566 L433,566 Q426,641 387,669.5 Q348,698 284,698 Q219,698 179,662 Q139,626 138,567 Q139,540 147.5,519 Q156,498 173,483.5 Q190,469 202,461.5 Q214,454 236,444 L381,376 Q496,321 496,227 Q496,181 471,141 Q446,101 404,77 Q471,30 471,-45 Q471,-119 417,-167 Q363,-215 279,-215 Q269,-215 257.5,-214 Q246,-213 219,-208.5 Q192,-204 169.5,-191.5 Q147,-179 124,-160.5 Q101,-142 87.5,-108 Q74,-74 74,-30 L74,1 L101,1 L101,-29 Q102,-109 153,-148 Q204,-187 278,-186 Q353,-186 397.5,-148.5 Q442,-111 444,-45 Q442,-4 420.5,24.5 Q399,53 344,77 L156,164 Q111,188 92,210 Q58,251 58,313 Q58,355 82.5,395.5 Q107,436 156,461 Q111,501 111,564 Q111,639 160,683 Q209,727 284,727 Q364,727 412,684.5 Q460,642 460,566 M367,351 L176,442 Q86,399 85,310 Q87,229 159,194 L377,94 Q408,107 438,144 Q468,181 469,225 Q469,253 460,274 Q451,295 431.5,310.5 Q412,326 402,332 Q392,338 367,351"/> 
            <glyph glyph-name="¨" unicode="&#xA8;" horiz-adv-x="340" d=" M224,709 L224,597 L196,597 L196,709 M340,709 L340,597 L312,597 L312,709"/> 
            <glyph glyph-name="©" unicode="&#xA9;" horiz-adv-x="754" d=" M551,246 L579,246 Q554,203 504.5,172 Q455,141 395,141 Q306,141 243.5,202 Q181,263 181,354 Q181,447 243,507.5 Q305,568 395,568 Q485,568 543,510 L543,562 L568,562 L568,467 L546,467 Q493,543 395,543 Q316,543 261.5,489 Q207,435 207,354 Q207,274 261.5,220 Q316,166 395,166 Q491,166 551,246 M386,725 Q543,725 648.5,618 Q754,511 754,357 Q754,201 647,95 Q540,-11 386,-11 Q231,-11 124,94.5 Q17,200 17,357 Q17,510 122.5,617.5 Q228,725 386,725 M533,700 Q239,700 141.5,599.5 Q44,499 44,357 Q44,213 143,113.5 Q242,14 386,14 Q530,14 628.5,113 Q727,212 727,357 Q727,500 533,700"/> 
            <glyph glyph-name="ª" unicode="&#xAA;" horiz-adv-x="433" d=" M348,398 L348,478 L346,478 Q331,441 289,413 Q251,390 200,390 Q124,390 74.5,440.5 Q25,491 25,559 Q25,629 75.5,678 Q126,727 200,727 Q267,727 310,687 Q334,664 346,638 L348,638 L348,720 L433,720 L433,697 L375,697 L375,421 L433,421 L433,398 M52,555 Q52,503 93,459 Q134,415 201,415 Q265,415 306.5,457.5 Q348,500 348,558 Q348,618 304,660 Q260,702 200,702 Q141,702 96.5,662 Q52,622 52,555"/> 
            <glyph glyph-name="«" unicode="&#xAB;" horiz-adv-x="281" d=" M47,267 L155,453 L174,428 L81,267 L174,106 L155,81 M155,267 L263,453 L281,428 L188,267 L281,106 L263,81"/> 
            <glyph glyph-name="¬" unicode="&#xAC;" horiz-adv-x="488" d=" M488,174 L461,174 L461,390 L48,390 L48,417 L488,417"/> 
            <glyph glyph-name="­" unicode="&#xAD;" horiz-adv-x="257" d=" M0,289 L257,289 L257,261 L0,261"/> 
            <glyph glyph-name="®" unicode="&#xAE;" horiz-adv-x="754" d=" M221,569 L387,569 Q464,569 503.5,535 Q543,501 543,440 Q543,387 507,350.5 Q471,314 410,312 Q426,290 458.5,245.5 Q491,201 507,178 L563,178 L563,153 L493,153 L361,337 L401,337 Q456,337 486.5,365.5 Q517,394 517,439 Q517,485 485,514.5 Q453,544 387,544 L302,544 L302,178 L359,178 L359,153 L221,153 L221,178 L276,178 L276,544 L221,544 M386,725 Q543,725 648.5,618 Q754,511 754,357 Q754,201 647,95 Q540,-11 386,-11 Q231,-11 124,94.5 Q17,200 17,357 Q17,510 122.5,617.5 Q228,725 386,725 M533,700 Q239,700 141.5,599.5 Q44,499 44,357 Q44,213 143,113.5 Q242,14 386,14 Q530,14 628.5,113 Q727,212 727,357 Q727,500 533,700"/> 
            <glyph glyph-name="¯" unicode="&#xAF;" horiz-adv-x="440" d=" M440,667 L440,638 L96,638 L96,667"/> 
            <glyph glyph-name="°" unicode="&#xB0;" horiz-adv-x="331" d=" M331,605 Q331,489 291,449 Q251,409 193,409 Q135,409 95,449 Q55,489 55,547 Q55,605 95,645 Q135,685 193,685 Q251,685 331,605 M82,594 Q82,500 114,468 Q146,436 193,436 Q240,436 272,468 Q304,500 304,547 Q304,594 272,626 Q240,658 193,658 Q146,658 82,594"/> 
            <glyph glyph-name="±" unicode="&#xB1;" horiz-adv-x="488" d=" M488,0 L47,0 L47,27 L488,27 M488,314 L281,314 L281,104 L254,104 L254,314 L47,314 L47,341 L254,341 L254,551 L281,551 L281,341 L488,341"/> 
            <glyph glyph-name="²" unicode="&#xB2;" horiz-adv-x="311" d=" M35,286 L35,308 L226,491 Q281,545 281,595 Q281,643 254.5,670.5 Q228,698 180,698 Q131,698 103,666 Q75,634 75,580 L48,580 Q48,651 89,687 Q130,723 182,723 Q245,723 276.5,686 Q308,649 308,595 Q308,561 292.5,533.5 Q277,506 245,474 L72,310 L288,310 L288,392 L311,392 L311,286"/> 
            <glyph glyph-name="³" unicode="&#xB3;" horiz-adv-x="303" d=" M35,412 L62,412 Q63,355 96.5,328.5 Q130,302 169,302 Q219,302 247.5,331.5 Q276,361 276,408 Q276,453 245,482.5 Q214,512 160,512 L131,512 L131,536 L160,536 Q206,536 230,560 Q254,584 254,616 Q254,649 232.5,672.5 Q211,696 175,697 Q139,698 114.5,675 Q90,652 88,616 L61,616 Q63,662 96.5,692 Q130,722 175,722 Q223,722 252,691 Q281,660 281,617 Q281,554 220,525 Q258,510 280.5,480 Q303,450 303,409 Q303,351 265.5,314.5 Q228,278 169,278 Q116,278 76,313 Q36,348 35,412"/> 
            <glyph glyph-name="´" unicode="&#xB4;" horiz-adv-x="397" d=" M155,607 L384,740 L397,718 L167,584"/> 
            <glyph glyph-name="µ" unicode="&#xB5;" horiz-adv-x="702" d=" M463,512 L596,512 L596,24 L702,24 L702,0 L569,0 L569,103 L567,103 Q544,46 486.5,16 Q429,-14 361,-13 Q259,-13 203,39 Q171,68 155,104 L153,104 L154,-195 L126,-195 L126,488 L20,488 L20,512 L153,512 L153,242 Q153,119 216,61 Q269,13 361,13 Q458,14 513.5,68.5 Q569,123 569,221 L569,488 L463,488"/> 
            <glyph glyph-name="¶" unicode="&#xB6;" horiz-adv-x="533" d=" M111,-122 L111,-95 L231,-95 L231,331 L212,331 Q120,331 66,386.5 Q12,442 12,522 Q12,575 36.5,618 Q61,661 99,684 Q150,715 238,715 L475,715 L475,688 L413,688 L413,-95 L533,-95 L533,-122 L384,-122 L384,686 L260,686 L260,-122"/> 
            <glyph glyph-name="·" unicode="&#xB7;" horiz-adv-x="149" d=" M149,286 L149,208 L120,208 L120,286"/> 
            <glyph glyph-name="¸" unicode="&#xB8;" horiz-adv-x="339" d=" M280,0 L255,-54 L257,-55 Q263,-52 270,-52 Q302,-52 320.5,-73 Q339,-94 339,-121 Q339,-150 320.5,-172 Q302,-194 269,-194 Q208,-194 197,-134 L223,-134 Q232,-168 269,-168 Q286,-168 299,-156 Q312,-144 313,-121 Q312,-102 299.5,-89.5 Q287,-77 269,-77 Q244,-77 229,-101 L208,-97 L252,0"/> 
            <glyph glyph-name="¹" unicode="&#xB9;" horiz-adv-x="244" d=" M35,286 L35,308 L127,308 L127,690 L35,690 L35,714 L154,714 L154,308 L244,308 L244,286"/> 
            <glyph glyph-name="º" unicode="&#xBA;" horiz-adv-x="382" d=" M43,555 Q43,628 91,677 Q139,726 211,727 Q285,727 333.5,677.5 Q382,628 382,559 Q382,485 330.5,437.5 Q279,390 211,390 Q142,390 92.5,438.5 Q43,487 43,555 M70,556 Q70,499 111,457 Q152,415 211,415 Q269,415 311.5,456 Q354,497 355,559 Q354,618 314,660 Q274,702 213,702 Q154,702 112,661.5 Q70,621 70,556"/> 
            <glyph glyph-name="»" unicode="&#xBB;" horiz-adv-x="292" d=" M185,453 L292,267 L185,81 L165,106 L258,267 L165,428 M76,453 L185,267 L76,81 L58,106 L151,267 L58,428"/> 
            <glyph glyph-name="¼" unicode="&#xBC;" horiz-adv-x="708" d=" M536,0 L536,23 L600,23 L600,107 L380,107 L380,127 L595,429 L627,429 L627,131 L708,131 L708,107 L627,107 L627,23 L688,23 L688,0 M599,394 L412,131 L600,131 L600,393 M534,715 L215,0 L187,0 L505,715 M35,286 L35,308 L127,308 L127,690 L35,690 L35,714 L154,714 L154,308 L244,308 L244,286"/> 
            <glyph glyph-name="½" unicode="&#xBD;" horiz-adv-x="719" d=" M533,715 L214,0 L186,0 L504,715 M443,0 L443,22 L634,205 Q689,259 689,309 Q689,357 662.5,384.5 Q636,412 588,412 Q539,412 511,380 Q483,348 483,294 L456,294 Q456,365 497,401 Q538,437 590,437 Q653,437 684.5,400 Q716,363 716,309 Q716,275 700.5,247.5 Q685,220 653,188 L480,24 L696,24 L696,106 L719,106 L719,0 M35,286 L35,308 L127,308 L127,690 L35,690 L35,714 L154,714 L154,308 L244,308 L244,286"/> 
            <glyph glyph-name="¾" unicode="&#xBE;" horiz-adv-x="752" d=" M572,715 L253,0 L225,0 L543,715 M580,0 L580,23 L644,23 L644,107 L424,107 L424,127 L639,429 L671,429 L671,131 L752,131 L752,107 L671,107 L671,23 L732,23 L732,0 M643,394 L456,131 L644,131 L644,393 M35,412 L62,412 Q63,355 96.5,328.5 Q130,302 169,302 Q219,302 247.5,331.5 Q276,361 276,408 Q276,453 245,482.5 Q214,512 160,512 L131,512 L131,536 L160,536 Q206,536 230,560 Q254,584 254,616 Q254,649 232.5,672.5 Q211,696 175,697 Q139,698 114.5,675 Q90,652 88,616 L61,616 Q63,662 96.5,692 Q130,722 175,722 Q223,722 252,691 Q281,660 281,617 Q281,554 220,525 Q258,510 280.5,480 Q303,450 303,409 Q303,351 265.5,314.5 Q228,278 169,278 Q116,278 76,313 Q36,348 35,412"/> 
            <glyph glyph-name="¿" unicode="&#xBF;" horiz-adv-x="479" d=" M254,352 L283,352 Q282,310 278.5,286.5 Q275,263 254.5,223.5 Q234,184 195,147 Q189,141 171,123 Q153,105 147,98 Q141,91 128.5,75.5 Q116,60 111,48.5 Q106,37 101.5,20.5 Q97,4 96,-14 Q96,-84 146,-134.5 Q196,-185 270,-185 Q336,-185 391.5,-142 Q447,-99 450,-13 L479,-13 Q477,-68 455,-109 Q433,-150 400.5,-171.5 Q368,-193 335,-203.5 Q302,-214 271,-214 Q188,-214 127.5,-157 Q67,-100 67,-12 Q67,16 76,41 Q85,66 106,92.5 Q127,119 139.5,132 Q152,145 182,174 Q216,207 233,244 Q250,281 252,300.5 Q254,320 254,352 M255,434 L255,512 L283,512 L283,434"/> 
            <glyph glyph-name="À" unicode="&#xC0;" horiz-adv-x="805" d=" M584,0 L584,26 L679,26 L583,248 L209,248 L113,26 L211,26 L211,0 L-10,0 L-10,26 L82,26 L366,688 L242,688 L242,714 L415,714 L710,26 L805,26 L805,0 M395,687 L221,274 L570,274 M247,919 L476,786 L463,763 L233,897"/> 
            <glyph glyph-name="Á" unicode="&#xC1;" horiz-adv-x="805" d=" M584,0 L584,26 L679,26 L583,248 L209,248 L113,26 L211,26 L211,0 L-10,0 L-10,26 L82,26 L366,688 L242,688 L242,714 L415,714 L710,26 L805,26 L805,0 M395,687 L221,274 L570,274 M289,786 L518,919 L531,897 L301,763"/> 
            <glyph glyph-name="Â" unicode="&#xC2;" horiz-adv-x="805" d=" M584,0 L584,26 L679,26 L583,248 L209,248 L113,26 L211,26 L211,0 L-10,0 L-10,26 L82,26 L366,688 L242,688 L242,714 L415,714 L710,26 L805,26 L805,0 M395,687 L221,274 L570,274 M382,902 L571,795 L546,781 L382,872 L217,781 L193,795"/> 
            <glyph glyph-name="Ã" unicode="&#xC3;" horiz-adv-x="805" d=" M584,0 L584,26 L679,26 L583,248 L209,248 L113,26 L211,26 L211,0 L-10,0 L-10,26 L82,26 L366,688 L242,688 L242,714 L415,714 L710,26 L805,26 L805,0 M395,687 L221,274 L570,274 M525,868 L543,850 Q499,814 460,810 Q453,809 439,809 Q407,809 372,825 Q322,843 303,843 Q293,843 287,842 Q248,838 215,808 L197,824 Q238,863 287,868 Q293,869 305,869 Q331,869 372,855 Q415,837 440,837 Q452,837 459,838 Q492,842 525,868"/> 
            <glyph glyph-name="Ä" unicode="&#xC4;" horiz-adv-x="805" d=" M584,0 L584,26 L679,26 L583,248 L209,248 L113,26 L211,26 L211,0 L-10,0 L-10,26 L82,26 L366,688 L242,688 L242,714 L415,714 L710,26 L805,26 L805,0 M395,687 L221,274 L570,274 M348,888 L348,776 L320,776 L320,888 M464,888 L464,776 L436,776 L436,888"/> 
            <glyph glyph-name="Å" unicode="&#xC5;" horiz-adv-x="805" d=" M584,0 L584,26 L679,26 L583,248 L209,248 L113,26 L211,26 L211,0 L-10,0 L-10,26 L82,26 L366,688 L242,688 L242,714 L415,714 L710,26 L805,26 L805,0 M395,687 L221,274 L570,274 M394,906 Q431,906 456.5,880 Q482,854 482,818 Q482,781 456.5,755.5 Q431,730 394,730 Q357,730 331.5,755.5 Q306,781 306,818 Q306,855 332,880.5 Q358,906 394,906 M419,880 Q369,880 351,862 Q333,844 333,819 Q333,794 351,776 Q369,758 394,758 Q419,758 437,776 Q455,794 455,819 Q455,844 419,880"/> 
            <glyph glyph-name="Æ" unicode="&#xC6;" horiz-adv-x="957" d=" M931,26 L931,170 L957,170 L957,0 L472,0 L472,26 L570,26 L570,248 L263,248 L108,26 L206,26 L206,0 L-18,0 L-18,26 L74,26 L539,688 L414,688 L414,714 L957,714 L957,544 L931,544 L931,688 L599,688 L599,373 L907,373 L907,347 L599,347 L599,26 M570,687 L281,274 L570,274"/> 
            <glyph glyph-name="Ç" unicode="&#xC7;" horiz-adv-x="718" d=" M35,357 Q35,516 142.5,621.5 Q250,727 406,727 Q572,726 677,610 L677,716 L703,716 L703,566 L678,566 Q636,624 566.5,662 Q497,700 406,701 Q262,701 163,602.5 Q64,504 64,357 Q64,210 163,112 Q262,14 406,14 Q464,14 515.5,31 Q567,48 602,75.5 Q637,103 654.5,120.5 Q672,138 685,156 L718,156 Q677,87 593.5,37 Q510,-13 406,-13 L401,-13 L381,-54 L383,-55 Q389,-52 396,-52 Q428,-52 446.5,-73 Q465,-94 465,-121 Q465,-150 446.5,-172 Q428,-194 395,-194 Q334,-194 323,-134 L350,-134 Q358,-168 395,-168 Q412,-168 425,-156 Q438,-144 439,-121 Q438,-102 425.5,-89.5 Q413,-77 395,-77 Q370,-77 355,-101 L334,-97 L374,-11 Q229,0 132,103.5 Q35,207 35,357"/> 
            <glyph glyph-name="È" unicode="&#xC8;" horiz-adv-x="515" d=" M489,26 L489,170 L515,170 L515,0 L30,0 L30,26 L128,26 L128,688 L30,688 L30,714 L515,714 L515,544 L489,544 L489,688 L157,688 L157,373 L465,373 L465,347 L157,347 L157,26 M159,919 L388,786 L375,763 L145,897"/> 
            <glyph glyph-name="É" unicode="&#xC9;" horiz-adv-x="515" d=" M489,26 L489,170 L515,170 L515,0 L30,0 L30,26 L128,26 L128,688 L30,688 L30,714 L515,714 L515,544 L489,544 L489,688 L157,688 L157,373 L465,373 L465,347 L157,347 L157,26 M181,786 L410,919 L423,897 L193,763"/> 
            <glyph glyph-name="Ê" unicode="&#xCA;" horiz-adv-x="515" d=" M489,26 L489,170 L515,170 L515,0 L30,0 L30,26 L128,26 L128,688 L30,688 L30,714 L515,714 L515,544 L489,544 L489,688 L157,688 L157,373 L465,373 L465,347 L157,347 L157,26 M284,902 L473,795 L448,781 L284,872 L119,781 L95,795"/> 
            <glyph glyph-name="Ë" unicode="&#xCB;" horiz-adv-x="515" d=" M489,26 L489,170 L515,170 L515,0 L30,0 L30,26 L128,26 L128,688 L30,688 L30,714 L515,714 L515,544 L489,544 L489,688 L157,688 L157,373 L465,373 L465,347 L157,347 L157,26 M250,888 L250,776 L222,776 L222,888 M366,888 L366,776 L338,776 L338,888"/> 
            <glyph glyph-name="Ì" unicode="&#xCC;" horiz-adv-x="266" d=" M255,688 L156,688 L156,26 L255,26 L255,0 L30,0 L30,26 L127,26 L127,688 L30,688 L30,714 L255,714 M37,919 L266,786 L253,763 L23,897"/> 
            <glyph glyph-name="Í" unicode="&#xCD;" horiz-adv-x="258" d=" M255,688 L156,688 L156,26 L255,26 L255,0 L30,0 L30,26 L127,26 L127,688 L30,688 L30,714 L255,714 M16,786 L245,919 L258,897 L28,763"/> 
            <glyph glyph-name="Î" unicode="&#xCE;" horiz-adv-x="331" d=" M255,688 L156,688 L156,26 L255,26 L255,0 L30,0 L30,26 L127,26 L127,688 L30,688 L30,714 L255,714 M142,902 L331,795 L306,781 L142,872 L-23,781 L-47,795"/> 
            <glyph glyph-name="Ï" unicode="&#xCF;" horiz-adv-x="255" d=" M255,688 L156,688 L156,26 L255,26 L255,0 L30,0 L30,26 L127,26 L127,688 L30,688 L30,714 L255,714 M98,888 L98,776 L70,776 L70,888 M214,888 L214,776 L186,776 L186,888"/> 
            <glyph glyph-name="Ð" unicode="&#xD0;" horiz-adv-x="691" d=" M128,26 L128,347 L54,347 L54,373 L128,373 L128,688 L30,688 L30,714 L305,714 Q494,714 592.5,614 Q691,514 691,357 Q691,195 588.5,97.5 Q486,0 305,0 L30,0 L30,26 M157,688 L157,373 L400,373 L400,347 L157,347 L157,26 L305,26 Q475,26 568.5,115.5 Q662,205 662,355 Q662,501 570.5,594.5 Q479,688 305,688"/> 
            <glyph glyph-name="Ñ" unicode="&#xD1;" horiz-adv-x="786" d=" M170,714 L660,39 L662,39 L662,688 L561,688 L561,714 L786,714 L786,688 L691,688 L691,0 L654,0 L157,686 L155,686 L155,26 L255,26 L255,0 L30,0 L30,26 L126,26 L126,688 L30,688 L30,714 M550,868 L568,850 Q524,814 485,810 Q478,809 464,809 Q432,809 397,825 Q347,843 328,843 Q318,843 312,842 Q273,838 240,808 L222,824 Q263,863 312,868 Q318,869 330,869 Q356,869 397,855 Q441,837 465,837 Q477,837 484,838 Q517,842 550,868"/> 
            <glyph glyph-name="Ò" unicode="&#xD2;" horiz-adv-x="776" d=" M35,198 Q35,516 142.5,621.5 Q250,727 406,727 Q561,727 668.5,621.5 Q776,516 776,357 Q776,198 668.5,92.5 Q561,-13 406,-13 Q251,-13 35,198 M64,504 Q64,210 163,112 Q262,14 406,14 Q549,14 648.5,112 Q748,210 748,357 Q748,504 648.5,602.5 Q549,701 406,701 Q262,701 64,504 M307,919 L536,786 L523,763 L293,897"/> 
            <glyph glyph-name="Ó" unicode="&#xD3;" horiz-adv-x="776" d=" M35,198 Q35,516 142.5,621.5 Q250,727 406,727 Q561,727 668.5,621.5 Q776,516 776,357 Q776,198 668.5,92.5 Q561,-13 406,-13 Q251,-13 35,198 M64,504 Q64,210 163,112 Q262,14 406,14 Q549,14 648.5,112 Q748,210 748,357 Q748,504 648.5,602.5 Q549,701 406,701 Q262,701 64,504 M298,786 L527,919 L540,897 L310,763"/> 
            <glyph glyph-name="Ô" unicode="&#xD4;" horiz-adv-x="776" d=" M35,198 Q35,516 142.5,621.5 Q250,727 406,727 Q561,727 668.5,621.5 Q776,516 776,357 Q776,198 668.5,92.5 Q561,-13 406,-13 Q251,-13 35,198 M64,504 Q64,210 163,112 Q262,14 406,14 Q549,14 648.5,112 Q748,210 748,357 Q748,504 648.5,602.5 Q549,701 406,701 Q262,701 64,504 M411,902 L600,795 L575,781 L411,872 L246,781 L222,795"/> 
            <glyph glyph-name="Õ" unicode="&#xD5;" horiz-adv-x="776" d=" M35,198 Q35,516 142.5,621.5 Q250,727 406,727 Q561,727 668.5,621.5 Q776,516 776,357 Q776,198 668.5,92.5 Q561,-13 406,-13 Q251,-13 35,198 M64,504 Q64,210 163,112 Q262,14 406,14 Q549,14 648.5,112 Q748,210 748,357 Q748,504 648.5,602.5 Q549,701 406,701 Q262,701 64,504 M564,868 L582,850 Q538,814 499,810 Q492,809 478,809 Q446,809 411,825 Q361,843 342,843 Q332,843 326,842 Q287,838 254,808 L236,824 Q277,863 326,868 Q332,869 344,869 Q370,869 411,855 Q455,837 479,837 Q491,837 498,838 Q531,842 564,868"/> 
            <glyph glyph-name="Ö" unicode="&#xD6;" horiz-adv-x="776" d=" M35,198 Q35,516 142.5,621.5 Q250,727 406,727 Q561,727 668.5,621.5 Q776,516 776,357 Q776,198 668.5,92.5 Q561,-13 406,-13 Q251,-13 35,198 M64,504 Q64,210 163,112 Q262,14 406,14 Q549,14 648.5,112 Q748,210 748,357 Q748,504 648.5,602.5 Q549,701 406,701 Q262,701 64,504 M367,888 L367,776 L339,776 L339,888 M483,888 L483,776 L455,776 L455,888"/> 
            <glyph glyph-name="×" unicode="&#xD7;" horiz-adv-x="488" d=" M487,79 L467,59 L267,258 L70,59 L50,79 L247,277 L48,478 L69,498 L267,297 L467,498 L488,479 L288,277"/> 
            <glyph glyph-name="Ø" unicode="&#xD8;" horiz-adv-x="776" d=" M195,84 L601,642 Q514,701 406,701 Q262,701 163,602.5 Q64,504 64,357 Q64,272 99,201.5 Q134,131 195,84 M624,625 L219,69 Q302,14 406,14 Q549,14 648.5,112 Q748,210 748,357 Q748,439 715,508.5 Q682,578 624,625 M617,665 L702,781 L725,764 L640,647 Q704,596 740,521 Q776,446 776,357 Q776,198 668.5,92.5 Q561,-13 406,-13 Q294,-13 203,46 L108,-83 L86,-66 L179,62 Q112,113 73.5,189.5 Q35,266 35,357 Q35,516 142.5,621.5 Q250,727 406,727 Q523,727 617,665"/> 
            <glyph glyph-name="Ù" unicode="&#xD9;" horiz-adv-x="650" d=" M650,688 L550,688 L550,251 Q551,208 547.5,176.5 Q544,145 523.5,101.5 Q503,58 464,31 Q404,-13 331,-13 Q258,-13 198,31 Q159,58 138.5,101.5 Q118,145 114.5,176.5 Q111,208 112,251 L112,688 L15,688 L15,714 L240,714 L240,688 L141,688 L141,251 Q141,208 142.5,187 Q144,166 154.5,136.5 Q165,107 186,79 Q209,49 249.5,31.5 Q290,14 333,14 Q374,14 414,31.5 Q454,49 477,79 Q498,107 508,136.5 Q518,166 519.5,187 Q521,208 521,251 L521,688 L425,688 L425,714 L650,714 M217,919 L446,786 L433,763 L203,897"/> 
            <glyph glyph-name="Ú" unicode="&#xDA;" horiz-adv-x="650" d=" M650,688 L550,688 L550,251 Q551,208 547.5,176.5 Q544,145 523.5,101.5 Q503,58 464,31 Q404,-13 331,-13 Q258,-13 198,31 Q159,58 138.5,101.5 Q118,145 114.5,176.5 Q111,208 112,251 L112,688 L15,688 L15,714 L240,714 L240,688 L141,688 L141,251 Q141,208 142.5,187 Q144,166 154.5,136.5 Q165,107 186,79 Q209,49 249.5,31.5 Q290,14 333,14 Q374,14 414,31.5 Q454,49 477,79 Q498,107 508,136.5 Q518,166 519.5,187 Q521,208 521,251 L521,688 L425,688 L425,714 L650,714 M212,786 L441,919 L454,897 L224,763"/> 
            <glyph glyph-name="Û" unicode="&#xDB;" horiz-adv-x="650" d=" M650,688 L550,688 L550,251 Q551,208 547.5,176.5 Q544,145 523.5,101.5 Q503,58 464,31 Q404,-13 331,-13 Q258,-13 198,31 Q159,58 138.5,101.5 Q118,145 114.5,176.5 Q111,208 112,251 L112,688 L15,688 L15,714 L240,714 L240,688 L141,688 L141,251 Q141,208 142.5,187 Q144,166 154.5,136.5 Q165,107 186,79 Q209,49 249.5,31.5 Q290,14 333,14 Q374,14 414,31.5 Q454,49 477,79 Q498,107 508,136.5 Q518,166 519.5,187 Q521,208 521,251 L521,688 L425,688 L425,714 L650,714 M332,902 L521,795 L496,781 L332,872 L167,781 L143,795"/> 
            <glyph glyph-name="Ü" unicode="&#xDC;" horiz-adv-x="650" d=" M650,688 L550,688 L550,251 Q551,208 547.5,176.5 Q544,145 523.5,101.5 Q503,58 464,31 Q404,-13 331,-13 Q258,-13 198,31 Q159,58 138.5,101.5 Q118,145 114.5,176.5 Q111,208 112,251 L112,688 L15,688 L15,714 L240,714 L240,688 L141,688 L141,251 Q141,208 142.5,187 Q144,166 154.5,136.5 Q165,107 186,79 Q209,49 249.5,31.5 Q290,14 333,14 Q374,14 414,31.5 Q454,49 477,79 Q498,107 508,136.5 Q518,166 519.5,187 Q521,208 521,251 L521,688 L425,688 L425,714 L650,714 M288,888 L288,776 L260,776 L260,888 M404,888 L404,776 L376,776 L376,888"/> 
            <glyph glyph-name="Ý" unicode="&#xDD;" horiz-adv-x="664" d=" M664,688 L567,688 L341,246 L341,26 L440,26 L440,0 L215,0 L215,26 L312,26 L312,246 L86,688 L-10,688 L-10,714 L215,714 L215,688 L118,688 L327,279 L534,688 L439,688 L439,714 L664,714 M225,786 L454,919 L467,897 L237,763"/> 
            <glyph glyph-name="Þ" unicode="&#xDE;" horiz-adv-x="544" d=" M156,585 L293,585 Q359,585 398,576 Q437,567 472,542 Q504,519 524,474.5 Q544,430 544,382 Q544,334 524,289.5 Q504,245 472,222 Q437,197 397.5,188 Q358,179 293,179 L156,179 L156,26 L255,26 L255,0 L30,0 L30,26 L127,26 L127,688 L30,688 L30,714 L156,714 M156,559 L156,205 L294,205 Q354,205 390,214 Q426,223 456,245 Q482,264 498.5,302 Q515,340 515,381 Q515,423 498.5,461.5 Q482,500 456,519 Q426,541 390.5,550 Q355,559 294,559"/> 
            <glyph glyph-name="ß" unicode="&#xDF;" horiz-adv-x="539" d=" M241,12 L241,45 Q285,13 349,13 Q414,13 463,59 Q512,105 512,174 Q512,258 452,307 Q425,326 395.5,335 Q366,344 306,345 L279,345 L279,370 L305,370 Q366,370 413,418 Q460,466 460,536 Q460,614 416,657.5 Q372,701 299,701 Q263,701 228.5,684 Q194,667 176,640 Q153,606 146.5,568.5 Q140,531 140,456 L140,0 L13,0 L13,23 L113,23 L113,456 Q113,538 121,579.5 Q129,621 151,650 Q174,686 214.5,706 Q255,726 298,726 Q385,726 436,673.5 Q487,621 487,536 Q487,509 480.5,481.5 Q474,454 448.5,418 Q423,382 380,365 L380,363 Q457,353 498,299.5 Q539,246 539,179 Q539,96 481,41.5 Q423,-13 346,-13 Q284,-13 241,12"/> 
            <glyph glyph-name="à" unicode="&#xE0;" horiz-adv-x="667" d=" M534,0 L534,128 L532,128 Q498,62 436,24.5 Q374,-13 294,-13 Q173,-13 99,67 Q25,147 25,256 Q25,366 99.5,445.5 Q174,525 294,525 Q381,525 446,481 Q511,437 532,382 L534,382 L534,512 L667,512 L667,488 L561,488 L561,24 L667,24 L667,0 M297,13 Q401,13 469,84 Q537,155 537,256 Q537,360 467,429.5 Q397,499 294,499 Q192,499 122,430.5 Q52,362 52,256 Q53,160 117,86.5 Q181,13 297,13 M211,740 L440,607 L427,584 L197,718"/> 
            <glyph glyph-name="á" unicode="&#xE1;" horiz-adv-x="667" d=" M534,0 L534,128 L532,128 Q498,62 436,24.5 Q374,-13 294,-13 Q173,-13 99,67 Q25,147 25,256 Q25,366 99.5,445.5 Q174,525 294,525 Q381,525 446,481 Q511,437 532,382 L534,382 L534,512 L667,512 L667,488 L561,488 L561,24 L667,24 L667,0 M297,13 Q401,13 469,84 Q537,155 537,256 Q537,360 467,429.5 Q397,499 294,499 Q192,499 122,430.5 Q52,362 52,256 Q53,160 117,86.5 Q181,13 297,13 M208,607 L437,740 L450,718 L220,584"/> 
            <glyph glyph-name="â" unicode="&#xE2;" horiz-adv-x="667" d=" M534,0 L534,128 L532,128 Q498,62 436,24.5 Q374,-13 294,-13 Q173,-13 99,67 Q25,147 25,256 Q25,366 99.5,445.5 Q174,525 294,525 Q381,525 446,481 Q511,437 532,382 L534,382 L534,512 L667,512 L667,488 L561,488 L561,24 L667,24 L667,0 M297,13 Q401,13 469,84 Q537,155 537,256 Q537,360 467,429.5 Q397,499 294,499 Q192,499 122,430.5 Q52,362 52,256 Q53,160 117,86.5 Q181,13 297,13 M326,723 L515,616 L490,602 L326,693 L161,602 L137,616"/> 
            <glyph glyph-name="ã" unicode="&#xE3;" horiz-adv-x="667" d=" M534,0 L534,128 L532,128 Q498,62 436,24.5 Q374,-13 294,-13 Q173,-13 99,67 Q25,147 25,256 Q25,366 99.5,445.5 Q174,525 294,525 Q381,525 446,481 Q511,437 532,382 L534,382 L534,512 L667,512 L667,488 L561,488 L561,24 L667,24 L667,0 M297,13 Q401,13 469,84 Q537,155 537,256 Q537,360 467,429.5 Q397,499 294,499 Q192,499 122,430.5 Q52,362 52,256 Q53,160 117,86.5 Q181,13 297,13 M479,680 L497,662 Q453,626 414,622 Q407,621 393,621 Q361,621 326,637 Q276,655 257,655 Q247,655 241,654 Q202,650 169,620 L151,636 Q192,675 241,680 Q247,681 259,681 Q285,681 326,667 Q369,649 394,649 Q406,649 413,650 Q446,654 479,680"/> 
            <glyph glyph-name="ä" unicode="&#xE4;" horiz-adv-x="667" d=" M534,0 L534,128 L532,128 Q498,62 436,24.5 Q374,-13 294,-13 Q173,-13 99,67 Q25,147 25,256 Q25,366 99.5,445.5 Q174,525 294,525 Q381,525 446,481 Q511,437 532,382 L534,382 L534,512 L667,512 L667,488 L561,488 L561,24 L667,24 L667,0 M297,13 Q401,13 469,84 Q537,155 537,256 Q537,360 467,429.5 Q397,499 294,499 Q192,499 122,430.5 Q52,362 52,256 Q53,160 117,86.5 Q181,13 297,13 M282,709 L282,597 L254,597 L254,709 M398,709 L398,597 L370,597 L370,709"/> 
            <glyph glyph-name="å" unicode="&#xE5;" horiz-adv-x="667" d=" M534,0 L534,128 L532,128 Q498,62 436,24.5 Q374,-13 294,-13 Q173,-13 99,67 Q25,147 25,256 Q25,366 99.5,445.5 Q174,525 294,525 Q381,525 446,481 Q511,437 532,382 L534,382 L534,512 L667,512 L667,488 L561,488 L561,24 L667,24 L667,0 M297,13 Q401,13 469,84 Q537,155 537,256 Q537,360 467,429.5 Q397,499 294,499 Q192,499 122,430.5 Q52,362 52,256 Q53,160 117,86.5 Q181,13 297,13 M326,749 Q363,749 388.5,723 Q414,697 414,661 Q414,624 388.5,598.5 Q363,573 326,573 Q289,573 263.5,598.5 Q238,624 238,661 Q238,698 264,723.5 Q290,749 326,749 M351,723 Q301,723 283,705 Q265,687 265,662 Q265,637 283,619 Q301,601 326,601 Q351,601 369,619 Q387,637 387,662 Q387,687 351,723"/> 
            <glyph glyph-name="æ" unicode="&#xE6;" horiz-adv-x="1060" d=" M560,512 L560,363 L562,363 Q574,396 581,408 Q657,525 792,525 Q913,525 985.5,445 Q1058,365 1060,253 L560,253 Q565,197 585,152.5 Q605,108 631,82.5 Q657,57 689.5,40.5 Q722,24 748.5,18.5 Q775,13 799,13 Q872,13 926,52.5 Q980,92 1013,148 L1045,148 Q1016,84 951.5,35.5 Q887,-13 802,-13 Q736,-14 680,15 Q624,44 587,99 Q571,122 562,156 L560,156 L560,0 L533,0 L533,156 L531,156 Q519,116 506,98 Q465,37 404.5,12.5 Q344,-12 294,-13 Q179,-13 102,64 Q25,141 25,256 L25,255 Q25,370 102,447.5 Q179,525 292,525 Q359,525 417,495 Q475,465 511,407 Q517,398 531,362 L533,362 L533,512 M561,278 L1030,278 Q1013,385 949.5,442 Q886,499 794,499 Q690,499 622,420 Q591,386 579.5,354 Q568,322 561,278 M534,256 Q534,353 463.5,426 Q393,499 295,499 Q191,499 121.5,429.5 Q52,360 52,256 Q52,152 121.5,82.5 Q191,13 295,13 Q392,13 463,85 Q534,157 534,256"/> 
            <glyph glyph-name="ç" unicode="&#xE7;" horiz-adv-x="548" d=" M537,512 L537,363 L511,363 Q487,427 430.5,463.5 Q374,500 295,499 Q197,498 122,431 Q91,402 71.5,355 Q52,308 52,256 Q52,150 123,81.5 Q194,13 294,13 Q377,14 437.5,57 Q498,100 518,161 L548,161 Q521,82 453,35 Q385,-12 294,-13 L292,-13 L273,-54 L275,-55 Q281,-52 287,-52 Q319,-52 338,-73 Q357,-94 357,-121 Q357,-150 338.5,-172 Q320,-194 286,-194 Q226,-194 215,-134 L241,-134 Q250,-168 286,-168 Q304,-168 317,-156 Q330,-144 331,-121 Q330,-102 317,-89.5 Q304,-77 286,-77 Q260,-77 247,-101 L226,-97 L265,-10 Q162,-1 93.5,72 Q25,145 25,255 Q25,370 101.5,447.5 Q178,525 294,525 Q441,525 511,420 L511,512"/> 
            <glyph glyph-name="è" unicode="&#xE8;" horiz-adv-x="564" d=" M563,253 L53,253 Q54,193 77.5,145 Q101,97 137.5,69.5 Q174,42 215,27.5 Q256,13 295,13 Q367,13 425.5,48.5 Q484,84 514,148 L544,148 Q509,69 442,27.5 Q375,-14 294,-13 Q178,-13 101.5,64 Q25,141 25,256 L25,255 Q25,370 103,447.5 Q181,525 295,525 Q402,525 480.5,454 Q559,383 564,268 M54,278 L536,278 Q532,370 459,436.5 Q386,503 295,499 Q199,499 129.5,436.5 Q60,374 54,278 M184,740 L413,607 L400,584 L170,718"/> 
            <glyph glyph-name="é" unicode="&#xE9;" horiz-adv-x="564" d=" M563,253 L53,253 Q54,193 77.5,145 Q101,97 137.5,69.5 Q174,42 215,27.5 Q256,13 295,13 Q367,13 425.5,48.5 Q484,84 514,148 L544,148 Q509,69 442,27.5 Q375,-14 294,-13 Q178,-13 101.5,64 Q25,141 25,256 L25,255 Q25,370 103,447.5 Q181,525 295,525 Q402,525 480.5,454 Q559,383 564,268 M54,278 L536,278 Q532,370 459,436.5 Q386,503 295,499 Q199,499 129.5,436.5 Q60,374 54,278 M181,607 L410,740 L423,718 L193,584"/> 
            <glyph glyph-name="ê" unicode="&#xEA;" horiz-adv-x="564" d=" M563,253 L53,253 Q54,193 77.5,145 Q101,97 137.5,69.5 Q174,42 215,27.5 Q256,13 295,13 Q367,13 425.5,48.5 Q484,84 514,148 L544,148 Q509,69 442,27.5 Q375,-14 294,-13 Q178,-13 101.5,64 Q25,141 25,256 L25,255 Q25,370 103,447.5 Q181,525 295,525 Q402,525 480.5,454 Q559,383 564,268 M54,278 L536,278 Q532,370 459,436.5 Q386,503 295,499 Q199,499 129.5,436.5 Q60,374 54,278 M299,723 L488,616 L463,602 L299,693 L134,602 L110,616"/> 
            <glyph glyph-name="ë" unicode="&#xEB;" horiz-adv-x="564" d=" M563,253 L53,253 Q54,193 77.5,145 Q101,97 137.5,69.5 Q174,42 215,27.5 Q256,13 295,13 Q367,13 425.5,48.5 Q484,84 514,148 L544,148 Q509,69 442,27.5 Q375,-14 294,-13 Q178,-13 101.5,64 Q25,141 25,256 L25,255 Q25,370 103,447.5 Q181,525 295,525 Q402,525 480.5,454 Q559,383 564,268 M54,278 L536,278 Q532,370 459,436.5 Q386,503 295,499 Q199,499 129.5,436.5 Q60,374 54,278 M250,709 L250,597 L222,597 L222,709 M366,709 L366,597 L338,597 L338,709"/> 
            <glyph glyph-name="ì" unicode="&#xEC;" horiz-adv-x="263" d=" M25,487 L25,511 L158,511 L158,24 L263,24 L263,0 L25,0 L25,24 L131,24 L131,487 M5,740 L234,607 L221,584 L-9,718"/> 
            <glyph glyph-name="í" unicode="&#xED;" horiz-adv-x="263" d=" M25,487 L25,511 L158,511 L158,24 L263,24 L263,0 L25,0 L25,24 L131,24 L131,487 M16,607 L245,740 L258,718 L28,584"/> 
            <glyph glyph-name="î" unicode="&#xEE;" horiz-adv-x="318" d=" M25,487 L25,511 L158,511 L158,24 L263,24 L263,0 L25,0 L25,24 L131,24 L131,487 M129,723 L318,616 L293,602 L129,693 L-36,602 L-60,616"/> 
            <glyph glyph-name="ï" unicode="&#xEF;" horiz-adv-x="263" d=" M25,487 L25,511 L158,511 L158,24 L263,24 L263,0 L25,0 L25,24 L131,24 L131,487 M95,709 L95,597 L67,597 L67,709 M211,709 L211,597 L183,597 L183,709"/> 
            <glyph glyph-name="ð" unicode="&#xF0;" horiz-adv-x="565" d=" M52,256 Q51,152 120.5,82.5 Q190,13 294,13 Q399,13 468.5,83 Q538,153 538,257 Q538,360 465,429.5 Q392,499 296,499 Q190,498 120.5,429 Q51,360 52,256 M293,652 L98,558 L83,577 L264,667 Q197,697 94,708 L109,731 Q227,714 295,681 L447,753 L462,734 L324,667 Q436,603 500.5,497 Q565,391 565,257 Q565,134 483,61.5 Q401,-11 294,-13 Q185,-13 105.5,58.5 Q26,130 25,255 Q27,375 102.5,449 Q178,523 295,525 Q430,525 509,414 L511,416 Q484,490 422,556.5 Q360,623 293,652"/> 
            <glyph glyph-name="ñ" unicode="&#xF1;" horiz-adv-x="706" d=" M25,488 L25,512 L158,512 L158,413 L160,413 Q183,466 242,496 Q301,526 366,525 Q465,525 526,473 Q601,411 601,270 L601,24 L706,24 L706,0 L468,0 L468,24 L574,24 L574,270 Q574,394 511,451 Q458,499 366,499 Q269,497 213.5,443.5 Q158,390 158,295 L158,24 L263,24 L263,0 L25,0 L25,24 L131,24 L131,488 M507,680 L525,662 Q481,626 442,622 Q435,621 421,621 Q389,621 354,637 Q304,655 285,655 Q275,655 269,654 Q230,650 197,620 L179,636 Q220,675 269,680 Q275,681 287,681 Q313,681 354,667 Q398,649 422,649 Q434,649 441,650 Q474,654 507,680"/> 
            <glyph glyph-name="ò" unicode="&#xF2;" horiz-adv-x="564" d=" M25,141 Q25,371 102,448 Q179,525 294,525 Q409,525 486.5,448 Q564,371 564,256 Q564,141 487,64 Q410,-13 294,-13 Q179,-13 25,141 M52,360 Q52,152 121,82.5 Q190,13 294,13 Q398,13 467.5,82.5 Q537,152 537,256 Q537,360 467.5,429.5 Q398,499 294,499 Q190,499 52,360 M195,740 L424,607 L411,584 L181,718"/> 
            <glyph glyph-name="ó" unicode="&#xF3;" horiz-adv-x="564" d=" M25,141 Q25,371 102,448 Q179,525 294,525 Q409,525 486.5,448 Q564,371 564,256 Q564,141 487,64 Q410,-13 294,-13 Q179,-13 25,141 M52,360 Q52,152 121,82.5 Q190,13 294,13 Q398,13 467.5,82.5 Q537,152 537,256 Q537,360 467.5,429.5 Q398,499 294,499 Q190,499 52,360 M192,607 L421,740 L434,718 L204,584"/> 
            <glyph glyph-name="ô" unicode="&#xF4;" horiz-adv-x="564" d=" M25,141 Q25,371 102,448 Q179,525 294,525 Q409,525 486.5,448 Q564,371 564,256 Q564,141 487,64 Q410,-13 294,-13 Q179,-13 25,141 M52,360 Q52,152 121,82.5 Q190,13 294,13 Q398,13 467.5,82.5 Q537,152 537,256 Q537,360 467.5,429.5 Q398,499 294,499 Q190,499 52,360 M290,723 L479,616 L454,602 L290,693 L125,602 L101,616"/> 
            <glyph glyph-name="õ" unicode="&#xF5;" horiz-adv-x="564" d=" M25,141 Q25,371 102,448 Q179,525 294,525 Q409,525 486.5,448 Q564,371 564,256 Q564,141 487,64 Q410,-13 294,-13 Q179,-13 25,141 M52,360 Q52,152 121,82.5 Q190,13 294,13 Q398,13 467.5,82.5 Q537,152 537,256 Q537,360 467.5,429.5 Q398,499 294,499 Q190,499 52,360 M463,680 L481,662 Q437,626 398,622 Q391,621 377,621 Q345,621 310,637 Q260,655 241,655 Q231,655 225,654 Q186,650 153,620 L135,636 Q176,675 225,680 Q231,681 243,681 Q269,681 310,667 Q354,649 378,649 Q390,649 397,650 Q430,654 463,680"/> 
            <glyph glyph-name="ö" unicode="&#xF6;" horiz-adv-x="564" d=" M25,141 Q25,371 102,448 Q179,525 294,525 Q409,525 486.5,448 Q564,371 564,256 Q564,141 487,64 Q410,-13 294,-13 Q179,-13 25,141 M52,360 Q52,152 121,82.5 Q190,13 294,13 Q398,13 467.5,82.5 Q537,152 537,256 Q537,360 467.5,429.5 Q398,499 294,499 Q190,499 52,360 M247,709 L247,597 L219,597 L219,709 M363,709 L363,597 L335,597 L335,709"/> 
            <glyph glyph-name="÷" unicode="&#xF7;" horiz-adv-x="488" d=" M299,458 Q299,446 290.5,436.5 Q282,427 269,427 Q256,427 247,436 Q238,445 238,458 Q238,471 247,479.5 Q256,488 269,488 Q281,488 290,479.5 Q299,471 299,458 M488,276 L48,276 L48,303 L488,303 M299,135 Q299,111 290.5,101.5 Q282,92 269,92 Q256,92 247,101 Q238,110 238,123 Q238,136 247,144 Q256,152 269,152 Q281,152 299,135"/> 
            <glyph glyph-name="ø" unicode="&#xF8;" horiz-adv-x="564" d=" M52,256 Q52,135 140,66 L426,461 Q370,499 294,499 Q190,499 121,429.5 Q52,360 52,256 M537,256 Q537,376 449,446 L161,50 Q220,13 294,13 Q398,13 467.5,82.5 Q537,152 537,256 M25,256 Q25,371 102,448 Q179,525 294,525 Q377,525 442,482 L502,565 L522,549 L464,468 Q564,386 564,256 Q564,141 487,64 Q410,-13 294,-13 Q213,-13 146,30 L88,-50 L67,-34 L125,45 Q25,122 25,256"/> 
            <glyph glyph-name="ù" unicode="&#xF9;" horiz-adv-x="702" d=" M463,512 L596,512 L596,24 L702,24 L702,0 L569,0 L569,103 L567,103 Q544,46 486.5,16 Q429,-14 361,-13 Q262,-13 201,39 Q126,101 126,242 L126,488 L20,488 L20,512 L153,512 L153,242 Q153,119 216,61 Q269,13 361,13 Q458,14 513.5,68.5 Q569,123 569,221 L569,488 L463,488 M245,740 L474,607 L461,584 L231,718"/> 
            <glyph glyph-name="ú" unicode="&#xFA;" horiz-adv-x="702" d=" M463,512 L596,512 L596,24 L702,24 L702,0 L569,0 L569,103 L567,103 Q544,46 486.5,16 Q429,-14 361,-13 Q262,-13 201,39 Q126,101 126,242 L126,488 L20,488 L20,512 L153,512 L153,242 Q153,119 216,61 Q269,13 361,13 Q458,14 513.5,68.5 Q569,123 569,221 L569,488 L463,488 M227,607 L456,740 L469,718 L239,584"/> 
            <glyph glyph-name="û" unicode="&#xFB;" horiz-adv-x="702" d=" M463,512 L596,512 L596,24 L702,24 L702,0 L569,0 L569,103 L567,103 Q544,46 486.5,16 Q429,-14 361,-13 Q262,-13 201,39 Q126,101 126,242 L126,488 L20,488 L20,512 L153,512 L153,242 Q153,119 216,61 Q269,13 361,13 Q458,14 513.5,68.5 Q569,123 569,221 L569,488 L463,488 M340,723 L529,616 L504,602 L340,693 L175,602 L151,616"/> 
            <glyph glyph-name="ü" unicode="&#xFC;" horiz-adv-x="702" d=" M463,512 L596,512 L596,24 L702,24 L702,0 L569,0 L569,103 L567,103 Q544,46 486.5,16 Q429,-14 361,-13 Q262,-13 201,39 Q126,101 126,242 L126,488 L20,488 L20,512 L153,512 L153,242 Q153,119 216,61 Q269,13 361,13 Q458,14 513.5,68.5 Q569,123 569,221 L569,488 L463,488 M296,709 L296,597 L268,597 L268,709 M412,709 L412,597 L384,597 L384,709"/> 
            <glyph glyph-name="ý" unicode="&#xFD;" horiz-adv-x="634" d=" M106,-206 L106,-182 L210,-182 L290,1 L97,488 L-5,488 L-5,512 L233,512 L233,488 L127,488 L307,38 L499,488 L396,488 L396,512 L634,512 L634,488 L530,488 L241,-182 L344,-182 L344,-206 M204,607 L433,740 L446,718 L216,584"/> 
            <glyph glyph-name="þ" unicode="&#xFE;" horiz-adv-x="662" d=" M20,690 L20,714 L153,714 L153,384 L155,384 Q189,450 251,487.5 Q313,525 393,525 Q514,525 588,445 Q662,365 662,256 Q662,146 587.5,66.5 Q513,-13 393,-13 Q306,-13 241,31 Q176,75 155,130 L153,130 L153,-182 L258,-182 L258,-206 L20,-206 L20,-182 L126,-182 L126,690 M390,499 Q286,499 218,428 Q150,357 150,256 Q150,152 220,82.5 Q290,13 393,13 Q495,13 565,81.5 Q635,150 635,256 Q634,352 570,425.5 Q506,499 390,499"/> 
            <glyph glyph-name="ÿ" unicode="&#xFF;" horiz-adv-x="634" d=" M106,-206 L106,-182 L210,-182 L290,1 L97,488 L-5,488 L-5,512 L233,512 L233,488 L127,488 L307,38 L499,488 L396,488 L396,512 L634,512 L634,488 L530,488 L241,-182 L344,-182 L344,-206 M270,709 L270,597 L242,597 L242,709 M386,709 L386,597 L358,597 L358,709"/> 
            <glyph glyph-name="ı" unicode="&#x131;" horiz-adv-x="263" d=" M25,487 L25,511 L158,511 L158,24 L263,24 L263,0 L25,0 L25,24 L131,24 L131,487"/> 
            <glyph glyph-name="Ł" unicode="&#x141;" horiz-adv-x="458" d=" M458,0 L30,0 L30,26 L126,26 L126,327 L48,270 L48,304 L126,361 L126,688 L30,688 L30,714 L255,714 L255,688 L155,688 L155,383 L307,495 L307,461 L155,349 L155,26 L432,26 L432,170 L458,170"/> 
            <glyph glyph-name="ł" unicode="&#x142;" horiz-adv-x="258" d=" M20,690 L20,714 L153,714 L153,417 L243,482 L243,454 L153,388 L153,24 L258,24 L258,0 L20,0 L20,24 L126,24 L126,369 L44,311 L44,340 L126,397 L126,690"/> 
            <glyph glyph-name="Œ" unicode="&#x152;" horiz-adv-x="1128" d=" M1102,26 L1102,170 L1128,170 L1128,0 L643,0 L643,26 L741,26 L741,221 L739,221 Q708,121 614.5,54 Q521,-13 403,-13 Q247,-13 141,91 Q35,195 35,357 Q35,519 140,623 Q245,727 399,727 Q519,727 612,662 Q705,597 739,494 L741,494 L741,688 L643,688 L643,714 L1128,714 L1128,544 L1102,544 L1102,688 L770,688 L770,373 L1078,373 L1078,347 L770,347 L770,26 M64,357 Q64,208 161,111 Q258,14 401,14 Q503,14 582,65 Q661,116 699.5,190.5 Q738,265 741,348 L741,369 Q739,427 716.5,484.5 Q694,542 653,591 Q612,640 546,670.5 Q480,701 401,701 Q258,701 161,604 Q64,507 64,357"/> 
            <glyph glyph-name="œ" unicode="&#x153;" horiz-adv-x="1063" d=" M1063,254 L563,254 Q568,139 638.5,76 Q709,13 801,13 Q870,13 930,48.5 Q990,84 1013,150 L1043,150 Q1032,125 1024.5,111 Q1017,97 996,72 Q975,47 947,28 Q878,-13 801,-13 Q755,-13 707.5,3.5 Q660,20 614,64 Q568,108 550,172 L548,172 Q509,75 440,31 Q371,-13 294,-13 Q179,-13 102,64 Q25,141 25,256 L25,255 Q25,370 102,447.5 Q179,525 294,525 Q418,525 498,429 Q531,385 546,337 L548,341 Q566,393 597,430.5 Q628,468 664.5,486.5 Q701,505 733.5,513 Q766,521 797,521 Q910,521 986.5,441.5 Q1063,362 1063,254 M534,254 Q534,348 466.5,423.5 Q399,499 294,499 Q190,499 121,429.5 Q52,360 52,256 Q52,152 121,82.5 Q190,13 294,13 Q396,13 465,86 Q534,159 534,254 M564,279 L1031,279 Q1029,311 1014,346.5 Q999,382 972,416.5 Q945,451 898.5,473.5 Q852,496 796,496 Q706,496 640,435 Q574,374 564,279"/> 
            <glyph glyph-name="Š" unicode="&#x160;" horiz-adv-x="460" d=" M50,173 L75,173 Q85,125 106,91 Q127,57 154.5,41.5 Q182,26 205.5,20 Q229,14 253,14 Q324,14 377.5,62 Q431,110 431,184 Q431,221 417.5,251 Q404,281 387,298 Q370,315 339.5,329.5 Q309,344 292.5,349 Q276,354 246,362 Q156,385 118,412 Q54,459 53,540 Q51,625 108,675.5 Q165,726 247,726 Q293,726 333.5,706 Q374,686 399,646 L399,714 L425,714 L425,566 L400,566 Q394,590 386,609 Q378,628 361.5,651 Q345,674 315.5,687 Q286,700 245,700 Q175,700 128.5,657 Q82,614 82,545 Q82,512 94,486.5 Q106,461 122,446 Q138,431 169,417 Q200,403 220.5,397 Q241,391 280,381 Q346,362 376,344 Q460,291 460,187 Q460,102 398,44.5 Q336,-13 254,-13 Q130,-13 76,95 L76,0 L50,0 M252,781 L62,887 L87,902 L252,811 L416,902 L440,888"/> 
            <glyph glyph-name="š" unicode="&#x161;" horiz-adv-x="395" d=" M319,390 L319,396 Q316,448 281.5,473.5 Q247,499 199,499 Q141,499 109.5,468.5 Q78,438 78,394 Q78,352 105,329 Q132,306 204,287 Q289,265 330,232.5 Q371,200 371,132 Q371,74 325,30.5 Q279,-13 208,-13 Q109,-13 64,58 L64,0 L38,0 L38,142 L65,142 Q66,83 107.5,48 Q149,13 208,13 Q268,13 306,47.5 Q344,82 344,132 Q344,183 312.5,212 Q281,241 203,260 Q125,280 88,307.5 Q51,335 51,392 Q51,453 95,489 Q139,525 200,525 Q280,525 319,470 L319,512 L345,512 L345,390 M207,602 L17,708 L42,723 L207,632 L371,723 L395,709"/> 
            <glyph glyph-name="Ÿ" unicode="&#x178;" horiz-adv-x="664" d=" M664,688 L567,688 L341,246 L341,26 L440,26 L440,0 L215,0 L215,26 L312,26 L312,246 L86,688 L-10,688 L-10,714 L215,714 L215,688 L118,688 L327,279 L534,688 L439,688 L439,714 L664,714 M282,888 L282,776 L254,776 L254,888 M398,888 L398,776 L370,776 L370,888"/> 
            <glyph glyph-name="Ž" unicode="&#x17D;" horiz-adv-x="476" d=" M26,714 L466,714 L67,26 L450,26 L450,172 L476,172 L476,0 L19,0 L419,688 L52,688 L52,542 L26,542 M237,781 L47,887 L72,902 L237,811 L401,902 L425,888"/> 
            <glyph glyph-name="ž" unicode="&#x17E;" horiz-adv-x="396" d=" M22,0 L22,23 L339,487 L61,487 L61,363 L35,363 L35,512 L374,512 L374,486 L56,25 L370,25 L370,149 L396,149 L396,0 M198,602 L8,708 L33,723 L198,632 L362,723 L386,709"/> 
            <glyph glyph-name="ƒ" unicode="&#x192;" horiz-adv-x="524" d=" M344,543 L480,543 L473,517 L340,517 L249,36 Q231,-55 194,-101 Q157,-147 72,-147 Q41,-147 14,-139 L20,-112 Q56,-121 72,-121 Q136,-121 169,-87 Q202,-53 218,30 L310,517 L171,517 L177,543 L314,543 L324,592 Q342,701 391,747 Q438,785 497,785 Q512,785 524,782 L518,757 Q504,759 495,759 Q437,754 408,725 Q399,716 391,704 Q383,692 378.5,682.5 Q374,673 369,657 Q364,641 362.5,634.5 Q361,628 357,611 Q353,594 353,592"/> 
            <glyph glyph-name="ˆ" unicode="&#x2C6;" horiz-adv-x="457" d=" M268,723 L457,616 L432,602 L268,693 L103,602 L79,616"/> 
            <glyph glyph-name="ˇ" unicode="&#x2C7;" horiz-adv-x="457" d=" M269,602 L79,708 L104,723 L269,632 L433,723 L457,709"/> 
            <glyph glyph-name="ˉ" unicode="&#x2C9;" horiz-adv-x="440" d=" M440,667 L440,638 L96,638 L96,667"/> 
            <glyph glyph-name="˘" unicode="&#x2D8;" horiz-adv-x="453" d=" M83,692 L120,692 Q155,640 268,640 Q319,640 353,650 Q387,660 396.5,669 Q406,678 416,692 L453,692 Q444,676 435.5,666.5 Q427,657 407,642 Q387,627 352,619.5 Q317,612 268,612 Q128,612 83,692"/> 
            <glyph glyph-name="˙" unicode="&#x2D9;" horiz-adv-x="283" d=" M283,709 L283,597 L253,597 L253,709"/> 
            <glyph glyph-name="˚" unicode="&#x2DA;" horiz-adv-x="356" d=" M268,751 Q305,751 330.5,725 Q356,699 356,663 Q356,626 330.5,600.5 Q305,575 268,575 Q231,575 205.5,600.5 Q180,626 180,663 Q180,700 206,725.5 Q232,751 268,751 M293,725 Q243,725 225,707 Q207,689 207,664 Q207,639 225,621 Q243,603 268,603 Q293,603 311,621 Q329,639 329,664 Q329,689 293,725"/> 
            <glyph glyph-name="˛" unicode="&#x2DB;" horiz-adv-x="345" d=" M275,0 L303,0 Q267,-26 254,-37.5 Q241,-49 230.5,-65.5 Q220,-82 220,-102 Q220,-133 241,-152 Q262,-171 291,-171 Q312,-171 345,-158 L345,-186 Q321,-199 291,-199 Q245,-199 217.5,-173 Q190,-147 190,-105 Q190,-39 275,0"/> 
            <glyph glyph-name="˜" unicode="&#x2DC;" horiz-adv-x="439" d=" M421,680 L439,662 Q395,626 356,622 Q349,621 335,621 Q303,621 268,637 Q218,655 199,655 Q189,655 183,654 Q144,650 111,620 L93,636 Q134,675 183,680 Q189,681 201,681 Q227,681 268,667 Q311,649 336,649 Q348,649 355,650 Q388,654 421,680"/> 
            <glyph glyph-name="˝" unicode="&#x2DD;" horiz-adv-x="480" d=" M139,607 L357,761 L373,740 L155,584 M246,607 L465,761 L480,740 L262,584"/> 
            <glyph glyph-name="Ω" unicode="&#x3A9;" horiz-adv-x="684" d=" M684,0 L464,0 L464,33 Q490,53 510,71 Q530,89 557.5,122.5 Q585,156 603.5,190 Q622,224 635,274 Q648,324 648,378 Q648,510 575,595 Q502,680 370,680 Q246,680 166.5,596 Q87,512 87,381 Q87,176 273,33 L273,0 L53,0 L53,33 L219,33 Q152,85 102,171 Q52,257 52,379 Q52,523 141.5,617.5 Q231,712 370,712 Q516,712 599.5,620.5 Q683,529 683,380 Q683,266 632,175.5 Q581,85 515,33 L684,33"/> 
            <glyph glyph-name="μ" unicode="&#x3BC;" horiz-adv-x="702" d=" M463,512 L596,512 L596,24 L702,24 L702,0 L569,0 L569,103 L567,103 Q544,46 486.5,16 Q429,-14 361,-13 Q259,-13 203,39 Q171,68 155,104 L153,104 L154,-195 L126,-195 L126,488 L20,488 L20,512 L153,512 L153,242 Q153,119 216,61 Q269,13 361,13 Q458,14 513.5,68.5 Q569,123 569,221 L569,488 L463,488"/> 
            <glyph glyph-name="π" unicode="&#x3C0;" horiz-adv-x="631" d=" M619,35 L629,4 Q609,-6 581,-6 Q530,-6 503.5,25 Q477,56 477,110 L477,465 L215,465 L215,123 Q215,62 203,0 L165,0 Q178,51 178,122 L178,465 Q119,465 64,443 Q57,460 51,476 Q108,500 185,500 L631,500 L631,465 L513,465 L513,111 Q513,29 586,29 Q602,29 619,35"/> 
            <glyph glyph-name="–" unicode="&#x2013;" horiz-adv-x="449" d=" M34,281 L449,281 L449,253 L34,253"/> 
            <glyph glyph-name="—" unicode="&#x2014;" horiz-adv-x="932" d=" M34,281 L932,281 L932,253 L34,253"/> 
            <glyph glyph-name="‘" unicode="&#x2018;" horiz-adv-x="181" d=" M119,715 L181,566 L149,566 L87,715"/> 
            <glyph glyph-name="’" unicode="&#x2019;" horiz-adv-x="181" d=" M87,566 L149,715 L181,715 L119,566"/> 
            <glyph glyph-name="‚" unicode="&#x201A;" horiz-adv-x="181" d=" M87,-70 L149,79 L181,79 L119,-70"/> 
            <glyph glyph-name="“" unicode="&#x201C;" horiz-adv-x="269" d=" M121,715 L183,566 L151,566 L89,715 M207,715 L269,566 L237,566 L175,715"/> 
            <glyph glyph-name="”" unicode="&#x201D;" horiz-adv-x="269" d=" M175,566 L237,715 L269,715 L207,566 M89,566 L151,715 L183,715 L121,566"/> 
            <glyph glyph-name="„" unicode="&#x201E;" horiz-adv-x="269" d=" M175,-70 L237,79 L269,79 L207,-70 M89,-70 L151,79 L183,79 L121,-70"/> 
            <glyph glyph-name="†" unicode="&#x2020;" horiz-adv-x="474" d=" M291,715 L291,508 L474,508 L474,479 L291,479 L291,-97 L262,-97 L262,479 L80,479 L80,508 L262,508 L262,715"/> 
            <glyph glyph-name="‡" unicode="&#x2021;" horiz-adv-x="474" d=" M293,715 L293,536 L474,536 L474,507 L293,507 L293,111 L474,111 L474,82 L293,82 L293,-97 L264,-97 L264,82 L80,82 L80,111 L264,111 L264,507 L80,507 L80,536 L264,536 L264,715"/> 
            <glyph glyph-name="•" unicode="&#x2022;" horiz-adv-x="328" d=" M183,514 Q243,514 285.5,470 Q328,426 328,364 Q328,302 285,258 Q242,214 182,214 Q120,214 77,258.5 Q34,303 34,364 Q34,425 77,469.5 Q120,514 183,514"/> 
            <glyph glyph-name="…" unicode="&#x2026;" horiz-adv-x="819" d=" M176,79 L176,0 L147,0 L147,79 M497,79 L497,0 L469,0 L469,79 M819,79 L819,0 L790,0 L790,79"/> 
            <glyph glyph-name="‰" unicode="&#x2030;" horiz-adv-x="1185" d=" M591,715 L270,0 L241,0 L563,715 M892,138 L892,286 Q892,332 909,364.5 Q926,397 952.5,411.5 Q979,426 999.5,431.5 Q1020,437 1037,437 Q1099,437 1142,396 Q1185,355 1185,291 L1185,138 Q1185,97 1168.5,66.5 Q1152,36 1127,21 Q1102,6 1080,-1 Q1058,-8 1040,-8 Q988,-8 940,28 Q892,64 892,138 M916,285 L916,141 Q916,84 952,51.5 Q988,19 1039,19 Q1082,19 1121,48.5 Q1160,78 1160,141 L1160,288 Q1160,338 1129,374.5 Q1098,411 1037,411 Q986,411 951,377.5 Q916,344 916,285 M35,423 L35,571 Q35,617 52,649.5 Q69,682 95.5,696.5 Q122,711 142.5,716.5 Q163,722 180,722 Q242,722 285,681 Q328,640 328,576 L328,423 Q328,382 311.5,351.5 Q295,321 270,306 Q245,291 223,284 Q201,277 183,277 Q131,277 83,313 Q35,349 35,423 M59,570 L59,426 Q59,369 95,336.5 Q131,304 182,304 Q225,304 264,333.5 Q303,363 303,426 L303,573 Q303,623 272,659.5 Q241,696 180,696 Q129,696 94,662.5 Q59,629 59,570 M507,138 L507,286 Q507,332 524,364.5 Q541,397 567.5,411.5 Q594,426 614.5,431.5 Q635,437 652,437 Q714,437 757,396 Q800,355 800,291 L800,138 Q800,97 783.5,66.5 Q767,36 742,21 Q717,6 695,-1 Q673,-8 655,-8 Q603,-8 555,28 Q507,64 507,138 M531,285 L531,141 Q531,84 567,51.5 Q603,19 654,19 Q697,19 736,48.5 Q775,78 775,141 L775,288 Q775,338 744,374.5 Q713,411 652,411 Q601,411 566,377.5 Q531,344 531,285"/> 
            <glyph glyph-name="‹" unicode="&#x2039;" horiz-adv-x="178" d=" M51,266 L158,453 L178,428 L85,266 L178,106 L158,81"/> 
            <glyph glyph-name="›" unicode="&#x203A;" horiz-adv-x="188" d=" M81,453 L188,266 L81,81 L62,106 L155,266 L62,428"/> 
            <glyph glyph-name="⁄" unicode="&#x2044;" horiz-adv-x="214" d=" M214,715 L-104,0 L-132,0 L185,715"/> 
            <glyph glyph-name="€" unicode="&#x20AC;" horiz-adv-x="518" d=" M405,312 L400,287 L135,287 Q143,136 192,71 Q236,14 326,14 Q405,14 447,56 Q477,86 489,147 L518,147 Q506,74 465,35 Q415,-13 325,-13 Q224,-13 168,56 Q113,125 105,287 L26,287 L31,312 L104,312 L104,349 Q104,393 105,416 L26,416 L31,441 L106,441 Q113,571 160,644 Q215,727 326,727 Q445,727 488,641 L488,714 L515,714 L515,565 L487,565 Q477,627 440,661 Q398,701 325,701 Q232,701 184,628 Q142,564 135,441 L429,441 L424,416 L134,416 Q133,396 133,358 Q133,351 133.5,335.5 Q134,320 134,312"/> 
            <glyph glyph-name="ℓ" unicode="&#x2113;" horiz-adv-x="417" d=" M417,61 Q355,-12 286,-12 Q240,-12 213,18 Q181,52 181,124 L181,268 Q170,256 148,231.5 Q126,207 115,195 Q106,203 86,219 Q150,291 181,327 L181,575 Q181,650 208,689 Q235,728 283,728 Q327,728 347.5,698 Q368,668 368,634 Q368,520 257,369 Q253,364 239.5,346 Q226,328 220,321 L220,114 Q220,69 238.5,46 Q257,23 290,23 Q338,23 392,84 Q410,68 417,61 M324,629 Q324,657 313,675 Q302,693 281,693 Q220,693 220,565 L220,384 Q223,388 233.5,402 Q244,416 248,422 Q324,541 324,629"/> 
            <glyph glyph-name="™" unicode="&#x2122;" horiz-adv-x="916" d=" M354,692 L354,715 L454,715 L635,327 L817,715 L916,715 L916,692 L852,692 L852,309 L913,309 L913,286 L762,286 L762,309 L825,309 L825,677 L823,677 L643,286 L627,286 L446,676 L444,676 L444,309 L505,309 L505,286 L354,286 L354,309 L418,309 L418,692 M96,286 L96,309 L158,309 L158,692 L41,692 L41,602 L19,602 L20,715 L325,715 L325,602 L304,602 L304,692 L185,692 L185,309 L247,309 L247,286"/> 
            <glyph glyph-name="Ω" unicode="&#x2126;" horiz-adv-x="684" d=" M684,0 L464,0 L464,33 Q490,53 510,71 Q530,89 557.5,122.5 Q585,156 603.5,190 Q622,224 635,274 Q648,324 648,378 Q648,510 575,595 Q502,680 370,680 Q246,680 166.5,596 Q87,512 87,381 Q87,176 273,33 L273,0 L53,0 L53,33 L219,33 Q152,85 102,171 Q52,257 52,379 Q52,523 141.5,617.5 Q231,712 370,712 Q516,712 599.5,620.5 Q683,529 683,380 Q683,266 632,175.5 Q581,85 515,33 L684,33"/> 
            <glyph glyph-name="℮" unicode="&#x212E;" horiz-adv-x="646" d=" M646,309 L170,309 L170,96 Q241,27 339,27 Q419,27 473,63 Q527,99 569,167 Q575,163 587.5,156 Q600,149 606,145 Q555,67 493.5,27.5 Q432,-12 339,-12 Q205,-12 121.5,81 Q38,174 38,310 Q38,447 121,539 Q204,631 342,631 Q480,631 562,539 Q644,447 646,309 M511,348 L511,523 Q439,593 341,593 Q238,593 170,524 L170,348"/> 
            <glyph glyph-name="∂" unicode="&#x2202;" horiz-adv-x="536" d=" M536,497 Q536,407 510,303 Q495,246 471,194 Q447,142 412.5,94.5 Q378,47 329.5,18.5 Q281,-10 226,-10 Q152,-10 106,39.5 Q60,89 60,173 Q60,314 146,408 Q232,502 338,502 Q397,502 436,476.5 Q475,451 491,414 L493,414 Q499,458 499,493 Q499,588 457,639 Q415,690 339,690 Q284,690 236,661 Q233,666 228,676.5 Q223,687 220,692 Q270,724 343,724 Q430,724 483,665.5 Q536,607 536,497 M485,358 Q472,405 433.5,436 Q395,467 334,467 Q238,467 167.5,382.5 Q97,298 97,174 Q97,106 133,65 Q169,24 228,24 Q314,24 383,113 Q452,202 485,358"/> 
            <glyph glyph-name="∆" unicode="&#x2206;" horiz-adv-x="602" d=" M602,0 L34,0 L34,26 Q78,139 167.5,363.5 Q257,588 302,700 L334,700 Q379,587 468,362.5 Q557,138 602,26 M556,35 Q483,222 335,598 Q331,610 326,626.5 Q321,643 319,650 L317,650 Q309,619 300,598 Q256,484 79,35"/> 
            <glyph glyph-name="∏" unicode="&#x220F;" horiz-adv-x="653" d=" M653,-230 L617,-230 L617,668 L136,668 L136,-230 L99,-230 L99,700 L653,700"/> 
            <glyph glyph-name="∑" unicode="&#x2211;" horiz-adv-x="636" d=" M636,-230 L21,-230 L21,-219 Q297,111 405,239 Q345,313 226.5,461 Q108,609 49,683 L49,700 L607,700 L607,667 L108,667 Q165,596 279.5,453 Q394,310 451,239 Q207,-51 86,-197 L636,-197"/> 
            <glyph glyph-name="−" unicode="&#x2212;" horiz-adv-x="488" d=" M488,276 L47,276 L47,303 L488,303"/> 
            <glyph glyph-name="∕" unicode="&#x2215;" horiz-adv-x="214" d=" M214,715 L-104,0 L-132,0 L185,715"/> 
            <glyph glyph-name="∙" unicode="&#x2219;" horiz-adv-x="149" d=" M149,286 L149,208 L120,208 L120,286"/> 
            <glyph glyph-name="√" unicode="&#x221A;" horiz-adv-x="545" d=" M545,728 Q523,655 326,-12 L293,-12 Q266,50 212.5,173 Q159,296 132,357 Q114,346 76,324 Q73,329 68.5,339.5 Q64,350 62,355 Q77,363 107.5,380 Q138,397 153,405 Q179,347 230.5,229.5 Q282,112 308,54 Q440,504 505,728"/> 
            <glyph glyph-name="∞" unicode="&#x221E;" horiz-adv-x="764" d=" M764,295 Q764,229 722.5,183 Q681,137 607,137 Q489,137 412,260 L410,260 Q373,204 323.5,170.5 Q274,137 219,137 Q142,137 100,181 Q58,225 58,289 Q58,358 99.5,403 Q141,448 215,448 Q330,448 411,325 L413,325 Q494,448 602,448 Q674,448 719,406.5 Q764,365 764,295 M724,241 Q724,345 694.5,379 Q665,413 606,413 Q511,413 430,293 Q465,235 511,203.5 Q557,172 604,172 Q665,172 724,241 M393,293 Q360,347 311.5,380 Q263,413 217,413 Q157,413 128,378 Q99,343 99,289 Q99,237 132.5,204.5 Q166,172 216,172 Q314,172 393,293"/> 
            <glyph glyph-name="∫" unicode="&#x222B;" horiz-adv-x="434" d=" M424,703 Q402,714 373,714 Q274,714 274,601 L274,-81 Q274,-152 236.5,-189 Q199,-226 138,-226 Q101,-226 77,-215 Q83,-193 87,-182 Q113,-192 139,-192 Q237,-192 237,-79 L237,605 Q237,672 274.5,710 Q312,748 374,748 Q412,748 434,736 Q433,730 429,719 Q425,708 424,703"/> 
            <glyph glyph-name="≈" unicode="&#x2248;" horiz-adv-x="494" d=" M494,419 Q440,341 367,341 Q316,341 261,377 Q205,413 166,413 Q107,413 62,345 L42,361 Q69,398 98,419 Q127,440 168,440 Q222,440 274,404 Q331,368 369,368 Q429,368 474,435 M494,220 Q441,142 367,142 Q316,142 261,178 Q207,213 166,213 Q106,213 62,146 L42,163 Q98,240 168,240 Q223,240 274,205 Q331,169 369,169 Q430,169 474,236"/> 
            <glyph glyph-name="≠" unicode="&#x2260;" horiz-adv-x="488" d=" M488,176 L222,176 L147,19 L120,19 L197,176 L47,176 L47,203 L210,203 L293,377 L47,377 L47,404 L306,404 L378,554 L404,554 L331,404 L488,404 L488,377 L318,377 L235,203 L488,203"/> 
            <glyph glyph-name="≤" unicode="&#x2264;" horiz-adv-x="488" d=" M488,0 L47,0 L47,27 L488,27 M488,123 L47,339 L47,336 L488,552 L488,519 L114,340 L114,337 L488,157"/> 
            <glyph glyph-name="≥" unicode="&#x2265;" horiz-adv-x="488" d=" M488,0 L47,0 L47,27 L488,27 M488,339 L47,123 L47,157 L420,335 L420,338 L47,518 L47,552 L488,336"/> 
            <glyph glyph-name="◊" unicode="&#x25CA;" horiz-adv-x="531" d=" M531,350 Q430,191 308,0 L283,0 Q246,58 171.5,174.5 Q97,291 60,349 Q97,408 171.5,525 Q246,642 283,700 L308,700 Q430,509 531,350 M486,349 Q459,392 296,648 Q193,488 105,349 Q231,151 295,51 Q458,306 486,349"/> 
            <glyph glyph-name="ﬁ" unicode="&#xFB01;" horiz-adv-x="427" d=" M109,487 L25,487 L25,512 L109,512 L109,562 Q109,720 269,727 L269,701 Q250,699 240.5,698 Q231,697 207.5,689 Q184,681 171,668 Q158,655 146.5,628.5 Q135,602 136,565 L136,512 L322,512 L322,24 L427,24 L427,0 L189,0 L189,24 L295,24 L295,487 L136,487 L136,0 L25,0 L25,24 L109,24 M322,715 L322,627 L295,627 L295,715"/> 
            <glyph glyph-name="ﬂ" unicode="&#xFB02;" horiz-adv-x="427" d=" M109,487 L25,487 L25,512 L109,512 L109,562 Q109,720 269,727 L269,701 Q250,699 240.5,698 Q231,697 207.5,689 Q184,681 171,668 Q158,655 146.5,628.5 Q135,602 136,565 L136,512 L295,512 L295,715 L322,715 L322,24 L427,24 L427,0 L189,0 L189,24 L295,24 L295,487 L136,487 L136,0 L25,0 L25,24 L109,24"/> 
            <glyph glyph-name=" " unicode="&#x20;" horiz-adv-x="140" d=" M140,715 L140,180 L111,180 L111,715 M140,78 L140,0 L111,0 L111,78"/> 
            <glyph glyph-name="!" unicode="&#x21;" horiz-adv-x="243" d=" M108,428 L83,428 L79,714 L112,714 M239,428 L214,428 L210,714 L243,714"/> 
            <glyph glyph-name="&quot;" unicode="&#x22;" horiz-adv-x="539" d=" M381,263 L338,0 L312,0 L353,263 L186,263 L145,0 L116,0 L160,263 L44,263 L48,289 L163,289 L189,441 L74,441 L79,468 L193,468 L234,714 L261,714 L220,468 L387,468 L428,714 L455,714 L414,468 L539,468 L535,441 L409,441 L384,289 L509,289 L507,263 M356,289 L383,441 L217,441 L190,289"/> 
            <glyph glyph-name="#" unicode="&#x23;" horiz-adv-x="480" d=" M104,105 L104,0 L77,0 L77,180 L105,180 Q135,34 274,34 Q357,34 403,80.5 Q449,127 449,194 Q449,270 404,306 Q359,342 268,362 Q172,384 128,424.5 Q84,465 84,541 Q84,612 132,661.5 Q180,711 257,717 L257,825 L287,825 L287,717 Q394,710 428,626 L428,711 L455,711 L455,551 L428,551 Q417,617 375,653.5 Q333,690 271,690 Q198,690 156.5,645.5 Q115,601 115,541 Q115,470 160,437.5 Q205,405 295,385 Q381,367 430.5,323.5 Q480,280 480,193 Q480,117 425.5,62.5 Q371,8 287,4 L287,-115 L257,-115 L257,4 Q202,6 163,33.5 Q124,61 104,105"/> 
            <glyph glyph-name="$" unicode="&#x24;" horiz-adv-x="800" d=" M591,715 L270,0 L241,0 L563,715 M507,138 L507,286 Q507,332 524,364.5 Q541,397 567.5,411.5 Q594,426 614.5,431.5 Q635,437 652,437 Q714,437 757,396 Q800,355 800,291 L800,138 Q800,97 783.5,66.5 Q767,36 742,21 Q717,6 695,-1 Q673,-8 655,-8 Q603,-8 555,28 Q507,64 507,138 M531,285 L531,141 Q531,84 567,51.5 Q603,19 654,19 Q697,19 736,48.5 Q775,78 775,141 L775,288 Q775,338 744,374.5 Q713,411 652,411 Q601,411 566,377.5 Q531,344 531,285 M35,423 L35,571 Q35,617 52,649.5 Q69,682 95.5,696.5 Q122,711 142.5,716.5 Q163,722 180,722 Q242,722 285,681 Q328,640 328,576 L328,423 Q328,382 311.5,351.5 Q295,321 270,306 Q245,291 223,284 Q201,277 183,277 Q131,277 83,313 Q35,349 35,423 M59,570 L59,426 Q59,369 95,336.5 Q131,304 182,304 Q225,304 264,333.5 Q303,363 303,426 L303,573 Q303,623 272,659.5 Q241,696 180,696 Q129,696 94,662.5 Q59,629 59,570"/> 
            <glyph glyph-name="%" unicode="&#x25;" horiz-adv-x="691" d=" M469,220 L567,439 L691,439 L691,412 L586,412 L490,199 L676,9 L655,-11 L476,172 L453,127 Q437,97 424,78 Q411,59 387.5,35 Q364,11 330,-1 Q296,-13 253,-13 Q164,-13 107.5,42.5 Q51,98 51,187 Q51,234 68,271.5 Q85,309 116,335.5 Q147,362 176,378.5 Q205,395 244,411 L208,450 Q174,488 160,513 Q146,538 145,576 Q145,637 190,682 Q235,727 299,727 Q369,727 411.5,683 Q454,639 454,576 Q454,513 413.5,476 Q373,439 291,402 M454,193 L264,390 Q159,350 120,302 Q81,254 80,186 Q81,110 130,62 Q179,14 256,14 Q313,14 353.5,42 Q394,70 428,139 M223,474 L271,423 Q354,459 389.5,491.5 Q425,524 425,577 Q425,625 390.5,662 Q356,699 298,700 Q241,699 207.5,661.5 Q174,624 174,580 Q174,525 223,474"/> 
            <glyph glyph-name="&amp;" unicode="&#x26;" horiz-adv-x="124" d=" M120,428 L95,428 L91,714 L124,714"/> 
            <glyph glyph-name="'" unicode="&#x27;" horiz-adv-x="380" d=" M380,757 L380,724 Q272,657 201,532.5 Q130,408 130,263 Q130,117 201,-7.5 Q272,-132 380,-199 L380,-235 Q298,-183 245,-123 Q177,-44 138,56 Q99,156 99,263 Q99,415 176.5,549.5 Q254,684 380,757"/> 
            <glyph glyph-name="(" unicode="&#x28;" horiz-adv-x="311" d=" M31,-235 L31,-202 Q139,-134 209.5,-9.5 Q280,115 280,260 Q280,405 209.5,530 Q139,655 31,722 L31,757 Q113,704 165,645 Q311,478 311,260 Q311,108 233.5,-27 Q156,-162 31,-235"/> 
            <glyph glyph-name=")" unicode="&#x29;" horiz-adv-x="395" d=" M395,583 L253,537 Q267,518 297.5,475.5 Q328,433 342,413 Q338,410 331,405.5 Q324,401 320,398 L233,523 Q220,503 189,460 Q158,417 144,397 Q140,400 132.5,405 Q125,410 121,413 L214,537 Q188,544 135,561.5 Q82,579 69,583 Q70,588 73,594.5 Q76,601 78,606 L222,560 Q221,584 220.5,635 Q220,686 220,710 L246,710 L247,560 Q273,568 324.5,585.5 Q376,603 387,607 Q388,603 389.5,599.5 Q391,596 392.5,591 Q394,586 395,583"/> 
            <glyph glyph-name="*" unicode="&#x2A;" horiz-adv-x="488" d=" M488,276 L281,276 L281,45 L254,45 L254,276 L47,276 L47,303 L254,303 L254,534 L281,534 L281,303 L488,303"/> 
            <glyph glyph-name="+" unicode="&#x2B;" horiz-adv-x="171" d=" M47,-101 L142,78 L171,78 L76,-101"/> 
            <glyph glyph-name="," unicode="&#x2C;" horiz-adv-x="257" d=" M0,289 L257,289 L257,261 L0,261"/> 
            <glyph glyph-name="-" unicode="&#x2D;" horiz-adv-x="149" d=" M149,78 L149,0 L120,0 L120,78"/> 
            <glyph glyph-name="." unicode="&#x2E;" horiz-adv-x="436" d=" M436,715 L54,-193 L22,-193 L404,715"/> 
            <glyph glyph-name="/" unicode="&#x2F;" horiz-adv-x="497" d=" M38,212 L38,495 Q38,553 57,598 Q76,643 102.5,667 Q129,691 163,706 Q197,721 221,725.5 Q245,730 265,730 Q362,730 429.5,667 Q497,604 497,503 L497,212 Q497,160 479,118.5 Q461,77 435,53 Q409,29 376.5,12.5 Q344,-4 317.5,-9.5 Q291,-15 270,-15 Q235,-15 197.5,-3.5 Q160,8 123,32.5 Q86,57 62,103.5 Q38,150 38,212 M67,498 L67,212 Q67,120 126.5,66 Q186,12 268,12 Q297,12 329,22 Q361,32 394,53.5 Q427,75 448,116 Q469,157 469,212 L469,503 Q469,583 416,643.5 Q363,704 265,704 Q182,704 124.5,649.5 Q67,595 67,498"/> 
            <glyph glyph-name="0" unicode="&#x30;" horiz-adv-x="448" d=" M107,0 L107,26 L266,26 L266,689 L107,689 L107,715 L295,715 L295,26 L448,26 L448,0"/> 
            <glyph glyph-name="1" unicode="&#x31;" horiz-adv-x="488" d=" M55,0 L55,26 L362,344 Q454,437 458,518 Q459,600 407,653 Q355,706 276,706 Q202,706 149.5,654 Q97,602 95,504 L66,504 Q68,617 132.5,674.5 Q197,732 280,732 Q370,732 429,670 Q488,608 487,513 Q483,462 458,418.5 Q433,375 382,324 L94,26 L461,26 L461,161 L487,161 L487,0"/> 
            <glyph glyph-name="2" unicode="&#x32;" horiz-adv-x="475" d=" M38,206 L67,206 Q70,112 128,62 Q186,12 258,12 Q340,12 393,63 Q446,114 446,199 Q446,275 391.5,328 Q337,381 237,381 L199,381 L199,407 L237,407 Q318,407 362,451.5 Q406,496 406,561 Q406,619 368,661 Q330,703 266,703 Q205,703 161.5,665.5 Q118,628 114,567 L87,567 Q91,643 145,686 Q199,729 263,729 Q343,729 389,679.5 Q435,630 435,560 Q435,505 402,460 Q369,415 320,397 L320,395 Q388,377 431.5,325 Q475,273 475,205 Q475,112 416,48.5 Q357,-15 255,-15 Q159,-15 99,48.5 Q39,112 38,206"/> 
            <glyph glyph-name="3" unicode="&#x33;" horiz-adv-x="534" d=" M297,0 L297,26 L390,26 L390,183 L16,183 L16,208 L380,715 L419,715 L419,209 L534,209 L534,183 L419,183 L419,26 L512,26 L512,0 M388,680 L50,209 L390,209 L390,680"/> 
            <glyph glyph-name="4" unicode="&#x34;" horiz-adv-x="497" d=" M130,714 L457,714 L457,688 L153,688 L107,417 Q180,474 264,474 Q366,474 431.5,404 Q497,334 497,233 Q497,130 425.5,58.5 Q354,-13 258,-13 Q178,-13 105,45 Q32,103 20,210 L49,210 Q60,119 122,66.5 Q184,14 259,14 Q344,14 406.5,77.5 Q469,141 469,230 Q469,320 410.5,384 Q352,448 262,448 Q163,448 96,365 L71,372"/> 
            <glyph glyph-name="5" unicode="&#x35;" horiz-adv-x="503" d=" M341,714 L151,437 L154,436 Q206,472 273,472 Q369,472 436,404.5 Q503,337 503,232 Q503,132 436,59.5 Q369,-13 268,-13 Q220,-13 180,2 Q140,17 113,40.5 Q86,64 67.5,95 Q49,126 40.5,158 Q32,190 32,221 Q32,310 93,400 L308,714 M61,223 Q61,137 117,75.5 Q173,14 267,14 Q357,14 415.5,77 Q474,140 474,229 Q474,331 411.5,388.5 Q349,446 271,446 Q186,446 123.5,386.5 Q61,327 61,223"/> 
            <glyph glyph-name="6" unicode="&#x36;" horiz-adv-x="474" d=" M92,688 L92,553 L66,553 L66,714 L474,714 L474,688 L155,0 L125,0 L443,688"/> 
            <glyph glyph-name="7" unicode="&#x37;" horiz-adv-x="483" d=" M89,550 Q89,625 141.5,676.5 Q194,728 268,728 Q345,728 396,676.5 Q447,625 447,550 Q447,499 416.5,455 Q386,411 335,389 Q401,368 442,315.5 Q483,263 483,193 Q483,107 420,47 Q357,-13 268,-13 Q175,-13 113,46.5 Q51,106 51,193 Q51,267 93.5,318 Q136,369 200,389 Q149,411 119,454.5 Q89,498 89,550 M118,549 Q118,485 161.5,442.5 Q205,400 268,400 Q332,400 375,444 Q418,488 418,549 Q418,612 376,657 Q334,702 268,702 Q202,702 160,658 Q118,614 118,549 M80,193 Q80,120 133.5,67 Q187,14 268,14 Q347,14 400.5,65.5 Q454,117 454,193 Q454,267 401.5,320.5 Q349,374 268,374 Q187,374 133.5,322.5 Q80,271 80,193"/> 
            <glyph glyph-name="8" unicode="&#x38;" horiz-adv-x="504" d=" M194,0 L385,278 L384,279 Q329,243 264,243 Q168,243 100.5,310.5 Q33,378 33,483 Q33,582 100.5,654.5 Q168,727 269,727 Q328,727 375,705 Q422,683 449,647.5 Q476,612 490,572.5 Q504,533 504,494 Q504,403 443,315 L227,0 M475,492 Q475,578 419,639.5 Q363,701 270,701 Q180,701 121,638 Q62,575 62,486 Q62,384 124.5,326.5 Q187,269 265,269 Q299,269 333.5,281.5 Q368,294 401,318.5 Q434,343 454.5,388.5 Q475,434 475,492"/> 
            <glyph glyph-name="9" unicode="&#x39;" horiz-adv-x="149" d=" M149,78 L149,0 L120,0 L120,78 M149,496 L149,418 L120,418 L120,496"/> 
            <glyph glyph-name=":" unicode="&#x3A;" horiz-adv-x="171" d=" M148,496 L148,418 L119,418 L119,496 M47,-101 L142,78 L171,78 L76,-101"/> 
            <glyph glyph-name=";" unicode="&#x3B;" horiz-adv-x="489" d=" M489,62 L46,291 L46,288 L489,518 L489,484 L108,292 L108,290 L489,95"/> 
            <glyph glyph-name="&lt;" unicode="&#x3C;" horiz-adv-x="488" d=" M488,377 L48,377 L48,404 L488,404 M488,176 L48,176 L48,203 L488,203"/> 
            <glyph glyph-name="=" unicode="&#x3D;" horiz-adv-x="489" d=" M489,291 L46,61 L46,95 L427,287 L427,290 L46,484 L46,517 L489,288"/> 
            <glyph glyph-name="&gt;" unicode="&#x3E;" horiz-adv-x="471" d=" M277,180 L248,180 Q248,235 268,271.5 Q288,308 339,348 Q442,428 442,522 Q442,601 388.5,651.5 Q335,702 259,702 Q183,702 126.5,650.5 Q70,599 68,521 L39,521 Q43,612 106.5,672 Q170,732 260,732 Q353,732 412,672 Q471,612 471,522 Q471,414 353,326 Q308,292 292.5,260.5 Q277,229 277,180 M276,78 L276,0 L248,0 L248,78"/> 
            <glyph glyph-name="?" unicode="&#x3F;" horiz-adv-x="767" d=" M767,413 Q767,314 707,236.5 Q647,159 554,159 L496,159 L508,226 Q454,148 364,148 Q294,148 249.5,199 Q205,250 205,326 Q205,419 262.5,478.5 Q320,538 397,538 Q452,538 491.5,504 Q531,470 541,414 Q541,417 545.5,441 Q550,465 554,489.5 Q558,514 560,526 L647,526 Q646,519 644.5,513.5 Q643,508 643,506 L580,506 L523,180 L559,180 Q632,180 688.5,247 Q745,314 745,412 Q745,543 658.5,624 Q572,705 431,705 Q279,705 174.5,600 Q70,495 70,350 Q70,193 164.5,100.5 Q259,8 411,8 Q541,8 653,54 L659,35 Q547,-14 410,-14 Q243,-14 144,86.5 Q45,187 45,349 Q45,505 156.5,616.5 Q268,728 431,728 Q582,728 674.5,641 Q767,554 767,413 M526,360 Q526,427 492.5,471 Q459,515 394,515 Q326,515 278.5,461 Q231,407 231,327 Q231,257 269,214.5 Q307,172 368,172 Q440,172 483,227 Q526,282 526,360"/> 
            <glyph glyph-name="@" unicode="&#x40;" horiz-adv-x="805" d=" M584,0 L584,26 L679,26 L583,248 L209,248 L113,26 L211,26 L211,0 L-10,0 L-10,26 L82,26 L366,688 L242,688 L242,714 L415,714 L710,26 L805,26 L805,0 M395,687 L221,274 L570,274"/> 
            <glyph glyph-name="A" unicode="&#x41;" horiz-adv-x="554" d=" M30,688 L30,714 L300,714 Q380,714 426,688 Q510,641 510,535 Q510,423 411,380 L411,378 Q479,358 516.5,310 Q554,262 554,190 Q553,107 497.5,53.5 Q442,0 327,0 L30,0 L30,26 L128,26 L128,688 M157,361 L157,26 L328,26 Q422,26 473,67.5 Q524,109 525,190 Q525,301 429,344 Q388,361 303,361 M157,688 L157,387 L301,387 Q376,387 408,405 Q481,446 481,539 Q481,584 459.5,618 Q438,652 408,667 Q366,688 300,688"/> 
            <glyph glyph-name="B" unicode="&#x42;" horiz-adv-x="718" d=" M685,156 L718,156 Q677,87 593.5,37 Q510,-13 406,-13 Q251,-13 143,92.5 Q35,198 35,357 Q35,516 142.5,621.5 Q250,727 406,727 Q572,726 677,610 L677,716 L703,716 L703,566 L678,566 Q636,624 566.5,662 Q497,700 406,701 Q262,701 163,602.5 Q64,504 64,357 Q64,210 163,112 Q262,14 406,14 Q464,14 515.5,31 Q567,48 602,75.5 Q637,103 654.5,120.5 Q672,138 685,156"/> 
            </font>
</defs>
</svg>
